<svg width="257" height="264" viewBox="0 0 257 264" fill="none" xmlns="http://www.w3.org/2000/svg">
    <path
        d="M128.803 205.716C196.004 205.716 250.482 159.665 250.482 102.858C250.482 46.051 196.004 0 128.803 0C61.6017 0 7.12427 46.051 7.12427 102.858C7.12427 159.665 61.6017 205.716 128.803 205.716Z"
        fill="#E6ECFF" />
    <path
        d="M128.803 264C166.994 264 197.955 261.399 197.955 258.19C197.955 254.981 166.994 252.38 128.803 252.38C90.611 252.38 59.6506 254.981 59.6506 258.19C59.6506 261.399 90.611 264 128.803 264Z"
        fill="#C7D1EA" />
    <path
        d="M94.5126 193.218C96.652 203.152 99.8142 214.243 102.262 224.28C104.813 234.106 107.464 244.034 110.219 253.861C111.545 259.141 119.602 257.557 119.096 252.152C116.643 232.499 114.399 211.059 112.463 191.304C111.468 179.199 93.2092 181.176 94.5126 193.218Z"
        fill="#ED7E97" />
    <path
        d="M151.159 252.488C151.054 257.66 158.704 258.822 160.029 253.752C162.779 243.926 165.435 234.106 167.987 224.172C170.435 214.665 173.19 203.995 175.533 194.488C178.492 181.706 159.215 178.111 157.786 191.213C155.833 211.287 153.485 232.625 151.159 252.488Z"
        fill="#ED7E97" />
    <path
        d="M156.24 206.428L155.322 215.194C165.931 218.891 170.314 214.773 170.314 214.773L171.744 209.384C172.97 204.417 174.295 199.558 175.516 194.574C175.811 193.381 175.876 192.139 175.707 190.92C175.539 189.701 175.14 188.528 174.534 187.468C173.928 186.409 173.126 185.484 172.174 184.745C171.223 184.006 170.14 183.469 168.988 183.164C167.836 182.859 166.638 182.792 165.461 182.966C164.284 183.141 163.151 183.554 162.128 184.182C161.106 184.81 160.212 185.64 159.499 186.625C158.786 187.611 158.267 188.732 157.973 189.925C157.849 190.374 157.781 190.837 157.769 191.304V191.407L156.24 206.428Z"
        fill="#E26988" />
    <path
        d="M94.5127 193.218C94.5288 193.682 94.5971 194.143 94.7162 194.591C95.9426 199.558 97.1635 204.525 98.4889 209.401C98.4889 209.401 105.22 216.806 114.911 213.839L113.893 206.433L112.359 191.321C112.116 188.87 110.943 186.619 109.098 185.064C107.253 183.508 104.887 182.776 102.52 183.027C100.154 183.279 97.9804 184.494 96.4788 186.405C94.9771 188.316 94.2699 190.767 94.5127 193.218Z"
        fill="#E26988" />
    <path
        d="M91.477 255.757C93.6163 261.044 118.2 263.368 119.112 253.223V252.169C119.112 251.85 119.014 251.537 119.014 251.218C119.02 251.16 119.015 251.101 118.996 251.046C118.978 250.99 118.948 250.94 118.909 250.899L113.712 249.19L108.713 247.6H108.608C106.958 247.709 92.3954 248.66 91.3725 254.681C91.2938 255.042 91.3305 255.42 91.477 255.757Z"
        fill="#ED7E97" />
    <path
        d="M91.4769 255.758C91.4769 255.758 97.796 251.537 109.323 250.266C109.631 250.266 109.934 250.164 110.242 250.164C110.665 250.116 111.072 249.966 111.43 249.727C111.789 249.488 112.089 249.166 112.306 248.787C112.524 248.407 112.653 247.981 112.684 247.541C112.715 247.1 112.647 246.659 112.485 246.25L101.486 220.583L102.405 224.28C104.445 232.095 106.485 239.916 108.625 247.732C106.975 247.84 92.4064 248.791 91.3889 254.812C91.3142 255.128 91.3452 255.462 91.4769 255.758Z"
        fill="#F490AA" />
    <path
        d="M151.159 252.488C151.175 253.022 151.243 253.552 151.362 254.071C153.71 263.898 179.922 260.514 179.003 254.704C177.98 248.785 163.395 247.732 161.767 247.623H161.663L157.989 248.763L151.467 250.773C151.471 250.921 151.435 251.067 151.362 251.195C151.286 251.469 151.253 251.753 151.263 252.038V252.146C151.223 252.188 151.193 252.238 151.175 252.293C151.157 252.348 151.151 252.407 151.159 252.465V252.488Z"
        fill="#ED7E97" />
    <path
        d="M157.758 248.785C157.661 249.023 157.623 249.282 157.649 249.539C157.675 249.796 157.764 250.041 157.907 250.253C158.05 250.464 158.243 250.634 158.467 250.747C158.691 250.86 158.939 250.912 159.188 250.899H160.717C172.14 251.109 178.866 254.596 178.866 254.596C177.848 248.683 163.263 247.623 161.63 247.521C163.775 239.7 165.815 231.884 167.85 224.069L168.768 220.372L157.769 248.785H157.758Z"
        fill="#F490AA" />
    <path
        d="M151.345 254.071C153.694 263.898 179.905 260.514 178.986 254.704C178.882 254.704 164.094 259.563 151.345 254.071Z"
        fill="#E26988" />
    <path
        d="M91.4768 255.757C93.6162 261.044 118.199 263.368 119.112 253.12H118.909C118.909 253.12 108.713 260.087 91.4768 255.757Z"
        fill="#E26988" />
    <path
        d="M120.13 251.981C120.133 251.951 120.133 251.92 120.13 251.89C120.127 251.877 120.127 251.863 120.13 251.85C120.13 251.599 120.075 251.349 120.031 251.087C118.739 240.697 117.364 230.5 116.467 221.745L114.817 206.633L113.283 191.424C113.149 190.077 112.76 188.771 112.139 187.58C111.518 186.389 110.676 185.337 109.662 184.483C108.648 183.629 107.482 182.99 106.23 182.603C104.977 182.216 103.664 182.088 102.364 182.227C101.064 182.366 99.8027 182.768 98.6529 183.412C97.5032 184.055 96.487 184.927 95.6625 185.977C94.838 187.028 94.2213 188.236 93.8476 189.533C93.4739 190.83 93.3505 192.191 93.4845 193.537C93.589 193.959 93.6934 194.488 93.7924 195.012C95.0189 200.088 96.3442 204.947 97.5652 209.908L101.338 224.718C102.905 230.796 105.188 238.703 107.437 246.883C103.301 247.213 91.4056 248.592 90.4267 254.613C90.3277 255.564 90.5312 256.937 92.5715 258.309C95.2223 260.109 100.425 261.272 105.622 261.272C109.906 261.272 114.091 260.423 117.045 258.309C118.072 257.651 118.903 256.712 119.447 255.595C119.992 254.478 120.228 253.228 120.13 251.981ZM115.95 256.817C110.649 260.622 97.9996 259.46 93.6164 256.606C92.9015 256.185 92.1866 255.547 92.2911 254.812C93.105 250.255 104.429 248.785 108.79 248.546C108.966 248.533 109.133 248.464 109.27 248.349C109.407 248.234 109.506 248.078 109.554 247.902C109.584 247.858 109.605 247.808 109.614 247.755C109.624 247.702 109.622 247.647 109.609 247.595C109.605 247.47 109.571 247.349 109.51 247.242C107.189 238.805 104.687 230.5 103.081 224.143L99.3085 209.333C97.9776 204.474 96.7567 199.507 95.5303 194.522C95.4145 194.111 95.3462 193.686 95.3268 193.258C95.108 191.03 95.7526 188.804 97.1186 187.069C98.4847 185.333 100.46 184.231 102.611 184.004C104.762 183.778 106.911 184.445 108.587 185.86C110.262 187.275 111.326 189.321 111.545 191.549L113.074 206.656L114.724 221.762C115.642 230.637 116.764 240.252 118.09 250.921C118.607 253.542 117.892 255.336 115.961 256.817H115.95Z"
        fill="#BF4B6F" />
    <path
        d="M179.905 254.704C178.838 248.717 167.085 247.298 162.933 246.974C165.183 238.754 167.333 230.688 168.889 224.491L172.662 209.68C173.987 204.821 175.214 199.86 176.435 194.87C177.084 192.221 176.698 189.414 175.359 187.06C174.02 184.705 171.837 182.994 169.285 182.298C168.023 181.94 166.705 181.849 165.408 182.032C164.112 182.214 162.864 182.665 161.74 183.358C160.605 184.042 159.614 184.955 158.825 186.043C158.036 187.131 157.466 188.372 157.148 189.692C156.998 190.174 156.895 190.67 156.84 191.173L155.311 206.388L153.661 221.494C152.742 230.472 151.637 240.4 150.312 251.075C149.762 254.054 150.818 256.543 153.248 258.361C155.998 260.366 160.288 261.209 164.572 261.209C169.775 261.209 174.972 259.938 177.727 258.361C179.8 257.028 180.108 255.655 179.905 254.704ZM176.743 256.709C172.459 259.671 159.694 260.833 154.403 256.925C153.498 256.317 152.802 255.426 152.418 254.382C152.033 253.337 151.979 252.193 152.264 251.115C153.589 240.44 154.607 230.722 155.525 221.745L157.263 206.741L158.792 191.532V191.424C158.819 191.037 158.887 190.655 158.995 190.284C159.572 188.125 160.921 186.273 162.768 185.106C163.677 184.536 164.686 184.158 165.737 183.995C166.787 183.832 167.859 183.886 168.889 184.155C170.97 184.72 172.751 186.117 173.84 188.038C174.93 189.96 175.24 192.251 174.702 194.408C173.476 199.376 172.151 204.235 170.93 209.219L167.157 224.029C165.551 230.352 163.17 238.913 160.86 247.315C160.773 247.461 160.727 247.629 160.728 247.8C160.72 247.862 160.72 247.925 160.728 247.988C160.741 248.203 160.835 248.404 160.991 248.547C161.146 248.69 161.351 248.763 161.558 248.751C165.837 248.854 177.265 250.46 178.057 254.983C178.167 255.655 177.353 256.287 176.743 256.709Z"
        fill="#BF4B6F" />
    <path
        d="M70.5067 177.781C89.6838 171.128 97.0258 157.075 99.6546 146.406C101.082 140.614 101.638 134.629 101.304 128.662C101.2 126.549 100.996 125.176 100.898 125.068L99.4676 125.387L88.2484 127.392C88.2443 127.539 88.2785 127.684 88.3474 127.813C88.9261 133.015 88.5529 138.283 87.2475 143.341C87.1485 143.66 87.044 143.979 86.945 144.293C86.5641 145.547 86.1217 146.781 85.6196 147.99C82.1494 156.124 75.7204 161.831 66.4425 165.078C55.0199 168.986 35.1333 166.218 25.3385 164.23C24.1176 164.019 23.0946 163.706 22.1762 163.495C20.5258 163.125 18.8013 163.441 17.3735 164.375C15.9457 165.309 14.9287 166.785 14.5411 168.488C14.1534 170.19 14.4262 171.982 15.3007 173.478C16.1752 174.974 17.5816 176.055 19.2175 176.488C19.9739 176.621 20.7229 176.796 21.4613 177.012C29.1992 178.732 54.2884 183.381 70.5067 177.781Z"
        fill="#ED7E97" />
    <path
        d="M85.4988 148.098C82.034 156.232 75.5995 161.934 66.3272 165.187C54.899 169.1 35.0124 166.326 25.2231 164.343C25.8336 164.554 42.8659 170.364 56.2244 170.04C69.7919 169.755 84.4813 162.042 85.4988 148.098Z"
        fill="#F490AA" />
    <path
        d="M70.507 177.781C89.6841 171.128 97.0261 157.075 99.6549 146.406C101.082 140.614 101.638 134.629 101.305 128.662C101.2 126.549 100.997 125.176 100.898 125.068L99.4679 125.387L88.3532 127.933C88.9319 133.135 88.5587 138.403 87.2533 143.461C87.1543 143.774 87.0498 144.093 86.9508 144.412C86.9508 144.412 93.3743 149.374 90.2121 158.778C87.0498 168.285 71.6509 182.651 21.5715 177.16C29.1995 178.732 54.2887 183.381 70.507 177.781Z"
        fill="#E26988" />
    <path
        d="M20.818 167.961C20.1524 168.575 19.3945 169.074 18.5742 169.436C18.1579 169.675 17.7119 169.853 17.2488 169.966C15.3 170.58 13.2684 170.864 11.2322 170.809C8.60599 170.731 6.00012 170.306 3.47775 169.544C3.06715 169.429 2.68277 169.231 2.34698 168.96C2.01119 168.69 1.7307 168.353 1.52187 167.969C1.31304 167.585 1.18005 167.162 1.13062 166.724C1.08118 166.287 1.1163 165.843 1.23393 165.42C1.40576 164.738 1.78741 164.132 2.32123 163.694C2.85505 163.256 3.51201 163.01 4.19272 162.993C4.50218 162.977 4.81223 163.011 5.11115 163.096C10.9242 164.805 14.29 164.047 15.6154 163.518C15.899 163.4 16.1731 163.259 16.4348 163.096L16.3303 163.204L20.818 167.961Z"
        fill="#ED7E97" />
    <path
        d="M22.6714 166.269C22.6747 166.976 22.4584 167.666 22.0544 168.236C21.6503 168.806 21.08 169.227 20.4275 169.436C20.1012 169.568 19.7549 169.64 19.4046 169.647C19.1294 169.67 18.8525 169.635 18.5907 169.544C17.9113 169.332 17.3159 168.899 16.8929 168.309C16.4699 167.719 16.2418 167.004 16.2423 166.269C16.2462 165.317 16.0373 164.377 15.6319 163.523C15.3294 162.885 15.0214 162.384 14.7134 161.814C14.1642 160.991 13.5134 160.247 12.7776 159.598C12.1736 159.044 11.7934 158.275 11.713 157.443C11.6326 156.612 11.8577 155.78 12.3436 155.112C12.8294 154.445 13.5403 153.992 14.3343 153.844C15.1283 153.696 15.9471 153.863 16.6273 154.312C16.9683 154.54 22.7703 159.188 22.6714 166.269Z"
        fill="#ED7E97" />
    <path
        d="M19.4048 176.727C16.7539 177.57 14.6146 177.57 12.8052 176.619C12.0657 176.212 11.4189 175.645 10.9086 174.957C10.3982 174.27 10.036 173.477 9.84644 172.632C9.69099 171.763 9.87143 170.866 10.3488 170.134C10.8262 169.402 11.5623 168.893 12.3983 168.718C13.1263 168.568 13.8822 168.687 14.5343 169.054C15.1865 169.422 15.6936 170.014 15.9675 170.729C16.8552 170.659 17.7206 170.407 18.5138 169.989C19.2934 169.656 20.1674 169.65 20.9507 169.973C21.7341 170.296 22.3652 170.923 22.7105 171.719C23.0558 172.516 23.0881 173.421 22.8006 174.242C22.5131 175.063 21.9283 175.736 21.1701 176.118C20.5267 176.306 19.9162 176.516 19.4048 176.727Z"
        fill="#ED7E97" />
    <path
        d="M15.9399 178.208C14.7027 178.216 13.4807 177.925 12.3707 177.36C11.5144 176.888 10.769 176.228 10.1872 175.424C9.6055 174.621 9.20183 173.695 9.0049 172.711C8.86196 171.968 8.93271 171.198 9.20839 170.496C9.24847 170.383 9.30948 170.28 9.38797 170.193C9.46646 170.105 9.56089 170.034 9.66583 169.984C9.77078 169.934 9.8842 169.906 9.99962 169.901C10.115 169.897 10.2302 169.916 10.3385 169.957C10.4469 169.999 10.5463 170.062 10.631 170.143C10.7158 170.225 10.7842 170.322 10.8325 170.431C10.8807 170.54 10.9078 170.657 10.9123 170.777C10.9167 170.896 10.8983 171.016 10.8583 171.128C10.7228 171.536 10.6869 171.972 10.7538 172.398C10.8903 173.102 11.1822 173.763 11.6068 174.33C12.0314 174.898 12.5771 175.355 13.2011 175.668C14.73 176.516 16.5723 176.34 18.9207 175.599C19.199 175.53 19.4927 175.575 19.7392 175.726C19.9856 175.877 20.1655 176.122 20.2406 176.408C20.4441 176.938 20.0316 177.24 19.5201 177.348C19.6191 177.61 17.1608 178.208 15.9399 178.208Z"
        fill="#BF4B6F" />
    <path
        d="M11.3476 170.809H11.1441C8.51966 170.73 5.91565 170.305 3.39514 169.544C2.98415 169.43 2.59929 169.232 2.2631 168.961C1.92691 168.691 1.64612 168.354 1.43719 167.97C1.22825 167.586 1.09536 167.163 1.04627 166.725C0.997177 166.287 1.03289 165.843 1.1513 165.42C1.32148 164.737 1.70271 164.13 2.23689 163.692C2.77106 163.254 3.42888 163.008 4.11009 162.993C3.9066 163.415 1.15132 168.171 11.3476 170.809Z"
        fill="#F490AA" />
    <path
        d="M16.7539 154.329C16.039 154.438 13.0857 155.469 14.8181 161.831C14.267 161.007 13.6143 160.26 12.8767 159.61C12.2006 159.077 11.7565 158.288 11.642 157.417C11.5275 156.545 11.7521 155.662 12.2662 154.962C12.7804 154.261 13.542 153.801 14.3836 153.683C15.2252 153.564 16.0778 153.797 16.7539 154.329Z"
        fill="#F490AA" />
    <path
        d="M11.6557 171.794C8.79251 171.773 5.94858 171.307 3.21932 170.41C2.67418 170.282 2.15974 170.041 1.70713 169.702C1.25452 169.362 0.873169 168.931 0.586166 168.434C0.299162 167.938 0.11247 167.386 0.037414 166.812C-0.0376422 166.238 0.000484065 165.655 0.149494 165.097C0.298504 164.539 0.555296 164.018 0.904313 163.566C1.25333 163.114 1.68732 162.74 2.17999 162.467C2.67266 162.193 3.21375 162.026 3.77052 161.976C4.3273 161.925 4.88817 161.993 5.41916 162.173C11.0288 163.757 14.0865 163.125 15.4119 162.595C15.5161 162.54 15.6309 162.51 15.7478 162.508C15.8647 162.506 15.9805 162.531 16.0866 162.582C16.1926 162.633 16.286 162.708 16.3597 162.802C16.4333 162.896 16.4854 163.007 16.5118 163.125C16.5687 163.239 16.6006 163.365 16.605 163.494C16.6095 163.623 16.5865 163.751 16.5376 163.87C16.4888 163.988 16.4153 164.094 16.3225 164.18C16.2296 164.266 16.1197 164.33 16.0004 164.366C14.4715 164.999 11.0068 165.762 4.88572 163.968C4.28867 163.809 3.6552 163.898 3.12147 164.218C2.58775 164.538 2.19636 165.061 2.03142 165.676C1.93595 165.973 1.90468 166.287 1.93985 166.597C1.97502 166.907 2.07577 167.206 2.2349 167.471C2.56444 168.013 3.06919 168.417 3.65928 168.61C6.38202 169.41 9.19428 169.837 12.0242 169.88C12.1504 169.87 12.2773 169.887 12.3968 169.93C12.5164 169.973 12.6261 170.042 12.719 170.131C12.8119 170.22 12.8861 170.328 12.9368 170.448C12.9875 170.568 13.0136 170.698 13.0136 170.829C13.0136 170.96 12.9875 171.09 12.9368 171.21C12.8861 171.33 12.8119 171.438 12.719 171.527C12.6261 171.616 12.5164 171.684 12.3968 171.727C12.2773 171.77 12.1504 171.787 12.0242 171.777L11.6557 171.794Z"
        fill="#BF4B6F" />
    <path
        d="M22.4679 164.474C22.061 164.474 21.368 164.212 21.2635 163.791C20.2461 158.613 16.3469 155.281 16.2479 155.07C15.7607 154.677 15.1429 154.501 14.5302 154.58C13.9176 154.659 13.3604 154.987 12.9811 155.491C12.6019 155.996 12.4317 156.636 12.508 157.27C12.5844 157.905 12.9009 158.482 13.3881 158.875C14.714 160.039 15.7911 161.477 16.5504 163.096C16.5973 163.214 16.6214 163.34 16.6212 163.467C16.6211 163.595 16.5967 163.721 16.5495 163.839C16.5022 163.956 16.433 164.063 16.3459 164.153C16.2588 164.243 16.1554 164.315 16.0417 164.363C15.9279 164.412 15.806 164.437 15.683 164.437C15.5599 164.437 15.4381 164.411 15.3245 164.362C15.2108 164.313 15.1076 164.242 15.0207 164.152C14.9338 164.061 14.865 163.954 14.818 163.836C14.1939 162.486 13.2886 161.295 12.1672 160.35C11.7363 160.011 11.378 159.582 11.1148 159.092C10.8517 158.602 10.6895 158.06 10.6383 157.502C10.5313 156.665 10.6674 155.813 11.0292 155.056C11.3909 154.299 11.9621 153.671 12.6699 153.251C13.3776 152.831 14.19 152.639 15.0035 152.7C15.817 152.76 16.5948 153.069 17.2378 153.589C20.1094 156.099 22.1357 159.491 23.0234 163.272C23.1224 163.802 23.0509 164.292 22.5394 164.412C22.5334 164.427 22.5238 164.441 22.5113 164.452C22.4988 164.463 22.4839 164.471 22.4679 164.474Z"
        fill="#BF4B6F" />
    <path
        d="M51.1262 181.375C35.4193 181.375 19.916 177.679 18.9975 177.468C18.7539 177.411 18.542 177.257 18.4085 177.038C18.2749 176.82 18.2306 176.555 18.2853 176.303C18.34 176.051 18.4892 175.831 18.7001 175.693C18.9111 175.554 19.1664 175.509 19.41 175.565C20.7354 175.878 51.5331 183.278 70.1988 176.83C88.9689 170.285 96.1074 156.551 98.8627 146.07C100.272 140.382 100.788 134.497 100.392 128.639C100.287 127.58 100.188 126.628 100.188 126.099L89.2714 128.109C89.7491 133.32 89.3358 138.576 88.0505 143.638C85.0917 154.626 77.9532 162.128 66.734 166.035C53.7825 170.592 30.0132 166.457 21.9563 164.452C21.8357 164.424 21.7215 164.372 21.6203 164.299C21.5191 164.225 21.4329 164.132 21.3665 164.024C21.3001 163.916 21.2549 163.796 21.2334 163.67C21.2119 163.544 21.2146 163.415 21.2414 163.29C21.2681 163.165 21.3183 163.047 21.3891 162.942C21.46 162.837 21.5501 162.748 21.6542 162.679C21.7584 162.61 21.8747 162.563 21.9963 162.541C22.118 162.519 22.2427 162.522 22.3633 162.549C30.3212 164.452 53.5735 168.462 66.1236 164.133C76.7268 160.436 83.4583 153.355 86.3181 143.005C87.6671 137.925 88.0224 132.616 87.3631 127.392C87.3328 127.155 87.3894 126.914 87.5217 126.718C87.6541 126.522 87.8525 126.384 88.078 126.332H88.1825L100.832 124.225C101.074 124.208 101.317 124.243 101.547 124.327C101.652 124.399 101.742 124.492 101.812 124.6C101.882 124.709 101.93 124.831 101.954 124.959C101.954 125.068 102.157 126.44 102.36 128.656C102.758 134.732 102.2 140.834 100.711 146.725C97.9608 157.605 90.5088 171.971 70.9247 178.732C64.9962 180.743 57.9622 181.375 51.1262 181.375Z"
        fill="#BF4B6F" />
    <path
        d="M31.9106 154.557C31.9179 162.175 34.8429 169.479 40.0435 174.866C45.2442 180.252 52.2958 183.282 59.6506 183.289H60.6735C62.319 189.315 65.82 194.62 70.6437 198.396C75.4674 202.171 81.3499 204.212 87.3961 204.206C92.3125 204.235 97.1437 202.876 101.371 200.276C103.949 203.937 107.324 206.916 111.223 208.972C115.122 211.028 119.434 212.102 123.809 212.107C130.818 212.121 137.567 209.362 142.678 204.394C145.454 207.075 148.731 209.137 152.307 210.453C155.884 211.768 159.683 212.309 163.469 212.042C167.255 211.775 170.949 210.706 174.32 208.9C177.691 207.095 180.668 204.592 183.067 201.546C189.666 204.695 197.192 205.044 204.035 202.518C210.879 199.991 216.496 194.791 219.684 188.029C220.049 187.281 220.356 186.503 220.602 185.705C221.311 185.807 222.131 186.018 222.846 186.126C223.863 186.229 224.985 186.337 226.107 186.337C231.327 186.336 236.44 184.811 240.86 181.936C245.281 179.062 248.829 174.954 251.097 170.085C253.041 165.889 253.981 161.27 253.839 156.618C253.696 151.966 252.475 147.418 250.278 143.358C254.077 138.316 256.126 132.096 256.096 125.7C256.081 119.4 254.079 113.277 250.396 108.263C246.714 103.248 241.551 99.6164 235.693 97.9191C236.397 95.3419 236.741 92.6738 236.716 89.9956C236.701 82.3811 233.773 75.0832 228.572 69.7017C223.371 64.3201 216.322 61.2938 208.97 61.2863C205.191 61.2959 201.452 62.086 197.971 63.6104C197.122 58.0232 194.701 52.8192 191.012 48.6489C187.323 44.4786 182.529 41.527 177.229 40.1631C171.93 38.7991 166.359 39.0833 161.215 40.9802C156.07 42.877 151.58 46.3023 148.304 50.8279H147.688C144.719 45.5613 140.21 41.4092 134.812 38.9721C129.415 36.5351 123.409 35.9395 117.663 37.2713C111.917 38.6032 106.729 41.7935 102.849 46.3809C98.969 50.9684 96.5984 56.7151 96.08 62.7901C91.9102 61.3506 87.4698 60.9579 83.1247 61.6444C78.7796 62.331 74.6543 64.0771 71.0886 66.739C67.5228 69.4009 64.6188 72.9023 62.6159 76.9546C60.6129 81.007 59.5683 85.4943 59.5682 90.0469V90.7874C53.4308 92.2558 47.9536 95.8317 44.0275 100.933C40.1013 106.035 37.9572 112.363 37.9437 118.887C37.9177 123.768 39.1133 128.572 41.414 132.832C38.4281 135.544 36.0357 138.885 34.3968 142.631C32.7579 146.378 31.9103 150.444 31.9106 154.557Z"
        fill="#FC9DB8" />
    <path
        d="M44.7633 141.245C44.7706 148.865 47.697 156.17 52.9001 161.557C58.1031 166.944 65.1575 169.973 72.5143 169.977H73.5372C75.1827 176.003 78.6836 181.308 83.5073 185.083C88.3311 188.859 94.2135 190.899 100.26 190.894C105.172 190.93 110.002 189.579 114.229 186.986C116.807 190.647 120.183 193.626 124.082 195.681C127.981 197.737 132.292 198.811 136.667 198.817C143.676 198.831 150.425 196.072 155.536 191.105C158.313 193.785 161.591 195.846 165.167 197.162C168.744 198.477 172.543 199.018 176.33 198.751C180.116 198.484 183.81 197.415 187.181 195.609C190.553 193.804 193.531 191.302 195.931 188.257C199.576 189.997 203.543 190.897 207.557 190.894C211.757 190.889 215.903 189.916 219.695 188.046C220.795 187.516 219.59 186.337 220.613 185.722C225.403 182.446 231.425 178.111 233.466 172.512C235.474 172.958 237.529 173.136 239.581 173.042C243.58 172.929 247.512 171.959 251.13 170.194C253.071 165.997 254.01 161.378 253.869 156.727C253.727 152.076 252.509 147.528 250.316 143.467C254.111 138.422 256.158 132.203 256.129 125.808C256.112 119.508 254.111 113.386 250.43 108.371C246.748 103.357 241.588 99.7228 235.731 98.0217C236.431 95.4456 236.773 92.7797 236.749 90.1038C236.742 82.4854 233.817 75.1811 228.616 69.7935C223.416 64.4059 216.364 61.3751 209.009 61.3661C205.229 61.3723 201.489 62.1625 198.01 63.6901C197.159 58.1031 194.737 52.8996 191.048 48.7298C187.358 44.56 182.564 41.6089 177.264 40.2451C171.965 38.8813 166.394 39.1653 161.25 41.0617C156.105 42.9581 151.614 46.3827 148.337 50.9077H147.727C144.759 45.6386 140.249 41.4842 134.851 39.0455C129.452 36.6068 123.445 36.0104 117.697 37.3425C111.95 38.6745 106.76 41.866 102.88 46.4552C98.9999 51.0443 96.6299 56.7932 96.113 62.8699C91.9432 61.4263 87.5017 61.0307 83.1551 61.7156C78.8085 62.4005 74.6815 64.1463 71.1147 66.8089C67.548 69.4715 64.6438 72.9746 62.6419 77.029C60.64 81.0834 59.5977 85.5728 59.6012 90.1266V90.8614C57.5206 91.3622 55.502 92.1076 53.5847 93.083C51.7757 97.0092 50.8362 101.304 50.8349 105.655C50.8089 110.535 52.0045 115.34 54.3051 119.599C51.3018 122.281 48.8941 125.604 47.2471 129.341C45.6001 133.077 44.7528 137.138 44.7633 141.245Z"
        fill="#FFA6BD" />
    <path
        d="M59.6506 90.1152C68.934 59.0533 98.2083 67.7174 98.2083 67.7174C99.4937 62.5528 102.092 57.8395 105.732 54.0677C109.373 50.2959 113.923 47.6036 118.909 46.2709C136.354 41.4119 147.369 57.1508 147.369 57.1508C150.598 53.9595 154.464 51.5405 158.693 50.0642C162.922 48.5879 167.413 48.0903 171.848 48.6063C187.148 50.3152 193.263 70.7934 193.263 70.7934C193.263 70.7934 206.221 66.1452 220.904 74.0687C235.489 81.9923 232.025 103.541 232.025 103.541C261.293 119.388 250.69 143.051 250.586 143.37C254.383 138.326 256.43 132.106 256.399 125.711C256.384 119.411 254.384 113.287 250.703 108.272C247.021 103.256 241.859 99.6234 236.001 97.9248C236.703 95.3473 237.045 92.6791 237.018 90.0012C237.007 82.3863 234.08 75.087 228.88 69.704C223.679 64.321 216.63 61.2938 209.278 61.2863C205.499 61.2925 201.759 62.0827 198.279 63.6104C197.431 58.0217 195.01 52.8162 191.321 48.6446C187.631 44.4731 182.837 41.5206 177.536 40.1565C172.235 38.7925 166.663 39.0773 161.518 40.9753C156.373 42.8733 151.882 46.3004 148.607 50.8279H147.996C145.03 45.5577 140.521 41.4021 135.122 38.9626C129.724 36.5231 123.716 35.9262 117.968 37.2585C112.22 38.5907 107.031 41.783 103.151 46.3731C99.2717 50.9631 96.9029 56.7129 96.388 62.7901C92.1998 61.3483 87.7412 60.9555 83.3781 61.644C79.015 62.3326 74.8717 64.0828 71.2882 66.7511C67.7046 69.4194 64.7829 72.9297 62.7628 76.9941C60.7427 81.0584 59.6818 85.561 59.6671 90.1323L59.6506 90.1152Z"
        fill="#FFB8CC" />
    <path
        d="M161.547 212.984C154.6 212.967 147.896 210.335 142.684 205.579C137.484 210.366 130.765 213.002 123.809 212.984C119.432 212.965 115.116 211.914 111.19 209.909C107.264 207.905 103.831 205 101.151 201.415C96.9453 203.831 92.2107 205.086 87.4018 205.061C81.2856 205.053 75.3323 203.018 70.4124 199.255C65.4925 195.491 61.8641 190.196 60.0577 184.144H59.6563C53.8934 184.125 48.2699 182.307 43.5201 178.926C38.7703 175.546 35.115 170.761 33.0315 165.196C30.9481 159.63 30.5333 153.543 31.8413 147.73C33.1494 141.917 36.1194 136.647 40.3637 132.609C38.5878 129.094 37.5103 125.245 37.1948 121.29C36.8793 117.336 37.3322 113.356 38.5268 109.586C39.7213 105.815 41.6332 102.331 44.1496 99.3394C46.6661 96.3475 49.7359 93.9083 53.1778 92.1659C54.9518 91.2596 56.8138 90.5512 58.7324 90.0525V89.9785C58.7324 85.38 59.7674 80.8449 61.7551 76.733C63.7428 72.6212 66.6284 69.0458 70.1831 66.2907C73.7377 63.5356 77.8634 61.6767 82.2327 60.8614C86.6021 60.0461 91.0948 60.2969 95.3542 61.5939C96.0998 55.5678 98.6163 49.925 102.563 45.4303C106.509 40.9356 111.694 37.8065 117.415 36.4671C123.137 35.1277 129.117 35.6429 134.546 37.9427C139.975 40.2426 144.59 44.2159 147.765 49.3241C150.579 45.9209 154.069 43.187 157.997 41.3093C161.924 39.4315 166.197 38.4543 170.523 38.4442C177.158 38.439 183.589 40.8286 188.707 45.2022C193.826 49.5757 197.314 55.6599 198.571 62.4085C201.885 61.0989 205.401 60.4233 208.948 60.4148C213.296 60.4457 217.579 61.4967 221.478 63.4887C225.377 65.4807 228.789 68.362 231.458 71.9161C234.127 75.4701 235.984 79.6045 236.889 84.0086C237.794 88.4127 237.724 92.9719 236.683 97.3438C242.528 99.2296 247.64 102.997 251.276 108.099C254.912 113.201 256.882 119.37 256.899 125.711C256.939 132.101 254.955 138.328 251.251 143.438C253.49 147.768 254.663 152.602 254.667 157.514C254.66 161.99 253.693 166.409 251.834 170.45C249.518 175.482 245.869 179.73 241.313 182.697C236.756 185.664 231.479 187.228 226.096 187.208C224.93 187.208 223.759 187.094 222.752 186.992C222.345 186.929 221.95 186.849 221.548 186.77L221.158 186.684C221.02 187.066 220.861 187.413 220.701 187.761C220.608 187.966 220.514 188.171 220.432 188.376C217.212 195.256 211.548 200.581 204.625 203.235C197.702 205.889 190.056 205.667 183.287 202.617C180.604 205.872 177.271 208.485 173.517 210.275C169.764 212.065 165.68 212.989 161.547 212.984ZM142.678 203.562C142.883 203.564 143.079 203.645 143.228 203.79C145.922 206.392 149.103 208.393 152.574 209.669C156.044 210.945 159.731 211.47 163.406 211.21C167.08 210.951 170.664 209.913 173.936 208.16C177.207 206.408 180.096 203.978 182.424 201.022C182.54 200.878 182.699 200.777 182.875 200.734C183.052 200.692 183.237 200.711 183.403 200.788C189.804 203.845 197.106 204.185 203.747 201.737C210.387 199.288 215.839 194.245 218.936 187.687C219.013 187.505 219.112 187.277 219.216 187.055C219.445 186.565 219.629 186.053 219.766 185.528C219.818 185.324 219.94 185.147 220.109 185.029C220.278 184.912 220.483 184.862 220.685 184.89C221.059 184.947 221.455 185.027 221.85 185.112C222.246 185.198 222.587 185.266 222.95 185.311C223.885 185.408 225.007 185.517 226.096 185.517C231.167 185.536 236.138 184.063 240.431 181.268C244.724 178.474 248.162 174.473 250.344 169.732C252.23 165.658 253.142 161.174 253.003 156.658C252.864 152.142 251.679 147.727 249.547 143.786C249.468 143.639 249.433 143.472 249.446 143.305C249.458 143.137 249.518 142.978 249.618 142.846C253.304 137.97 255.292 131.949 255.261 125.757C255.244 119.643 253.301 113.701 249.728 108.834C246.155 103.967 241.146 100.441 235.462 98.7907C235.254 98.7248 235.08 98.5765 234.977 98.3781C234.874 98.1797 234.85 97.9471 234.912 97.7311C235.592 95.2313 235.923 92.6438 235.896 90.0468C235.888 82.656 233.049 75.5705 228.004 70.3444C222.958 65.1183 216.117 62.1783 208.981 62.1692C205.305 62.1842 201.668 62.9588 198.285 64.4477C198.169 64.4976 198.045 64.52 197.92 64.5131C197.795 64.5062 197.674 64.4702 197.564 64.4079C197.455 64.3448 197.36 64.2566 197.289 64.15C197.217 64.0433 197.171 63.9211 197.152 63.7927C196.161 57.2186 192.932 51.2284 188.05 46.9045C183.167 42.5806 176.952 40.2082 170.528 40.2158C161.883 40.2158 153.38 44.4994 148.337 51.3919C148.255 51.5038 148.148 51.5931 148.025 51.6517C147.901 51.7104 147.766 51.7367 147.631 51.7282C147.495 51.7198 147.364 51.6769 147.248 51.6033C147.133 51.5297 147.036 51.4277 146.968 51.3064C144.075 46.2232 139.701 42.2203 134.474 39.8727C129.248 37.5251 123.437 36.9535 117.878 38.24C112.318 39.5266 107.294 42.605 103.529 47.0333C99.7642 51.4616 97.4509 57.0118 96.9216 62.887C96.9102 63.0159 96.8712 63.1405 96.8074 63.2518C96.7437 63.3632 96.6568 63.4584 96.5531 63.5306C96.4484 63.6008 96.3296 63.6455 96.2057 63.6613C96.0819 63.6771 95.9562 63.6636 95.8381 63.6218C91.7921 62.2258 87.4837 61.8454 83.2679 62.512C79.0521 63.1785 75.0495 64.8729 71.5899 67.4556C68.1302 70.0383 65.3124 73.4355 63.3686 77.3671C61.4248 81.2988 60.4107 85.6525 60.4097 90.0696V90.8102C60.4089 91.002 60.3462 91.188 60.2317 91.3387C60.1171 91.4894 59.9571 91.5961 59.7773 91.6418C53.8193 93.0635 48.5015 96.5325 44.6898 101.484C40.878 106.435 38.7969 112.577 38.7853 118.91C38.7667 123.642 39.9239 128.299 42.1456 132.433C42.2389 132.604 42.2728 132.803 42.2418 132.997C42.2108 133.19 42.1166 133.367 41.975 133.498C37.8527 137.242 34.9286 142.197 33.5917 147.705C32.2547 153.212 32.5684 159.01 34.4908 164.328C36.4133 169.647 39.8535 174.232 44.3538 177.476C48.8541 180.72 54.2012 182.467 59.6838 182.486H60.7067C60.8859 182.486 61.0601 182.547 61.203 182.659C61.3459 182.771 61.4497 182.928 61.4986 183.107C63.1064 188.948 66.5066 194.088 71.1849 197.749C75.8632 201.411 81.5654 203.396 87.4293 203.403C92.1924 203.435 96.8743 202.125 100.975 199.615C101.152 199.504 101.364 199.465 101.568 199.507C101.771 199.55 101.952 199.669 102.075 199.843C104.587 203.385 107.866 206.269 111.648 208.263C115.429 210.257 119.609 211.306 123.853 211.326C130.652 211.343 137.199 208.667 142.156 203.847C142.29 203.689 142.476 203.588 142.678 203.562Z"
        fill="#BF4B6F" />
    <path
        d="M135.028 197.997C134.929 197.997 134.72 197.997 134.616 197.889C124.315 192.079 126.867 182.782 127.884 180.145C120.735 174.335 117.078 167.887 116.885 161.125C116.583 152.045 122.599 145.175 124.639 143.062C114.135 130.701 125.046 116.016 125.151 115.914C125.217 115.805 125.304 115.712 125.407 115.641C125.511 115.57 125.627 115.523 125.75 115.502C125.872 115.482 125.997 115.489 126.116 115.523C126.236 115.557 126.347 115.616 126.443 115.698C126.538 115.78 126.615 115.882 126.669 115.998C126.723 116.113 126.753 116.239 126.756 116.368C126.759 116.496 126.736 116.624 126.688 116.742C126.64 116.86 126.567 116.966 126.476 117.053C126.069 117.583 115.972 131.208 126.372 142.51C126.477 142.595 126.553 142.713 126.59 142.846C126.626 142.979 126.621 143.12 126.575 143.25C126.579 143.373 126.554 143.495 126.501 143.606C126.448 143.716 126.37 143.811 126.273 143.882C126.168 143.991 118.216 151.288 118.419 161.102C118.623 167.55 122.269 173.571 129.232 179.171C129.38 179.313 129.479 179.5 129.516 179.706C129.553 179.911 129.524 180.123 129.435 180.31C129.232 180.732 124.639 190.347 135.144 196.26C136.75 197.097 135.76 198.14 135.028 197.997Z"
        fill="#ED7E97" />
    <path
        d="M78.8279 112.826C74.1367 124.219 77.805 136.808 86.9893 140.824C96.1736 144.839 107.387 138.921 112.078 127.511C116.77 116.102 113.096 103.53 103.917 99.5141C94.8427 95.4982 83.5135 101.417 78.8279 112.826Z"
        fill="white" />
    <path
        d="M93.0057 143.039C90.7945 143.043 88.6062 142.576 86.5766 141.667C76.9908 137.44 73.1136 124.338 78.0138 112.405C82.9084 100.574 94.7381 94.3362 104.324 98.5628C113.91 102.789 117.787 115.891 112.892 127.825C109.119 137.229 100.958 143.039 93.0057 143.039ZM79.7462 113.248C75.2585 124.128 78.7232 136.175 87.3961 139.975C96.069 143.774 106.876 138.072 111.363 127.192C115.851 116.312 112.381 104.27 103.713 100.465C94.914 96.5577 84.2338 102.26 79.7462 113.248Z"
        fill="#BF4B6F" />
    <path
        d="M102.104 124.42C103.306 116.759 99.096 109.677 92.7012 108.6C86.3064 107.524 80.1481 112.862 78.9462 120.522C77.7443 128.183 81.954 135.266 88.3488 136.342C94.7436 137.418 100.902 132.081 102.104 124.42Z"
        fill="#22213F" />
    <path
        d="M98.6156 115.259C99.3306 117.053 98.2087 119.166 96.2673 120.009C94.227 120.858 92.0876 120.009 91.3726 118.215C90.6577 116.421 91.7796 114.307 93.721 113.459C95.7558 112.616 97.9997 113.459 98.6156 115.259Z"
        fill="white" />
    <path
        d="M120.85 75.527C114.933 77.6404 109.301 77.1106 108.405 74.3878C107.486 71.5396 111.468 67.5238 117.38 65.4104C123.292 63.2971 128.929 63.8269 129.826 66.5497C130.722 69.2725 126.763 73.3169 120.85 75.527Z"
        fill="#ED7E97" />
    <path
        d="M113.915 77.7543C113.471 77.7723 113.026 77.736 112.59 77.6461C109.84 77.4353 107.998 76.2733 107.486 74.5815C106.876 72.8726 107.69 70.7821 109.631 68.8852C111.771 66.8685 114.305 65.353 117.061 64.4421C120.014 63.3883 123.077 62.8585 125.525 63.1775C128.275 63.3883 130.111 64.5503 130.623 66.2364C131.233 67.9453 130.419 70.0415 128.484 71.9327C126.336 73.9463 123.797 75.4595 121.037 76.3701C118.762 77.2675 116.35 77.7362 113.915 77.7543ZM124.21 64.8636C121.98 64.8921 119.771 65.3219 117.682 66.1339C115.182 66.9327 112.883 68.2943 110.951 70.1213C109.521 71.4941 108.91 72.8726 109.218 73.9264C109.521 74.8777 110.868 75.6353 112.788 75.7208C115.429 75.883 118.072 75.4516 120.537 74.4562C123.037 73.6572 125.336 72.2956 127.268 70.4688C128.698 69.096 129.309 67.7232 129.001 66.6636C128.698 65.7181 127.351 64.9548 125.431 64.8693L124.21 64.8636Z"
        fill="#BF4B6F" />
    <path
        d="M149.102 91.3798C143.289 88.845 139.516 84.5158 140.638 81.7645C141.76 79.0132 147.369 78.8081 153.182 81.343C158.995 83.8778 162.768 88.2127 161.646 90.9583C160.524 93.7039 154.915 93.9147 149.102 91.3798Z"
        fill="#ED7E97" />
    <path
        d="M156.752 94.1253C154.016 94.0341 151.319 93.426 148.794 92.331C146.102 91.2104 143.667 89.5184 141.644 87.3638C139.807 85.2505 139.197 83.1429 139.807 81.4511C140.522 79.7422 142.359 78.808 145.115 78.7055C148.006 78.6539 150.868 79.3035 153.474 80.6023C156.164 81.7272 158.598 83.4187 160.623 85.5695C162.455 87.6828 163.071 89.7962 162.455 91.488C161.751 93.1854 159.606 94.1253 156.752 94.1253ZM149.509 90.5366C155.223 93.0715 160.013 92.5418 160.832 90.6392C161.239 89.6879 160.728 88.2126 159.403 86.7315C157.536 84.8139 155.316 83.3048 152.875 82.2941C150.471 81.1669 147.863 80.5842 145.225 80.5853C143.289 80.6935 141.859 81.2232 141.556 82.1745C141.144 83.1258 141.655 84.6011 142.981 86.0822C144.827 88.0296 147.052 89.548 149.509 90.5366Z"
        fill="#BF4B6F" />
    <path
        d="M180.719 64.8637C180.572 64.8827 180.423 64.8518 180.294 64.7759C180.165 64.6999 180.063 64.5828 180.004 64.4421C179.801 64.0206 173.685 55.1458 163.28 59.6857C163.167 59.7402 163.044 59.7697 162.919 59.7725C162.795 59.7754 162.671 59.7514 162.556 59.7021C162.44 59.6529 162.336 59.5795 162.25 59.4864C162.163 59.3934 162.096 59.2828 162.053 59.1617C162.006 59.0436 161.981 58.9169 161.981 58.7889C161.981 58.6609 162.006 58.5342 162.053 58.416C162.101 58.2979 162.17 58.1907 162.258 58.1007C162.346 58.0106 162.45 57.9395 162.565 57.8914C174.295 52.7135 181.329 63.1719 181.434 63.2801C181.507 63.3745 181.56 63.4838 181.589 63.6009C181.619 63.718 181.624 63.8401 181.605 63.9595C181.586 64.0788 181.543 64.1927 181.478 64.2935C181.413 64.3943 181.329 64.4799 181.23 64.5446C181.126 64.8636 180.922 64.8637 180.719 64.8637Z"
        fill="#ED7E97" />
    <path
        d="M171.744 184.326H171.133C171.006 184.321 170.881 184.29 170.767 184.233C170.652 184.176 170.55 184.095 170.467 183.995C170.383 183.895 170.321 183.779 170.283 183.653C170.246 183.527 170.234 183.395 170.248 183.264C170.262 183.133 170.302 183.007 170.365 182.892C170.428 182.778 170.514 182.679 170.616 182.6C170.718 182.522 170.835 182.466 170.959 182.437C171.083 182.408 171.212 182.405 171.337 182.429C171.645 182.429 178.272 183.061 180.416 175.981C180.484 175.743 180.641 175.543 180.851 175.424C181.061 175.306 181.309 175.278 181.538 175.349C181.768 175.419 181.961 175.581 182.076 175.799C182.19 176.017 182.217 176.273 182.149 176.511C179.905 183.711 173.784 184.326 171.744 184.326Z"
        fill="#ED7E97" />
    <path
        d="M108.306 193.748C102.696 193.748 99.7374 188.889 99.6329 188.781C99.5111 188.571 99.4749 188.319 99.5321 188.081C99.5894 187.844 99.7354 187.639 99.9382 187.513C100.141 187.387 100.384 187.35 100.613 187.409C100.843 187.468 101.04 187.619 101.162 187.829C101.365 188.04 104.94 193.85 111.672 191.213C111.89 191.129 112.132 191.139 112.344 191.24C112.556 191.341 112.721 191.525 112.802 191.751C112.883 191.978 112.873 192.229 112.776 192.448C112.678 192.668 112.501 192.838 112.282 192.922C111.025 193.477 109.672 193.758 108.306 193.748Z"
        fill="#ED7E97" />
    <path
        d="M202.954 153.395C202.767 153.409 202.581 153.352 202.431 153.235C202.282 153.117 202.178 152.948 202.14 152.757C202.097 152.648 202.076 152.532 202.079 152.414C202.082 152.297 202.107 152.181 202.155 152.074C202.202 151.968 202.27 151.872 202.355 151.794C202.439 151.715 202.538 151.655 202.646 151.618C202.954 151.516 209.174 148.981 207.953 141.581C207.922 141.348 207.98 141.111 208.115 140.921C208.249 140.731 208.449 140.602 208.674 140.561C208.898 140.521 209.128 140.571 209.317 140.703C209.506 140.835 209.638 141.037 209.685 141.268C211.115 150.137 203.262 153.31 203.157 153.31C203.157 153.395 203.058 153.395 202.954 153.395Z"
        fill="#ED7E97" />
    <path
        d="M80.6648 160.049C71.8654 159.519 70.6665 150.934 70.6665 150.855C70.6531 150.73 70.6637 150.603 70.6975 150.483C70.7313 150.362 70.7877 150.249 70.8635 150.151C70.9394 150.053 71.0331 149.971 71.1395 149.911C71.2458 149.85 71.3626 149.812 71.4832 149.798C71.6038 149.784 71.7258 149.795 71.8424 149.83C71.9589 149.865 72.0677 149.924 72.1624 150.002C72.2571 150.081 72.336 150.178 72.3945 150.288C72.453 150.398 72.49 150.519 72.5034 150.644C72.5034 150.963 73.6033 157.827 80.7528 158.254C80.8711 158.246 80.9898 158.266 81.0996 158.313C81.2094 158.359 81.3075 158.431 81.3865 158.523C81.4655 158.615 81.5233 158.724 81.5554 158.842C81.5876 158.96 81.5933 159.085 81.5722 159.205C81.5696 159.324 81.5437 159.44 81.4959 159.548C81.4482 159.655 81.3797 159.751 81.2947 159.83C81.2096 159.909 81.1099 159.97 81.0015 160.007C80.8932 160.045 80.7786 160.059 80.6648 160.049Z"
        fill="#ED7E97" />
    <path
        d="M219.271 108.81C219.151 108.81 219.032 108.786 218.92 108.738C218.809 108.69 218.708 108.62 218.624 108.531C218.539 108.443 218.472 108.338 218.426 108.223C218.381 108.107 218.357 107.984 218.358 107.859C218.661 95.3957 208.36 93.9147 207.953 93.8121C207.756 93.8027 207.567 93.7243 207.419 93.5899C207.27 93.4554 207.169 93.2727 207.134 93.0716C206.424 88.7424 204.686 85.6664 202.035 83.8778C198.186 81.1322 193.368 82.1689 193.368 82.1689C193.254 82.1899 193.137 82.1874 193.024 82.1615C192.911 82.1356 192.803 82.0869 192.708 82.0181C192.613 81.9493 192.533 81.8619 192.47 81.7607C192.408 81.6595 192.365 81.5466 192.345 81.4284C192.325 81.3102 192.327 81.1891 192.352 81.0719C192.377 80.9547 192.424 80.8437 192.491 80.7453C192.557 80.6469 192.642 80.563 192.739 80.4985C192.837 80.4339 192.946 80.3899 193.06 80.3689C193.264 80.3689 198.56 79.2297 203.157 82.3797C206.116 84.3848 208.052 87.6602 208.871 92.2058C211.418 92.8381 220.498 95.7944 220.19 108.053C220.149 108.272 220.034 108.469 219.866 108.608C219.697 108.747 219.486 108.819 219.271 108.81Z"
        fill="#ED7E97" />
    <path
        d="M55.3665 113.778C55.18 113.792 54.995 113.735 54.8454 113.619C54.6958 113.503 54.5918 113.335 54.5526 113.145C54.4481 112.929 52.9027 107.546 55.57 102.579C57.3078 99.4115 60.2666 97.0875 64.5453 95.8172C64.8533 93.1741 66.9981 83.4563 78.7233 82.7157C78.9537 82.7014 79.1803 82.7825 79.353 82.9411C79.5258 83.0997 79.6306 83.3229 79.6445 83.5616C79.6583 83.8003 79.5801 84.035 79.4269 84.2139C79.2737 84.3928 79.0582 84.5014 78.8278 84.5158C66.7891 85.2506 66.2832 96.028 66.2832 96.478C66.275 96.6826 66.1997 96.8782 66.0698 97.0325C65.9398 97.1868 65.7629 97.2906 65.5682 97.3267C61.4875 98.466 58.7322 100.494 57.2033 103.348C54.9595 107.677 56.2849 112.462 56.2849 112.462C56.3184 112.578 56.3291 112.7 56.3164 112.821C56.3037 112.941 56.2679 113.058 56.211 113.164C56.1542 113.27 56.0774 113.364 55.9853 113.439C55.8931 113.514 55.7875 113.569 55.6745 113.601C55.57 113.778 55.4655 113.778 55.3665 113.778Z"
        fill="#ED7E97" />
    <path
        d="M168.378 196.812C165.624 196.812 162.768 195.544 159.809 193.007C159.667 192.847 159.585 192.639 159.58 192.421C159.574 192.203 159.646 191.99 159.78 191.823C159.914 191.655 160.103 191.544 160.31 191.509C160.518 191.474 160.731 191.519 160.909 191.634C163.868 194.169 166.827 195.331 169.478 194.91C173.327 194.278 175.599 190.683 175.703 190.683C175.812 190.515 175.967 190.384 176.149 190.309C176.33 190.234 176.53 190.217 176.721 190.262C187.329 193.11 191.102 182.657 191.207 182.23C191.247 182.118 191.308 182.015 191.387 181.927C191.466 181.84 191.561 181.769 191.666 181.719C191.771 181.669 191.885 181.642 192 181.637C192.116 181.633 192.231 181.653 192.34 181.694C192.448 181.736 192.547 181.8 192.632 181.882C192.716 181.963 192.785 182.061 192.833 182.17C192.881 182.279 192.907 182.397 192.912 182.517C192.916 182.636 192.897 182.756 192.857 182.868C192.857 182.97 188.572 195.018 176.847 192.267C175.929 193.406 173.58 196.18 169.808 196.824L168.378 196.812Z"
        fill="#ED7E97" />
    <path
        d="M86.4776 193.748C81.583 193.748 75.1539 192.039 72.3986 184.132C72.3586 184.02 72.3402 183.901 72.3446 183.781C72.3491 183.662 72.3762 183.544 72.4245 183.436C72.4727 183.327 72.5412 183.229 72.6259 183.148C72.7107 183.067 72.81 183.003 72.9184 182.962C73.0267 182.92 73.1419 182.901 73.2573 182.906C73.3727 182.91 73.4861 182.939 73.5911 182.988C73.696 183.038 73.7905 183.109 73.8689 183.197C73.9474 183.285 74.0084 183.388 74.0485 183.5C78.2337 195.65 91.9002 191.213 92.4062 191.105C92.5185 191.059 92.6391 191.039 92.7595 191.048C92.8799 191.056 92.997 191.092 93.1022 191.153C93.2075 191.214 93.2984 191.299 93.3682 191.401C93.4381 191.503 93.4852 191.62 93.5061 191.743C93.5396 191.859 93.5503 191.981 93.5376 192.102C93.5249 192.222 93.4891 192.339 93.4322 192.445C93.3754 192.551 93.2986 192.645 93.2065 192.72C93.1143 192.795 93.0087 192.85 92.8957 192.882C92.9012 192.796 90.0469 193.748 86.4776 193.748Z"
        fill="#ED7E97" />
    <path
        d="M58.3253 131.1C58.1431 131.095 57.9669 131.031 57.8211 130.918C57.6753 130.805 57.567 130.647 57.5113 130.468C57.5113 130.257 53.0236 113.88 66.5856 109.34C66.6975 109.294 66.8178 109.275 66.9379 109.283C67.0579 109.291 67.1747 109.327 67.2799 109.387C67.3851 109.448 67.476 109.531 67.5462 109.633C67.6163 109.734 67.6639 109.85 67.6856 109.972C67.7198 110.089 67.7311 110.211 67.7188 110.332C67.7065 110.453 67.6707 110.57 67.6138 110.676C67.5568 110.783 67.4798 110.876 67.3872 110.951C67.2947 111.026 67.1885 111.08 67.0751 111.112C55.2455 115.019 59.0182 129.283 59.2217 129.909C59.256 130.026 59.2672 130.148 59.2549 130.269C59.2426 130.39 59.2069 130.507 59.1499 130.613C59.0929 130.72 59.0159 130.813 58.9233 130.888C58.8308 130.963 58.7246 131.017 58.6112 131.049L58.3253 131.1Z"
        fill="#ED7E97" />
    <path
        d="M125.86 100.784C125.673 100.798 125.487 100.741 125.338 100.624C125.188 100.506 125.085 100.337 125.046 100.146C119.64 83.1429 131.267 75.0827 134.022 73.5276C133.51 66.5554 134.836 61.3774 137.795 58.2103C138.807 57.1044 140.026 56.2246 141.379 55.6251C142.731 55.0256 144.188 54.719 145.659 54.7242C145.903 54.7242 146.136 54.8244 146.308 55.0028C146.481 55.1812 146.577 55.4232 146.577 55.6755C146.577 55.9278 146.481 56.1697 146.308 56.3481C146.136 56.5265 145.903 56.6268 145.659 56.6268C144.431 56.6379 143.218 56.9048 142.092 57.4118C140.965 57.9187 139.949 58.6552 139.103 59.5774C136.453 62.5338 135.331 67.3927 135.842 74.1542C135.843 74.345 135.797 74.5329 135.707 74.6996C135.618 74.8663 135.488 75.0062 135.331 75.1055C134.72 75.4245 121.153 82.2885 126.762 99.8274C126.96 100.357 126.361 100.784 125.86 100.784Z"
        fill="#ED7E97" />
    <path
        d="M172.458 126.794C172.941 126.394 173.526 126.15 174.141 126.092C174.756 126.034 175.374 126.166 175.918 126.469C176.462 126.773 176.907 127.236 177.198 127.8C177.49 128.364 177.614 129.005 177.557 129.642V129.744C175.907 143.985 166.645 156.471 149.206 160.168C133.703 163.444 119.42 154.574 116.159 146.862C115.136 144.538 115.136 142.305 116.462 140.522C120.746 134.712 132.784 142.846 149.613 138.813C159.71 136.386 167.657 130.889 172.458 126.794Z"
        fill="#22213F" />
    <path
        d="M177.557 129.414V129.642C152.979 158.271 116.566 146.862 116.159 146.73C115.136 144.406 115.136 142.173 116.462 140.391C120.746 134.58 132.784 142.715 149.613 138.682C159.71 136.249 167.762 130.65 172.557 126.531C173.038 126.14 173.62 125.905 174.229 125.855C174.838 125.805 175.448 125.943 175.983 126.25C176.517 126.558 176.951 127.023 177.231 127.586C177.511 128.149 177.624 128.785 177.557 129.414Z"
        fill="white" />
    <path
        d="M142.574 161.74C130.947 161.74 120.339 155.719 116.258 148.958C114.218 145.574 114.014 142.299 115.752 139.872C118.199 136.489 122.687 137.127 128.5 137.97C134.11 138.813 141.248 139.764 149.399 137.861C159.089 135.537 166.838 130.257 171.633 126.241C172.285 125.695 173.079 125.364 173.914 125.288C174.749 125.212 175.587 125.397 176.32 125.817C177.054 126.237 177.649 126.874 178.031 127.647C178.413 128.419 178.564 129.293 178.464 130.154C176.528 146.104 165.716 157.622 149.498 161C147.214 161.449 144.898 161.697 142.574 161.74ZM121.972 139.132C119.827 139.132 118.199 139.553 117.281 140.926C115.543 143.25 116.868 146.315 117.891 147.898C121.741 154.238 134.39 162.264 149.206 159.097C164.605 155.822 174.906 144.942 176.743 129.835C176.816 129.348 176.736 128.848 176.515 128.411C176.295 127.973 175.944 127.62 175.516 127.403C175.106 127.156 174.633 127.044 174.159 127.081C173.686 127.119 173.235 127.305 172.865 127.614C167.971 131.738 159.914 137.229 149.916 139.576C141.353 141.581 134.11 140.527 128.297 139.684C125.86 139.451 123.704 139.132 121.972 139.132Z"
        fill="#BF4B6F" />
    <path
        d="M206.705 188.781C229.858 178.009 235.572 159.838 234.346 141.667C234.281 140.715 234.014 139.79 233.564 138.958C233.114 138.125 232.493 137.406 231.744 136.851C230.995 136.296 230.137 135.919 229.231 135.747C228.325 135.575 227.394 135.613 226.503 135.856H226.3C224.86 136.219 223.59 137.096 222.713 138.333C221.836 139.569 221.408 141.087 221.504 142.618C224.056 179.593 186.219 183.289 157.351 178.112C155.686 177.86 153.993 178.297 152.637 179.328C151.28 180.359 150.37 181.901 150.102 183.622C149.834 185.342 150.23 187.102 151.205 188.523C152.179 189.943 153.654 190.909 155.311 191.213C165.216 192.694 189.287 195.753 206.705 188.781Z"
        fill="#ED7E97" />
    <path
        d="M219.782 158.043C216.824 166.388 210.807 172.62 201.832 176.425C190.717 181.176 170.726 179.911 160.728 178.533C161.338 178.641 178.783 183.289 192.043 182.019C205.506 180.754 219.579 171.988 219.782 158.043Z"
        fill="#F490AA" />
    <path
        d="M206.705 188.781C229.759 178.111 235.468 160.048 234.346 141.986C234.276 141.014 233.998 140.071 233.532 139.225C233.066 138.379 232.424 137.651 231.652 137.094C230.881 136.538 229.999 136.167 229.071 136.008C228.143 135.849 227.193 135.906 226.289 136.175C226.19 136.175 226.19 136.175 226.085 136.278C221.086 137.651 221.598 142.829 221.598 142.829C237.305 166.702 212.111 194.095 157.747 191.743C165.623 192.694 191.02 195.542 206.705 188.781Z"
        fill="#E26988" />
    <path
        d="M156.548 182.549C155.945 183.222 155.215 183.761 154.403 184.132C153.972 184.368 153.53 184.581 153.078 184.77C151.162 185.562 149.124 185.991 147.062 186.035C144.424 186.119 141.787 185.871 139.208 185.294C138.379 185.108 137.652 184.597 137.177 183.87C136.702 183.142 136.515 182.253 136.656 181.387C136.785 180.682 137.136 180.041 137.653 179.564C138.17 179.087 138.825 178.801 139.516 178.749H140.533C146.451 180.014 149.712 179.063 151.038 178.322C151.284 178.197 151.523 178.056 151.753 177.901L151.654 178.009L156.548 182.549Z"
        fill="#ED7E97" />
    <path
        d="M158.308 180.755C158.363 181.457 158.192 182.158 157.824 182.75C157.455 183.342 156.908 183.792 156.268 184.03C155.943 184.16 155.599 184.231 155.25 184.241C154.973 184.265 154.694 184.228 154.431 184.132C153.736 183.993 153.107 183.616 152.645 183.061C152.183 182.506 151.915 181.806 151.885 181.074C151.816 180.153 151.573 179.255 151.17 178.431C150.877 177.871 150.534 177.341 150.147 176.847C149.548 176.094 148.862 175.419 148.106 174.836C147.395 174.341 146.901 173.576 146.73 172.706C146.559 171.836 146.726 170.932 147.194 170.188C147.688 169.473 148.426 168.978 149.258 168.803C150.09 168.627 150.956 168.784 151.681 169.242C151.753 169.453 157.874 173.674 158.308 180.755Z"
        fill="#ED7E97" />
    <path
        d="M155.729 191.321C153.182 192.375 150.939 192.46 149.129 191.634C148.379 191.286 147.709 190.776 147.164 190.138C146.619 189.501 146.211 188.751 145.967 187.937C145.781 187.141 145.883 186.302 146.254 185.579C146.625 184.855 147.239 184.298 147.98 184.011C148.721 183.725 149.538 183.73 150.275 184.025C151.013 184.32 151.621 184.885 151.983 185.613C152.396 185.613 153.083 185.403 154.431 184.662C154.807 184.456 155.218 184.328 155.642 184.286C156.065 184.244 156.493 184.289 156.9 184.419C157.306 184.548 157.684 184.759 158.012 185.04C158.34 185.321 158.612 185.665 158.811 186.055C159.011 186.444 159.134 186.87 159.174 187.309C159.215 187.748 159.171 188.19 159.046 188.612C158.921 189.033 158.718 189.425 158.446 189.765C158.175 190.104 157.842 190.385 157.467 190.592C156.752 190.894 156.24 191.105 155.729 191.321Z"
        fill="#ED7E97" />
    <path
        d="M151.752 193.218C150.734 193.233 149.724 193.017 148.794 192.586C147.902 192.205 147.107 191.616 146.471 190.865C145.835 190.115 145.374 189.222 145.125 188.257C144.922 187.496 144.922 186.693 145.125 185.933C145.159 185.815 145.214 185.705 145.288 185.609C145.362 185.513 145.454 185.434 145.558 185.375C145.662 185.316 145.776 185.279 145.894 185.265C146.012 185.252 146.131 185.263 146.245 185.297C146.358 185.332 146.464 185.389 146.557 185.466C146.649 185.543 146.726 185.638 146.783 185.745C146.84 185.853 146.876 185.971 146.889 186.093C146.902 186.215 146.891 186.339 146.858 186.457C146.753 186.873 146.753 187.31 146.858 187.727C147.063 188.416 147.405 189.054 147.861 189.6C148.318 190.145 148.879 190.586 149.509 190.894C151.159 191.634 152.808 191.464 155.135 190.529C155.135 190.529 156.444 190.581 156.548 191.099C156.601 191.207 156.63 191.326 156.632 191.447C156.634 191.568 156.61 191.688 156.56 191.798C156.511 191.908 156.438 192.004 156.348 192.081C156.257 192.157 156.151 192.211 156.037 192.238C154.682 192.846 153.228 193.179 151.752 193.218Z"
        fill="#BF4B6F" />
    <path
        d="M147.265 186.035H147.062C144.424 186.119 141.787 185.87 139.208 185.294C138.379 185.108 137.652 184.597 137.177 183.87C136.702 183.142 136.515 182.253 136.656 181.387C136.785 180.682 137.136 180.041 137.653 179.564C138.17 179.087 138.825 178.801 139.516 178.749C139.313 179.273 136.86 184.241 147.265 186.035Z"
        fill="#F490AA" />
    <path
        d="M151.549 169.237C150.834 169.453 147.875 170.615 150.119 176.847C149.521 176.095 148.838 175.42 148.084 174.836C147.372 174.342 146.877 173.577 146.705 172.707C146.533 171.837 146.698 170.932 147.166 170.188C147.635 169.472 148.354 168.972 149.172 168.795C149.99 168.617 150.842 168.776 151.549 169.237Z"
        fill="#F490AA" />
    <path
        d="M145.835 187.095C143.539 187.094 141.25 186.846 139.004 186.354C138.468 186.258 137.956 186.05 137.5 185.741C137.044 185.433 136.654 185.03 136.354 184.56C135.752 183.628 135.531 182.487 135.738 181.387C135.83 180.83 136.032 180.299 136.331 179.827C136.63 179.355 137.02 178.951 137.476 178.641C138.375 178.024 139.473 177.797 140.533 178.009C146.247 179.148 149.201 178.322 150.532 177.69C150.75 177.596 150.994 177.586 151.218 177.664C151.443 177.741 151.633 177.9 151.753 178.112C151.956 178.533 151.956 179.171 151.549 179.382C150.02 180.122 146.451 181.176 140.225 179.803C139.63 179.693 139.015 179.806 138.493 180.122C138.23 180.277 138.003 180.489 137.827 180.744C137.651 180.998 137.531 181.29 137.476 181.598C137.367 182.216 137.474 182.854 137.778 183.398C137.931 183.668 138.137 183.902 138.384 184.083C138.63 184.265 138.911 184.391 139.208 184.451C141.988 185.063 144.836 185.275 147.672 185.084C147.793 185.069 147.916 185.079 148.033 185.114C148.15 185.148 148.26 185.207 148.355 185.286C148.45 185.365 148.53 185.463 148.588 185.574C148.646 185.685 148.682 185.807 148.695 185.933C148.704 186.181 148.626 186.424 148.475 186.618C148.325 186.812 148.112 186.943 147.875 186.986C147.369 186.986 146.654 187.095 145.835 187.095Z"
        fill="#BF4B6F" />
    <path
        d="M151.159 179.382C150.991 179.368 150.829 179.313 150.686 179.221C150.544 179.129 150.424 179.002 150.339 178.852C149.633 177.556 148.658 176.437 147.485 175.577C146.598 174.931 145.987 173.953 145.782 172.85C145.577 171.747 145.793 170.605 146.385 169.664C147.002 168.735 147.948 168.095 149.017 167.882C150.086 167.669 151.193 167.9 152.099 168.525C154.98 170.948 157.074 174.229 158.099 177.924C158.198 178.453 158.649 178.875 158.099 178.983C157.549 179.091 156.669 178.898 156.57 178.368C155.587 175.101 153.669 172.221 151.071 170.108C150.822 169.927 150.538 169.804 150.239 169.749C149.939 169.694 149.632 169.708 149.338 169.789C149.041 169.85 148.759 169.976 148.513 170.159C148.266 170.342 148.06 170.577 147.908 170.849C147.572 171.368 147.448 172.004 147.563 172.618C147.679 173.232 148.024 173.774 148.524 174.124C149.916 175.21 151.092 176.564 151.989 178.112C152.046 178.222 152.081 178.343 152.091 178.468C152.101 178.593 152.087 178.718 152.049 178.837C152.011 178.956 151.95 179.066 151.869 179.159C151.789 179.253 151.691 179.329 151.582 179.382H151.159Z"
        fill="#BF4B6F" />
    <path
        d="M176.539 194.38C169.419 194.368 162.315 193.661 155.322 192.267C155.206 192.248 155.096 192.205 154.996 192.142C154.897 192.078 154.81 191.994 154.742 191.895C154.675 191.797 154.626 191.685 154.601 191.567C154.575 191.449 154.572 191.326 154.593 191.207C154.613 191.088 154.656 190.974 154.72 190.872C154.783 190.77 154.866 190.683 154.962 190.614C155.059 190.546 155.168 190.498 155.282 190.474C155.397 190.449 155.515 190.449 155.63 190.472C175.11 194.591 203.872 193.856 220.701 178.51C230.287 169.744 234.571 157.491 233.554 141.855C233.509 141.036 233.283 140.239 232.894 139.525C232.505 138.811 231.963 138.199 231.31 137.736C230.644 137.27 229.895 136.945 229.106 136.782C228.318 136.618 227.506 136.619 226.718 136.785C225.452 137.087 224.333 137.85 223.566 138.936C222.798 140.021 222.434 141.357 222.538 142.698C223.456 154.216 220.294 163.301 213.255 169.852C200.105 182.127 175.72 182.657 157.263 179.063C157.041 179.013 156.845 178.877 156.718 178.681C156.591 178.486 156.542 178.247 156.581 178.015C156.62 177.783 156.744 177.575 156.928 177.436C157.112 177.297 157.34 177.237 157.566 177.268C175.621 180.755 199.363 180.333 212.012 168.502C218.611 162.373 221.499 153.692 220.679 142.829C220.571 141.39 220.861 139.95 221.516 138.676C222.17 137.403 223.162 136.349 224.375 135.639C225.588 134.929 226.971 134.592 228.362 134.668C229.753 134.744 231.094 135.229 232.228 136.067C233.092 136.691 233.807 137.51 234.32 138.462C234.833 139.415 235.129 140.475 235.187 141.564C236.287 157.725 231.821 170.615 221.823 179.729C210.092 190.592 192.758 194.38 176.539 194.38Z"
        fill="#BF4B6F" />
    <path
        d="M30.3763 76.6948L30.9813 80.648C31.1232 81.6101 31.564 82.4981 32.2368 83.1775C32.9096 83.8569 33.7778 84.2907 34.71 84.4133L38.3507 84.9544L34.622 85.6722C33.7687 85.8534 32.9856 86.29 32.3697 86.928C31.7538 87.5659 31.3322 88.377 31.1572 89.2608L30.4643 93.1229L29.7714 89.352C29.6147 88.4748 29.2102 87.6654 28.609 87.0266C28.0079 86.3877 27.2372 85.948 26.3946 85.7633L22.5779 84.9544L26.1306 84.5044C27.0589 84.3693 27.9213 83.9306 28.592 83.2523C29.2628 82.574 29.7068 81.6915 29.8593 80.7335L30.3763 76.6948Z"
        fill="#F9C710" />
    <path
        d="M30.3764 93.8406C30.1994 93.8283 30.0307 93.7582 29.8944 93.6406C29.758 93.5229 29.6611 93.3637 29.6175 93.1856L28.9245 89.4203C28.809 88.6966 28.4844 88.0261 27.9935 87.4973C27.5026 86.9685 26.8684 86.6062 26.1747 86.4582L22.3635 85.6494C22.1928 85.5986 22.0421 85.4928 21.9333 85.3474C21.8246 85.202 21.7633 85.0244 21.7585 84.8405C21.7663 84.6436 21.8395 84.4555 21.9658 84.3081C22.092 84.1606 22.2636 84.063 22.4515 84.0316L26.0042 83.5816C26.7617 83.487 27.4682 83.1376 28.0156 82.5872C28.5629 82.0367 28.9209 81.3155 29.0345 80.5341L29.6394 76.4954C29.6846 76.3082 29.7833 76.1395 29.9227 76.0114C30.0621 75.8833 30.2356 75.8018 30.4204 75.7777C30.6105 75.7857 30.7921 75.8615 30.9345 75.9923C31.0768 76.1231 31.1711 76.3009 31.2013 76.4954L31.8063 80.443C31.9319 81.2292 32.2924 81.9549 32.8369 82.5179C33.3815 83.0809 34.0828 83.4529 34.8421 83.5816L38.4828 84.1513C38.6653 84.1787 38.833 84.2708 38.9573 84.4119C39.0816 84.553 39.1549 84.7343 39.1646 84.9251C39.1743 85.1158 39.1199 85.3042 39.0107 85.458C38.9014 85.6119 38.744 85.7218 38.5653 85.769L34.8421 86.4867C34.1276 86.6121 33.4685 86.9646 32.9561 87.4953C32.4436 88.0261 32.1033 88.7088 31.9823 89.4488L31.2673 93.2995C31.18 93.4598 31.054 93.5938 30.9017 93.6887C30.7494 93.7835 30.576 93.8359 30.3984 93.8406H30.3764ZM26.9996 84.9544C27.8085 85.2101 28.542 85.673 29.1323 86.3003C29.7225 86.9276 30.1505 87.699 30.3764 88.5431C30.5979 87.6989 31.0139 86.9231 31.5887 86.2822C32.1634 85.6412 32.8797 85.1544 33.6762 84.8633C32.8857 84.5985 32.1671 84.1435 31.5792 83.5356C30.9913 82.9276 30.5508 82.1841 30.2939 81.3658C30.0989 82.2116 29.6915 82.989 29.113 83.6192C28.5345 84.2495 27.8054 84.7101 26.9996 84.9544Z"
        fill="#A55A0F" />
    <path
        d="M13.2781 100.129L13.7126 102.915C13.8151 103.59 14.1216 104.214 14.588 104.697C15.0544 105.18 15.6568 105.497 16.3084 105.603L18.8217 105.962L16.1379 106.532C15.5365 106.649 14.9834 106.952 14.5507 107.4C14.118 107.848 13.8259 108.421 13.7126 109.044L13.2781 111.738L12.8436 109.044C12.7149 108.428 12.4177 107.864 11.9876 107.419C11.5575 106.973 11.0128 106.665 10.4183 106.532L7.729 105.962L10.2423 105.603C10.888 105.518 11.4899 105.219 11.9586 104.751C12.4272 104.283 12.7376 103.671 12.8436 103.006L13.2781 100.129Z"
        fill="#F9C710" />
    <path
        d="M13.2782 112.428C13.1006 112.423 12.9292 112.359 12.7888 112.247C12.6484 112.134 12.5462 111.978 12.4972 111.801L12.0628 109.107C11.989 108.634 11.7734 108.198 11.4466 107.859C11.1199 107.521 10.6986 107.298 10.2424 107.221L7.55859 106.686C7.38787 106.635 7.23717 106.529 7.1284 106.384C7.01962 106.238 6.9584 106.061 6.95361 105.877C6.96134 105.68 7.03457 105.492 7.16086 105.344C7.28714 105.197 7.45872 105.099 7.64657 105.068L10.1599 104.709C10.6535 104.647 11.1143 104.421 11.4733 104.064C11.8322 103.708 12.0699 103.241 12.1507 102.733L12.5852 99.9527C12.6304 99.7655 12.7291 99.5967 12.8684 99.4687C13.0078 99.3406 13.1813 99.2591 13.3662 99.235C13.556 99.2421 13.7374 99.3178 13.879 99.4489C14.0206 99.5799 14.1135 99.7582 14.1416 99.9527L14.5761 102.733C14.6524 103.228 14.878 103.686 15.2207 104.041C15.5635 104.396 16.0058 104.63 16.4844 104.709L18.9978 105.068C19.1847 105.101 19.3552 105.2 19.4812 105.347C19.6071 105.494 19.681 105.681 19.6907 105.877C19.6983 106.065 19.641 106.249 19.5292 106.398C19.4173 106.546 19.2582 106.648 19.0803 106.686L16.3965 107.221C15.9403 107.298 15.5189 107.521 15.1922 107.859C14.8654 108.198 14.6499 108.634 14.5761 109.107L14.1416 111.801C14.0652 111.976 13.9447 112.127 13.7928 112.237C13.6409 112.347 13.4631 112.413 13.2782 112.428ZM11.5458 105.968C12.3248 106.356 12.9406 107.024 13.2782 107.848C13.6396 107.04 14.2487 106.379 15.0105 105.968C14.2359 105.614 13.6177 104.971 13.2782 104.168C12.8857 104.933 12.2827 105.559 11.5458 105.968Z"
        fill="#A55A0F" />
    <path
        d="M23.018 126.304L23.4524 129.084C23.5555 129.759 23.862 130.383 24.3283 130.867C24.7945 131.351 25.3965 131.67 26.0483 131.778L28.5616 132.137L25.8778 132.672C25.2767 132.79 24.724 133.093 24.2914 133.541C23.8588 133.989 23.5665 134.562 23.4524 135.184L23.018 137.879L22.5835 135.184C22.4548 134.569 22.1576 134.004 21.7275 133.559C21.2974 133.113 20.7526 132.806 20.1582 132.672L17.4744 132.137L19.9822 131.778C20.628 131.69 21.2296 131.39 21.698 130.921C22.1664 130.453 22.4769 129.84 22.5835 129.175L23.018 126.304Z"
        fill="#F9C710" />
    <path
        d="M23.0179 138.596C22.8403 138.591 22.6689 138.528 22.5285 138.415C22.3881 138.303 22.286 138.147 22.237 137.97L21.8025 135.275C21.7287 134.803 21.5131 134.366 21.1864 134.028C20.8596 133.69 20.4383 133.466 19.9821 133.39L17.2983 132.854C17.1276 132.804 16.9769 132.698 16.8681 132.552C16.7594 132.407 16.6981 132.229 16.6934 132.046C16.7011 131.849 16.7743 131.661 16.9006 131.513C17.0269 131.366 17.1985 131.268 17.3863 131.237L19.8996 130.878C20.3931 130.818 20.8543 130.593 21.2134 130.237C21.5726 129.882 21.8103 129.415 21.8905 128.907L22.3249 126.121C22.3701 125.934 22.4688 125.765 22.6081 125.637C22.7475 125.509 22.921 125.428 23.1059 125.404C23.2957 125.411 23.4771 125.486 23.6187 125.618C23.7603 125.749 23.8532 125.927 23.8813 126.121L24.3158 128.907C24.3939 129.401 24.6203 129.858 24.9628 130.211C25.3053 130.565 25.7466 130.798 26.2242 130.878L28.7375 131.237C28.9245 131.27 29.0949 131.368 29.2209 131.515C29.3468 131.662 29.4207 131.849 29.4304 132.046C29.438 132.233 29.3808 132.418 29.2689 132.566C29.1571 132.715 28.9979 132.817 28.82 132.854L26.1362 133.39C25.68 133.466 25.2586 133.69 24.9319 134.028C24.6051 134.366 24.3896 134.803 24.3158 135.275L23.8813 137.97C23.8049 138.145 23.6844 138.295 23.5325 138.406C23.3806 138.516 23.2029 138.582 23.0179 138.596ZM21.2855 132.137C22.0661 132.525 22.6824 133.195 23.0179 134.022C23.379 133.213 23.988 132.55 24.7503 132.137C23.9772 131.783 23.3595 131.143 23.0179 130.342C22.6238 131.108 22.0163 131.733 21.2745 132.137H21.2855Z"
        fill="#A55A0F" />
    <path
        d="M154.937 124.948C154.817 124.948 154.7 124.916 154.596 124.855C154.492 124.794 154.405 124.706 154.344 124.6C154.283 124.493 154.25 124.372 154.247 124.249C154.245 124.125 154.274 124.003 154.332 123.894C157.681 117.548 166.354 112.006 166.722 111.772C166.799 111.717 166.886 111.678 166.978 111.659C167.07 111.639 167.165 111.64 167.257 111.66C167.349 111.68 167.435 111.719 167.512 111.775C167.589 111.831 167.653 111.903 167.702 111.986C167.751 112.069 167.783 112.161 167.796 112.257C167.809 112.353 167.803 112.451 167.778 112.545C167.754 112.639 167.71 112.726 167.652 112.802C167.593 112.878 167.52 112.94 167.437 112.986C167.366 113.031 160.898 117.167 157.098 122.168C162.048 119.599 173.536 114.934 186.444 118.967C186.531 118.994 186.611 119.038 186.681 119.097C186.751 119.157 186.81 119.23 186.853 119.312C186.895 119.395 186.922 119.485 186.931 119.578C186.941 119.672 186.932 119.766 186.906 119.856C186.88 119.945 186.837 120.029 186.78 120.101C186.723 120.174 186.652 120.234 186.573 120.279C186.493 120.323 186.406 120.351 186.316 120.36C186.226 120.37 186.135 120.361 186.048 120.334C169.582 115.207 155.454 124.732 155.316 124.828C155.204 124.906 155.072 124.948 154.937 124.948Z"
        fill="#22213F" />
    <path
        d="M154.937 125.159C154.713 125.159 154.498 125.074 154.332 124.919C154.181 124.779 154.081 124.59 154.048 124.383C154.015 124.176 154.051 123.963 154.15 123.78C157.527 117.383 166.249 111.818 166.612 111.579C166.712 111.503 166.826 111.45 166.947 111.423C167.068 111.395 167.193 111.394 167.314 111.419C167.435 111.444 167.55 111.495 167.652 111.568C167.753 111.641 167.839 111.735 167.904 111.844C167.968 111.953 168.01 112.075 168.027 112.202C168.044 112.329 168.036 112.458 168.002 112.581C167.969 112.704 167.911 112.819 167.833 112.918C167.755 113.017 167.657 113.098 167.547 113.157C167.487 113.196 161.668 116.922 157.857 121.536C162.867 119.081 174.092 114.877 186.504 118.75C186.727 118.823 186.914 118.982 187.026 119.195C187.138 119.407 187.166 119.656 187.104 119.89C187.033 120.12 186.879 120.313 186.674 120.428C186.469 120.544 186.229 120.573 186.004 120.51C169.566 115.384 155.586 124.88 155.448 124.976C155.3 125.091 155.121 125.155 154.937 125.159ZM167.107 111.881C167.018 111.88 166.93 111.906 166.854 111.955C166.491 112.183 157.863 117.697 154.541 123.997C154.489 124.094 154.47 124.207 154.488 124.317C154.506 124.426 154.56 124.526 154.64 124.6C154.719 124.674 154.82 124.719 154.926 124.728C155.032 124.738 155.138 124.711 155.228 124.652C155.371 124.555 169.527 114.934 186.136 120.129C186.258 120.164 186.39 120.149 186.501 120.087C186.613 120.024 186.697 119.918 186.735 119.793C186.754 119.731 186.76 119.665 186.754 119.601C186.747 119.536 186.728 119.473 186.697 119.417C186.668 119.358 186.627 119.306 186.578 119.264C186.529 119.222 186.472 119.191 186.411 119.172C173.382 115.099 161.663 120.043 157.219 122.356L156.389 122.789L156.939 122.037C160.75 117.024 167.272 112.843 167.338 112.803C167.446 112.734 167.523 112.623 167.553 112.495C167.583 112.368 167.563 112.233 167.498 112.12C167.456 112.05 167.399 111.992 167.331 111.951C167.263 111.909 167.186 111.885 167.107 111.881Z"
        fill="#22213F" />
</svg>
    