<svg width="296" height="263" viewBox="0 0 296 263" fill="none" xmlns="http://www.w3.org/2000/svg">
    <g clip-path="url(#clip0_46_2061)">
        <path
            d="M147.865 201.351C216.89 201.351 272.847 156.277 272.847 100.675C272.847 45.0739 216.89 0 147.865 0C78.8393 0 22.8831 45.0739 22.8831 100.675C22.8831 156.277 78.8393 201.351 147.865 201.351Z"
            fill="#E6ECFF" />
        <path
            d="M143.939 263.006C184.618 263.006 217.595 260.458 217.595 257.314C217.595 254.17 184.618 251.621 143.939 251.621C103.26 251.621 70.2837 254.17 70.2837 257.314C70.2837 260.458 103.26 263.006 143.939 263.006Z"
            fill="#C7D1EA" />
        <path
            d="M173.039 192.558C170.754 202.282 167.37 213.146 164.796 223C162.08 232.62 159.255 242.344 156.321 251.964C154.905 257.136 146.327 255.586 146.867 250.31C149.442 231.069 151.868 210.07 153.946 190.732C155.001 178.881 174.558 180.769 173.039 192.558Z"
            fill="#ED7E97" />
        <path
            d="M112.852 250.696C112.961 255.763 104.814 256.903 103.405 251.922C100.47 242.301 97.6133 232.681 94.9299 222.957C92.3559 213.649 89.3893 203.201 86.8925 193.894C83.7393 181.375 104.267 177.858 105.792 190.683C107.858 210.352 110.245 231.247 112.852 250.696Z"
            fill="#ED7E97" />
        <path
            d="M107.42 205.591L108.399 214.17C97.105 217.785 92.4331 213.753 92.4331 213.753L90.908 208.477C89.621 203.618 88.1924 198.857 86.8925 193.998C86.4396 191.704 86.9204 189.331 88.2372 187.362C89.5541 185.393 91.6084 183.975 93.9832 183.396C96.3581 182.817 98.8754 183.119 101.024 184.243C103.173 185.366 104.793 187.226 105.554 189.445C105.689 189.881 105.762 190.332 105.773 190.787V190.891L107.42 205.591Z"
            fill="#E26988" />
        <path
            d="M173.039 192.558C173.02 193.014 172.946 193.466 172.82 193.906C171.533 198.765 170.214 203.63 168.798 208.385C168.798 208.385 161.629 215.628 151.308 212.73L152.395 205.493L154.023 190.701C154.279 188.3 155.526 186.094 157.491 184.569C159.455 183.043 161.975 182.323 164.496 182.567C167.018 182.811 169.335 183.998 170.937 185.868C172.539 187.739 173.295 190.138 173.039 192.539V192.558Z"
            fill="#E26988" />
        <path
            d="M176.379 253.796C174.101 258.968 147.916 261.248 146.938 251.345V250.31C146.938 249.997 147.048 249.697 147.048 249.378C147.04 249.323 147.045 249.266 147.064 249.213C147.083 249.16 147.115 249.112 147.157 249.072L152.698 247.516L158.019 245.965H158.129C159.866 246.07 175.401 247.001 176.488 252.896C176.502 253.2 176.465 253.504 176.379 253.796Z"
            fill="#ED7E97" />
        <path
            d="M176.378 253.796C176.378 253.796 169.641 249.66 157.369 248.416C157.041 248.416 156.726 248.312 156.391 248.312C155.94 248.267 155.506 248.122 155.124 247.889C154.742 247.656 154.423 247.342 154.191 246.97C153.959 246.599 153.821 246.181 153.789 245.751C153.756 245.32 153.83 244.888 154.004 244.489L165.735 219.366L164.795 222.999C162.62 230.659 160.452 238.318 158.167 245.965C159.905 246.07 175.439 247.001 176.526 252.896C176.528 253.202 176.478 253.506 176.378 253.796Z"
            fill="#F490AA" />
        <path
            d="M148.18 249.084L146.964 250.071L145.986 249.967C147.402 239.55 148.701 229.176 149.68 220.383L151.417 205.591L153.052 190.799C153.346 188.143 154.707 185.698 156.848 183.973C157.922 183.146 159.157 182.529 160.482 182.156C161.807 181.784 163.197 181.664 164.57 181.804C167.36 182.085 169.928 183.38 171.739 185.419C173.492 187.486 174.314 190.13 174.023 192.772C174.02 193.271 173.909 193.763 173.695 194.218C172.408 199.084 171.089 203.943 169.68 208.808L165.658 223.287C163.92 229.599 161.526 237.871 159.03 246.253C159.001 246.376 158.946 246.492 158.868 246.594C158.79 246.696 158.691 246.781 158.577 246.845C158.463 246.908 158.336 246.949 158.205 246.965C158.074 246.98 157.941 246.969 157.814 246.934C157.687 246.898 157.569 246.838 157.468 246.757C157.367 246.676 157.284 246.576 157.225 246.463C157.165 246.351 157.131 246.228 157.124 246.102C157.117 245.976 157.137 245.851 157.183 245.733C159.68 237.356 162.073 229.078 163.811 222.773L167.826 208.293C169.113 203.434 170.542 198.673 171.842 193.814C171.966 193.415 172.04 193.004 172.061 192.588C172.291 190.436 171.629 188.283 170.214 186.59C169.513 185.724 168.628 185.009 167.617 184.493C166.605 183.976 165.49 183.67 164.345 183.593C162.084 183.371 159.822 184.002 158.045 185.352C157.136 186.017 156.385 186.859 155.843 187.821C155.3 188.784 154.978 189.845 154.898 190.934L153.264 205.83L151.526 220.726C150.548 229.28 149.589 238.539 148.18 249.084Z"
            fill="#BF4B6F" />
        <path
            d="M112.852 250.696C112.834 251.218 112.763 251.737 112.639 252.246C110.136 261.866 82.2208 258.558 83.1989 252.859C84.2865 247.068 99.8207 246.033 101.558 245.929H101.668L105.574 247.068L112.53 249.029C112.525 249.175 112.563 249.319 112.639 249.446C112.723 249.714 112.76 249.994 112.749 250.273V250.377C112.788 250.419 112.818 250.469 112.835 250.523C112.853 250.577 112.859 250.634 112.852 250.69V250.696Z"
            fill="#ED7E97" />
        <path
            d="M105.683 247.075C105.787 247.307 105.828 247.56 105.801 247.811C105.773 248.062 105.679 248.303 105.527 248.51C105.375 248.716 105.17 248.883 104.932 248.993C104.693 249.103 104.429 249.154 104.164 249.139H102.536C90.3674 249.348 83.231 252.761 83.231 252.761C84.3185 246.97 99.8527 245.935 101.59 245.831C99.3058 238.177 97.1371 230.512 94.9621 222.865L93.984 219.249L105.715 247.075H105.683Z"
            fill="#F490AA" />
        <path
            d="M112.749 250.898C112.311 250.898 111.816 249.795 111.706 249.385C110.297 238.833 109.055 229.28 108.077 220.487L106.339 205.695L104.705 190.799C104.684 190.414 104.613 190.033 104.492 189.666C103.916 187.553 102.483 185.745 100.507 184.639C98.5304 183.533 96.1737 183.219 93.9551 183.768C91.7364 184.316 89.8374 185.682 88.6758 187.563C87.5143 189.445 87.1853 191.689 87.7613 193.802C89.0483 198.661 90.3675 203.526 91.7768 208.281L95.7987 222.767C97.5362 229.078 100.117 237.277 102.613 245.653C102.723 246.174 102.047 246.125 101.507 246.229C100.966 246.333 100.689 246.762 100.58 246.229C98.0832 237.853 95.6893 229.574 93.9518 223.263L89.9299 208.784C88.6429 203.918 87.2143 199.163 85.9144 194.2C85.25 191.622 85.6787 188.898 87.1076 186.618C88.5366 184.338 90.8509 182.686 93.5496 182.019C96.2483 181.352 99.1142 181.724 101.527 183.054C103.94 184.384 105.706 186.566 106.442 189.126C106.552 189.647 106.661 190.058 106.771 190.579V190.683L108.399 205.475L110.136 220.267C111.114 229.053 112.42 239.403 113.83 249.85C113.846 249.973 113.836 250.097 113.801 250.215C113.765 250.334 113.705 250.444 113.624 250.54C113.543 250.636 113.443 250.716 113.329 250.774C113.215 250.832 113.09 250.868 112.961 250.88L112.749 250.898Z"
            fill="#BF4B6F" />
        <path
            d="M239.738 154.702C239.723 162.159 236.604 169.307 231.066 174.58C225.527 179.853 218.02 182.82 210.188 182.833H209.101C207.349 188.735 203.621 193.93 198.483 197.627C193.345 201.325 187.079 203.323 180.639 203.318C175.406 203.352 170.262 202.028 165.761 199.488C163.016 203.075 159.421 205.993 155.268 208.007C151.115 210.02 146.521 211.072 141.861 211.075C134.397 211.089 127.208 208.389 121.764 203.526C118.807 206.15 115.316 208.168 111.507 209.455C107.697 210.742 103.651 211.271 99.6189 211.009C95.5864 210.747 91.6533 209.7 88.0629 207.932C84.4726 206.164 81.3015 203.714 78.7458 200.732C71.7172 203.818 63.6986 204.161 56.4082 201.686C49.1177 199.21 43.1353 194.115 39.7429 187.49C39.3535 186.759 39.0285 185.999 38.7712 185.217C38.0054 185.321 37.1367 185.523 36.3773 185.628C35.2898 185.732 34.0993 185.836 32.9024 185.836C27.3412 185.834 21.8933 184.338 17.1851 181.52C12.4769 178.702 8.69943 174.676 6.28698 169.904C4.21474 165.797 3.21018 161.275 3.35802 156.72C3.50585 152.166 4.80174 147.711 7.13642 143.734C3.09515 138.801 0.914639 132.716 0.945888 126.46C0.963268 120.292 3.09427 114.297 7.01525 109.387C10.9362 104.476 16.433 100.919 22.6707 99.2538C21.9227 96.7304 21.5565 94.1183 21.5831 91.4964C21.5985 84.0388 24.7168 76.891 30.2554 71.6183C35.7939 66.3456 43.3011 63.3778 51.1329 63.3648C55.1634 63.3696 59.1522 64.1425 62.864 65.6381C63.7741 60.1703 66.3551 55.0787 70.2848 50.9986C74.2145 46.9186 79.319 44.0308 84.9614 42.6957C90.6037 41.3605 96.5341 41.637 102.012 43.4908C107.491 45.3445 112.274 48.6935 115.767 53.1196C120.876 44.7432 131.089 39.1549 141.951 39.1549C149.337 39.1549 156.456 41.7886 161.905 46.5372C167.354 51.2857 170.738 57.805 171.391 64.8109C175.832 63.3998 180.562 63.0139 185.19 63.6853C189.818 64.3567 194.213 66.0661 198.011 68.6724C201.809 71.2788 204.902 74.7075 207.035 78.6758C209.168 82.6442 210.28 87.0385 210.278 91.4964V92.2255C216.816 93.6618 222.65 97.1625 226.832 102.158C231.014 107.154 233.297 113.35 233.31 119.738C233.337 124.516 232.064 129.22 229.616 133.39C232.791 136.058 235.335 139.337 237.08 143.011C238.825 146.685 239.731 150.67 239.738 154.702Z"
            fill="#FC9DB8" />
        <path
            d="M226.051 141.669C226.035 149.126 222.917 156.274 217.379 161.547C211.84 166.819 204.333 169.787 196.501 169.8H195.413C193.662 175.702 189.933 180.896 184.795 184.594C179.657 188.292 173.391 190.29 166.951 190.285C161.719 190.319 156.575 188.995 152.073 186.455C149.329 190.041 145.734 192.96 141.581 194.974C137.428 196.987 132.834 198.038 128.174 198.042C120.714 198.064 113.526 195.375 108.077 190.524C105.117 193.146 101.624 195.163 97.813 196.448C94.002 197.733 89.9545 198.26 85.9211 197.995C81.8877 197.73 77.9544 196.68 74.3647 194.909C70.775 193.137 67.6053 190.684 65.052 187.699C61.1682 189.405 56.9416 190.287 52.6645 190.285C48.1906 190.279 43.7742 189.325 39.7364 187.49C38.5425 186.941 37.3823 186.327 36.2615 185.652C31.1486 182.439 27.2321 177.771 25.0709 172.313C22.9292 172.744 20.7392 172.917 18.5522 172.827C14.3033 172.71 10.1256 171.759 6.28052 170.033C4.2049 165.922 3.19909 161.395 3.34806 156.836C3.49702 152.277 4.79641 147.818 7.13639 143.838C3.09602 138.904 0.91562 132.82 0.945867 126.564C0.962188 120.396 3.09279 114.4 7.01393 109.49C10.9351 104.579 16.4324 101.022 22.6706 99.3581C21.9226 96.8346 21.5564 94.2225 21.5831 91.6006C21.5967 84.142 24.7144 76.9926 30.2531 71.7186C35.7918 66.4446 43.3 63.4759 51.1329 63.463C55.1641 63.4675 59.1533 64.2426 62.864 65.7424C63.7741 60.2745 66.355 55.1829 70.2848 51.1029C74.2145 47.0228 79.319 44.1351 84.9613 42.7999C90.6037 41.4647 96.534 41.7413 102.012 43.5951C107.491 45.4488 112.274 48.7977 115.767 53.2238H116.41C119.563 48.0528 124.363 43.9724 130.116 41.5746C135.868 39.1768 142.273 38.5861 148.401 39.8883C154.53 41.1905 160.064 44.3179 164.2 48.8168C168.336 53.3158 170.859 58.9523 171.404 64.9091C175.846 63.4938 180.577 63.1049 185.207 63.7746C189.837 64.4442 194.234 66.1531 198.033 68.7602C201.833 71.3672 204.927 74.7976 207.06 78.768C209.192 82.7384 210.302 87.1349 210.298 91.5945V92.3175C212.522 92.8079 214.681 93.5377 216.733 94.4928C218.659 98.3377 219.662 102.543 219.667 106.803C219.694 111.581 218.422 116.284 215.973 120.455C219.158 123.092 221.706 126.353 223.445 130.014C225.185 133.675 226.073 137.651 226.051 141.669Z"
            fill="#FFA6BD" />
        <path
            d="M210.188 91.6005C200.304 61.1896 169.126 69.6701 169.126 69.6701C167.756 64.613 164.988 59.9979 161.109 56.3049C157.231 52.6119 152.384 49.9758 147.073 48.671C128.495 43.916 116.764 59.3268 116.764 59.3268C113.326 56.2011 109.21 53.8311 104.706 52.3839C100.202 50.9367 95.4197 50.4474 90.6956 50.9504C74.4021 52.6049 67.8834 72.6726 67.8834 72.6726C67.8834 72.6726 54.0866 68.1198 38.443 75.8773C22.9087 83.6348 26.6024 104.738 26.6024 104.738C-4.57543 120.253 6.71812 143.427 6.82752 143.734C2.78892 138.799 0.608743 132.716 0.63699 126.46C0.654369 120.292 2.78533 114.297 6.70631 109.387C10.6273 104.476 16.124 100.919 22.3617 99.2538C21.6202 96.7295 21.2606 94.1174 21.2935 91.4964C21.3088 84.0399 24.4264 76.893 29.9635 71.6205C35.5006 66.3479 43.0062 63.3794 50.8369 63.3648C54.8694 63.3699 58.8602 64.1429 62.5745 65.6382C63.4845 60.1703 66.0654 55.0787 69.9952 50.9986C73.9249 46.9186 79.0294 44.0309 84.6717 42.6957C90.3141 41.3605 96.2444 41.637 101.723 43.4908C107.201 45.3446 111.985 48.6935 115.477 53.1196H116.121C119.281 47.9625 124.082 43.896 129.829 41.5082C135.576 39.1204 141.972 38.5349 148.092 39.8365C154.212 41.1382 159.738 44.2594 163.872 48.7489C168.006 53.2384 170.534 58.8635 171.089 64.811C175.551 63.3976 180.301 63.0124 184.95 63.687C189.599 64.3617 194.013 66.077 197.83 68.6919C201.647 71.3068 204.758 74.7468 206.908 78.7293C209.057 82.7117 210.184 87.1229 210.195 91.6005H210.188Z"
            fill="#FFB8CC" />
        <path
            d="M141.861 211.97C134.456 211.984 127.303 209.412 121.758 204.739C118.727 207.278 115.197 209.218 111.372 210.447C107.547 211.676 103.504 212.17 99.4777 211.899C95.4511 211.628 91.5212 210.598 87.9158 208.87C84.3105 207.141 81.1016 204.748 78.4755 201.829C71.2567 204.795 63.1153 205 55.7421 202.401C48.3689 199.801 42.3304 194.598 38.8806 187.87C38.7712 187.631 38.6682 187.429 38.5717 187.227C38.4172 186.921 38.2564 186.614 38.1084 186.234L37.7609 186.302C37.3362 186.381 36.9114 186.461 36.5125 186.516C35.3992 186.62 34.1508 186.731 32.9024 186.731C27.1576 186.752 21.5245 185.219 16.6588 182.311C11.7932 179.403 7.89507 175.238 5.41824 170.303C3.32742 166.154 2.29153 161.595 2.39438 156.994C2.49723 152.393 3.73591 147.88 6.01025 143.819C2.07271 138.809 -0.0378476 132.712 -0.00011303 126.454C0.015225 120.239 2.10852 114.19 5.9764 109.184C9.84427 104.178 15.2858 100.474 21.5123 98.6105C20.4234 94.3239 20.3657 89.8585 21.3437 85.5477C22.3217 81.2369 24.31 77.1922 27.1601 73.7159C30.0102 70.2396 33.6483 67.4215 37.8029 65.472C41.9574 63.5226 46.5208 62.4923 51.1522 62.458C54.909 62.4661 58.6338 63.1157 62.1497 64.376C63.2678 58.9707 65.9754 53.979 69.9571 49.9821C73.9388 45.9851 79.0309 43.1474 84.6406 41.7991C90.2503 40.4509 96.1468 40.6477 101.644 42.3665C107.14 44.0854 112.011 47.2556 115.689 51.5081C121.23 43.4014 131.385 38.2236 141.97 38.2236C149.382 38.2591 156.53 40.8463 162.095 45.5078C167.659 50.1693 171.266 56.5902 172.247 63.5855C176.793 62.3288 181.583 62.0963 186.239 62.9066C190.895 63.7168 195.289 65.5475 199.074 68.2539C202.859 70.9604 205.931 74.4682 208.046 78.5001C210.162 82.5319 211.263 86.9771 211.263 91.4842C215.731 92.5729 219.883 94.6085 223.409 97.439C226.936 100.27 229.745 103.822 231.628 107.831C233.51 111.84 234.418 116.202 234.282 120.592C234.147 124.981 232.972 129.285 230.845 133.182C235.383 137.149 238.559 142.328 239.955 148.041C241.352 153.754 240.905 159.736 238.673 165.203C236.441 170.671 232.528 175.369 227.446 178.684C222.364 181.999 216.349 183.777 210.188 183.783H209.841C207.901 189.711 204.024 194.895 198.775 198.578C193.526 202.262 187.179 204.253 180.658 204.261C175.545 204.289 170.509 203.07 166.031 200.72C163.159 204.214 159.491 207.043 155.305 208.991C151.118 210.94 146.521 211.959 141.861 211.97ZM121.764 202.583C122.004 202.583 122.234 202.671 122.408 202.828C127.676 207.537 134.635 210.15 141.861 210.132C146.367 210.112 150.805 209.087 154.82 207.14C158.835 205.193 162.316 202.377 164.982 198.918C165.126 198.731 165.338 198.603 165.576 198.559C165.815 198.514 166.062 198.558 166.269 198.679C170.626 201.12 175.597 202.39 180.651 202.356C186.878 202.348 192.932 200.411 197.9 196.837C202.867 193.263 206.478 188.246 208.187 182.545C208.243 182.352 208.364 182.182 208.531 182.06C208.699 181.939 208.903 181.872 209.114 181.871H210.201C216.026 181.856 221.708 180.151 226.491 176.984C231.273 173.817 234.928 169.337 236.97 164.142C239.012 158.947 239.344 153.283 237.921 147.905C236.498 142.526 233.388 137.687 229.005 134.034C228.841 133.895 228.732 133.706 228.696 133.5C228.659 133.294 228.698 133.083 228.805 132.9C230.674 129.662 231.833 126.096 232.213 122.419C232.592 118.742 232.184 115.029 231.013 111.507C229.841 107.984 227.931 104.724 225.398 101.925C222.865 99.1261 219.762 96.8456 216.276 95.222C214.295 94.2961 212.209 93.5889 210.06 93.1141C209.85 93.0662 209.663 92.9525 209.529 92.7915C209.394 92.6304 209.321 92.4312 209.32 92.2256V91.4964C209.32 87.1842 208.244 82.9336 206.18 79.0951C204.116 75.2566 201.124 71.9401 197.45 69.4189C193.776 66.8977 189.525 65.2441 185.048 64.5942C180.571 63.9443 175.996 64.3169 171.7 65.6811C171.562 65.7271 171.414 65.7415 171.269 65.7235C171.124 65.7054 170.985 65.6552 170.864 65.577C170.742 65.5009 170.64 65.3996 170.566 65.2808C170.491 65.162 170.445 65.0286 170.433 64.8906C169.768 58.1264 166.485 51.8394 161.222 47.2525C155.959 42.6657 149.092 40.107 141.957 40.0741C131.558 40.0741 121.61 45.3806 116.61 53.5547C116.53 53.6851 116.418 53.7948 116.283 53.8739C116.149 53.953 115.995 53.9992 115.837 54.0082C115.678 54.0195 115.519 53.9922 115.374 53.929C115.228 53.8658 115.102 53.7687 115.007 53.6466C111.633 49.3572 107.005 46.1103 101.703 44.312C96.4013 42.5136 90.6601 42.2437 85.1977 43.5358C79.7354 44.828 74.7944 47.6249 70.9926 51.5768C67.1907 55.5288 64.6969 60.4603 63.8229 65.7547C63.7992 65.8916 63.7433 66.0217 63.6592 66.1352C63.5752 66.2486 63.4653 66.3425 63.3378 66.4097C63.2102 66.4769 63.0683 66.5158 62.9227 66.5233C62.7772 66.5308 62.6317 66.5069 62.4973 66.4532C58.9031 65.0253 55.0467 64.2921 51.1522 64.2963C43.5793 64.3076 36.3199 67.1768 30.9644 72.2752C25.609 77.3736 22.5942 84.2854 22.5805 91.4964C22.5522 94.0313 22.9054 96.557 23.6295 98.9965C23.7018 99.2297 23.6749 99.4807 23.5545 99.6951C23.4341 99.9096 23.2298 100.07 22.986 100.142C16.9464 101.754 11.6249 105.2 7.83115 109.956C4.03739 114.712 1.97894 120.518 1.96901 126.491C1.92731 132.544 4.03644 138.433 7.95365 143.201C8.07022 143.343 8.14031 143.514 8.15518 143.694C8.17006 143.874 8.12907 144.054 8.03731 144.212C5.77412 148.06 4.51661 152.371 4.37101 156.78C4.22541 161.189 5.19596 165.566 7.20072 169.543C9.51694 174.169 13.1664 178.074 17.7236 180.801C22.2809 183.529 27.5584 184.967 32.941 184.948C34.0993 184.948 35.2898 184.843 36.3194 184.745C36.6411 184.702 37.0337 184.629 37.4198 184.549C37.8059 184.47 38.2692 184.39 38.6682 184.335C38.9046 184.304 39.1447 184.356 39.3429 184.483C39.5411 184.609 39.6835 184.801 39.7428 185.021C39.8949 185.531 40.0997 186.026 40.3542 186.498C40.4636 186.724 40.573 186.939 40.6695 187.16C43.9625 193.552 49.7495 198.466 56.795 200.852C63.8405 203.238 71.5863 202.907 78.379 199.929C78.5729 199.843 78.7916 199.82 79.0004 199.866C79.2091 199.911 79.3959 200.022 79.5308 200.181C82.0024 203.066 85.07 205.438 88.5436 207.149C92.0172 208.859 95.8228 209.872 99.7244 210.125C103.626 210.378 107.541 209.865 111.226 208.618C114.91 207.371 118.287 205.417 121.146 202.877C121.312 202.719 121.531 202.624 121.764 202.607V202.583Z"
            fill="#BF4B6F" />
        <path
            d="M129.364 197.007C129.27 196.934 129.193 196.845 129.136 196.743C129.079 196.642 129.045 196.53 129.035 196.416C129.025 196.301 129.039 196.186 129.077 196.077C129.114 195.968 129.175 195.867 129.255 195.781C134.474 189.653 129.255 180.058 129.152 179.954C129.045 179.769 129.007 179.555 129.046 179.348C129.085 179.14 129.197 178.952 129.364 178.814C137.62 172.815 142.183 166.197 143.161 159.163C144.248 150.474 139.036 144.163 139.036 144.058C138.956 143.972 138.896 143.872 138.858 143.762C138.82 143.653 138.806 143.538 138.816 143.423C138.826 143.309 138.861 143.198 138.917 143.096C138.974 142.995 139.052 142.905 139.145 142.833C150.33 131.767 139.577 118.525 139.036 117.906C138.947 117.819 138.878 117.716 138.833 117.603C138.788 117.49 138.768 117.37 138.774 117.249C138.78 117.128 138.812 117.01 138.868 116.901C138.924 116.792 139.003 116.696 139.1 116.618C139.197 116.539 139.309 116.481 139.431 116.446C139.552 116.411 139.68 116.4 139.806 116.414C139.933 116.428 140.054 116.466 140.164 116.527C140.274 116.588 140.37 116.669 140.445 116.766C140.555 116.871 152.286 131.356 140.883 143.458C144.144 148.077 145.568 153.652 144.898 159.181C143.92 166.534 139.358 173.348 130.999 179.555C132.189 182.037 135.773 190.628 130.561 196.712C130.435 196.894 130.243 197.025 130.022 197.079C129.801 197.134 129.566 197.108 129.364 197.007Z"
            fill="#ED7E97" />
        <path
            d="M75.1616 115.602C70.3803 126.877 74.6146 139.083 84.4988 142.802C94.3831 146.522 106.23 140.425 110.883 129.15C115.657 117.875 111.423 105.669 101.539 101.944C91.7769 98.2244 79.9364 104.327 75.1616 115.602Z"
            fill="white" />
        <path
            d="M110.136 116.631C109.055 124.187 102.646 129.567 95.7988 128.635C88.9519 127.704 84.3959 120.878 85.5027 113.316C86.6095 105.755 92.9995 100.387 99.8464 101.319C106.552 102.152 111.224 109.082 110.136 116.631Z"
            fill="#22213F" />
        <path
            d="M96.9957 109.701C96.2364 111.46 93.9519 112.287 91.7769 111.46C89.6018 110.633 88.5207 108.568 89.2801 106.809C90.0394 105.05 92.3238 104.223 94.4924 105.05C96.5838 105.878 97.755 107.943 96.9957 109.701Z"
            fill="white" />
        <path
            d="M189.764 113.929C194.764 125.1 190.851 137.41 181.076 141.338C171.301 145.265 159.351 139.499 154.351 128.304C149.351 117.109 153.264 104.824 163.045 100.896C172.82 96.8763 184.744 102.771 189.764 113.929Z"
            fill="white" />
        <path
            d="M175.953 127.865C182.766 126.811 187.25 119.874 185.97 112.372C184.69 104.869 178.129 99.642 171.317 100.696C164.504 101.75 160.02 108.687 161.3 116.189C162.58 123.692 169.141 128.919 175.953 127.865Z"
            fill="#22213F" />
        <path
            d="M164.023 107.115C163.257 108.874 164.454 110.945 166.52 111.772C168.689 112.6 170.973 111.772 171.732 110.014C172.492 108.255 171.301 106.184 169.236 105.357C167.061 104.634 164.795 105.351 164.023 107.115Z"
            fill="white" />
        <path
            d="M155.786 79.3944C162.086 81.4656 168.058 80.9447 169.036 78.2547C170.014 75.4667 165.78 71.5144 159.474 69.4678C153.167 67.4212 147.202 67.9114 146.224 70.6014C145.117 73.2914 149.461 77.2253 155.786 79.3944Z"
            fill="#ED7E97" />
        <path
            d="M163.045 81.5698C160.451 81.5053 157.884 81.0503 155.439 80.2218C148.489 77.9484 144.03 73.4815 145.227 70.191C146.424 66.9005 152.833 66.1529 159.783 68.4324C162.714 69.3433 165.416 70.8225 167.717 72.7768C169.776 74.7376 170.645 76.7046 169.995 78.359C169.345 80.0134 167.389 81.1531 164.564 81.3615C164.079 81.5323 163.561 81.6033 163.045 81.5698ZM156.089 78.4632C159.023 79.3945 161.958 79.9154 164.345 79.6887C166.411 79.4803 167.82 78.8614 168.148 77.9301C168.476 76.9987 167.82 75.6506 166.301 74.2045C164.229 72.4291 161.786 71.0906 159.133 70.2768C152.942 68.2057 147.833 68.9287 147.073 70.8895C146.314 72.7278 149.898 76.4043 156.083 78.4387L156.089 78.4632Z"
            fill="#BF4B6F" />
        <path
            d="M112.421 94.8053C118.611 92.3543 122.633 88.065 121.43 85.3934C120.226 82.7218 114.261 82.5012 108.07 84.9829C101.88 87.4645 97.858 91.7231 99.0614 94.3947C100.265 97.0664 106.237 97.2931 112.421 94.8053Z"
            fill="#ED7E97" />
        <path
            d="M104.383 97.4952C101.339 97.4952 99.0549 96.5638 98.1862 94.8052C96.7769 91.6005 100.902 86.9436 107.749 84.2597C114.486 81.5698 120.895 81.8761 122.305 85.185C123.72 88.3958 119.589 93.0466 112.749 95.7366C110.101 96.8189 107.263 97.4156 104.383 97.4952ZM116.224 84.2597C113.562 84.3364 110.941 84.898 108.502 85.9142C102.42 88.3958 99.1578 92.2194 100.027 94.0822C100.895 95.9449 106.005 96.4658 112.086 93.978C118.173 91.4964 121.43 87.6728 120.561 85.81C120.13 84.7744 118.502 84.2597 116.224 84.2597Z"
            fill="#BF4B6F" />
        <path
            d="M81.2426 66.9801C81.1419 66.9929 81.0394 66.981 80.9449 66.9456C80.8503 66.9103 80.7668 66.8525 80.7021 66.7779C80.6008 66.713 80.5144 66.6292 80.4482 66.5315C80.3819 66.4339 80.3372 66.3245 80.3167 66.2098C80.2962 66.0952 80.3005 65.9778 80.3291 65.8648C80.3577 65.7518 80.4102 65.6455 80.4833 65.5524C80.5927 65.4482 88.0831 55.2091 100.58 60.2766C100.825 60.3725 101.02 60.5571 101.122 60.7898C101.224 61.0225 101.224 61.2842 101.124 61.5174C101.023 61.7506 100.829 61.9362 100.585 62.0333C100.34 62.1304 100.066 62.1311 99.8207 62.0352C88.7395 57.5866 82.3302 66.2754 82.002 66.6921C81.9119 66.7979 81.7947 66.88 81.6618 66.9305C81.5288 66.9809 81.3845 66.998 81.2426 66.9801Z"
            fill="#ED7E97" />
        <path
            d="M90.908 183.973C88.7394 183.973 82.2207 183.36 79.8333 176.32C79.7857 176.201 79.7645 176.075 79.7709 175.948C79.7773 175.821 79.8112 175.697 79.8704 175.583C79.9297 175.47 80.013 175.369 80.1151 175.288C80.2172 175.206 80.336 175.146 80.4639 175.11C80.5918 175.074 80.726 175.064 80.8582 175.08C80.9904 175.097 81.1176 175.139 81.2319 175.204C81.3461 175.269 81.4449 175.356 81.5221 175.46C81.5992 175.563 81.6531 175.681 81.6802 175.805C82.2541 177.769 83.5362 179.477 85.3014 180.63C87.0667 181.783 89.2021 182.307 91.3327 182.11C91.5658 182.122 91.7871 182.211 91.9571 182.363C92.1272 182.516 92.2349 182.72 92.2612 182.941C92.2875 183.162 92.2306 183.384 92.1006 183.569C91.9706 183.753 91.776 183.888 91.5515 183.949C91.5644 183.869 91.2362 183.973 90.908 183.973Z"
            fill="#ED7E97" />
        <path
            d="M158.483 193.183C156.99 193.179 155.512 192.898 154.132 192.356C154.016 192.317 153.908 192.257 153.816 192.179C153.724 192.1 153.65 192.005 153.597 191.899C153.544 191.793 153.514 191.677 153.508 191.56C153.503 191.443 153.522 191.325 153.565 191.215C153.608 191.105 153.674 191.004 153.758 190.918C153.843 190.832 153.944 190.763 154.057 190.715C154.17 190.668 154.292 190.642 154.415 190.639C154.538 190.637 154.661 190.658 154.776 190.701C161.945 193.287 165.857 187.595 165.96 187.386C166.09 187.18 166.3 187.031 166.545 186.972C166.79 186.914 167.05 186.95 167.266 187.074C167.483 187.197 167.64 187.398 167.701 187.631C167.763 187.864 167.724 188.111 167.595 188.318C167.595 188.318 164.345 193.183 158.483 193.183Z"
            fill="#ED7E97" />
        <path
            d="M57.5616 153.666C57.5022 153.674 57.4419 153.668 57.3851 153.65C57.3283 153.632 57.2764 153.602 57.2334 153.562C57.124 153.562 48.8679 150.462 50.2836 141.773C50.297 141.651 50.3366 141.533 50.3999 141.426C50.4632 141.319 50.5489 141.226 50.6517 141.152C50.7544 141.078 50.872 141.025 50.9972 140.996C51.1224 140.968 51.2524 140.964 51.3792 140.985C51.5061 141.006 51.6271 141.051 51.7346 141.119C51.8422 141.186 51.934 141.274 52.0044 141.377C52.0749 141.479 52.1224 141.595 52.1441 141.715C52.1658 141.836 52.1611 141.96 52.1304 142.079C50.9335 149.322 57.5617 151.804 57.7804 151.883C57.8986 151.919 58.0076 151.978 58.1002 152.056C58.1928 152.135 58.2671 152.231 58.3181 152.338C58.3691 152.446 58.3957 152.562 58.3962 152.68C58.3967 152.798 58.3711 152.915 58.321 153.023C58.321 153.458 57.9735 153.666 57.5616 153.666Z"
            fill="#ED7E97" />
        <path
            d="M187.814 160.18C187.571 160.187 187.334 160.105 187.152 159.952C186.97 159.798 186.857 159.584 186.836 159.353C186.823 159.237 186.836 159.119 186.874 159.008C186.912 158.897 186.974 158.795 187.055 158.707C187.137 158.62 187.237 158.55 187.349 158.502C187.461 158.454 187.582 158.429 187.704 158.427C195.426 158.011 196.392 151.289 196.501 150.976C196.494 150.841 196.518 150.705 196.571 150.579C196.625 150.453 196.706 150.339 196.81 150.246C196.914 150.153 197.039 150.082 197.174 150.039C197.31 149.996 197.453 149.982 197.595 149.997C197.737 150.013 197.874 150.057 197.996 150.128C198.118 150.199 198.223 150.294 198.302 150.407C198.382 150.52 198.434 150.648 198.457 150.782C198.479 150.917 198.471 151.054 198.432 151.185C198.432 151.289 197.145 159.665 187.788 160.18H187.814Z"
            fill="#ED7E97" />
        <path
            d="M40.1803 109.91C40.0517 109.91 39.9241 109.887 39.805 109.84C39.686 109.794 39.5778 109.725 39.4868 109.639C39.3958 109.552 39.3238 109.449 39.2749 109.336C39.2261 109.222 39.2014 109.101 39.2022 108.978C38.8741 96.9805 48.5459 94.0822 51.2615 93.4633C52.2397 89.1189 54.2989 85.8101 57.3427 83.8431C62.2333 80.7426 67.7739 81.8762 68.0956 81.8762C68.2237 81.889 68.3477 81.9267 68.4598 81.987C68.5719 82.0473 68.6698 82.1289 68.7474 82.2267C68.8251 82.3245 68.8807 82.4365 68.911 82.5557C68.9413 82.6749 68.9455 82.7987 68.9234 82.9195C68.9013 83.0403 68.8533 83.1555 68.7825 83.2579C68.7117 83.3603 68.6195 83.4477 68.5117 83.5148C68.404 83.5819 68.2829 83.6272 68.1559 83.6478C68.029 83.6684 67.899 83.664 67.7739 83.6348C67.6645 83.6348 62.6645 82.7034 58.5396 85.2892C55.7146 87.0478 53.9771 90.1545 53.1084 94.2906C53.0719 94.4874 52.9658 94.6664 52.8078 94.7979C52.6498 94.9294 52.4494 95.0055 52.2397 95.0136C51.8021 95.1178 40.8303 96.57 41.1585 108.776C41.1585 109.499 40.8303 109.91 40.1803 109.91Z"
            fill="#ED7E97" />
        <path
            d="M214.86 114.873H214.532C214.41 114.841 214.296 114.787 214.196 114.712C214.097 114.637 214.015 114.544 213.955 114.438C213.895 114.332 213.858 114.215 213.846 114.095C213.835 113.975 213.849 113.854 213.889 113.739C213.889 113.739 215.407 108.978 212.911 104.842C211.282 102.048 208.239 100.081 204.004 98.9475C203.807 98.8946 203.63 98.7883 203.495 98.6414C203.361 98.4945 203.274 98.3134 203.245 98.1203C203.245 97.7036 202.602 87.152 189.879 86.4289C189.753 86.4289 189.628 86.4042 189.512 86.3565C189.396 86.3089 189.292 86.2391 189.205 86.1516C189.119 86.0641 189.052 85.9607 189.009 85.8476C188.966 85.7346 188.947 85.6144 188.955 85.4944C188.962 85.3743 188.995 85.257 189.052 85.1497C189.109 85.0423 189.188 84.9471 189.285 84.8699C189.382 84.7927 189.494 84.7352 189.615 84.7009C189.736 84.6666 189.863 84.6562 189.989 84.6703C202.589 85.3934 204.789 94.8053 205.092 97.4952C209.545 98.7207 212.814 101.012 214.648 104.119C217.473 108.978 215.845 114.254 215.735 114.462C215.495 114.682 215.189 114.825 214.86 114.873Z"
            fill="#ED7E97" />
        <path
            d="M94.4924 196.179C93.9837 196.2 93.4741 196.165 92.9737 196.075C89.0612 195.462 86.455 192.766 85.4769 191.626C72.877 194.316 68.424 182.527 68.424 182.435C68.3784 182.326 68.3563 182.209 68.3588 182.091C68.3614 181.974 68.3886 181.858 68.4388 181.751C68.4891 181.643 68.5614 181.546 68.6515 181.466C68.7416 181.386 68.8477 181.323 68.9635 181.282C69.0793 181.241 69.2025 181.223 69.3258 181.228C69.4492 181.233 69.5702 181.262 69.6818 181.312C69.7934 181.362 69.8934 181.434 69.9757 181.521C70.0581 181.609 70.1212 181.711 70.1614 181.822C70.2708 182.233 74.2927 192.576 85.6056 189.684C85.8092 189.64 86.022 189.656 86.216 189.729C86.4101 189.802 86.5764 189.93 86.6931 190.095C86.6931 190.095 89.0805 193.612 93.3212 194.231C96.1462 194.647 99.293 193.618 102.446 191.026C102.636 190.892 102.872 190.833 103.106 190.859C103.34 190.885 103.555 190.995 103.707 191.167C103.858 191.339 103.936 191.56 103.923 191.784C103.91 192.008 103.807 192.219 103.637 192.374C100.445 194.941 97.4268 196.179 94.4924 196.179Z"
            fill="#ED7E97" />
        <path
            d="M181.726 193.183C179.334 193.166 176.955 192.853 174.648 192.251C174.421 192.169 174.235 192.008 174.127 191.801C174.019 191.594 173.997 191.356 174.065 191.135C174.134 190.913 174.287 190.724 174.495 190.605C174.703 190.486 174.951 190.446 175.188 190.493C175.832 190.701 190.291 194.941 194.744 183.042C194.784 182.931 194.848 182.828 194.93 182.741C195.012 182.653 195.112 182.582 195.224 182.532C195.335 182.481 195.457 182.453 195.58 182.447C195.703 182.442 195.826 182.461 195.942 182.502C196.058 182.542 196.164 182.605 196.254 182.685C196.344 182.766 196.417 182.862 196.467 182.97C196.517 183.077 196.544 183.193 196.547 183.311C196.549 183.428 196.527 183.545 196.482 183.654C193.785 191.424 186.945 193.183 181.726 193.183Z"
            fill="#ED7E97" />
        <path
            d="M211.604 131.736H211.385C211.263 131.704 211.148 131.648 211.049 131.573C210.95 131.497 210.868 131.404 210.808 131.297C210.747 131.191 210.711 131.074 210.699 130.953C210.688 130.833 210.702 130.711 210.742 130.596C210.961 129.983 214.983 116.013 202.376 112.214C202.246 112.188 202.122 112.137 202.014 112.063C201.905 111.99 201.813 111.896 201.745 111.787C201.676 111.678 201.632 111.557 201.615 111.431C201.598 111.305 201.609 111.177 201.646 111.056C201.683 110.934 201.747 110.821 201.833 110.723C201.918 110.626 202.024 110.547 202.143 110.49C202.263 110.434 202.393 110.402 202.526 110.396C202.659 110.39 202.792 110.41 202.917 110.455C217.254 114.897 212.569 130.933 212.569 131.142C212.499 131.328 212.367 131.487 212.192 131.594C212.018 131.702 211.811 131.752 211.604 131.736Z"
            fill="#ED7E97" />
        <path
            d="M47.9991 190.076C11.1712 203.422 -9.27297 186.148 13.1275 149.732C21.8213 137.012 25.2962 125.529 35.071 133.703C38.1148 138.979 35.618 140.321 31.8149 145.805C25.9461 153.25 15.6307 172.49 17.6578 178.489C20.8109 184.494 34.8265 180.248 42.214 178.287C49.6079 175.597 54.9554 186.351 47.9991 190.076Z"
            fill="#ED7E97" />
        <path
            d="M55.2772 171.252C55.0887 171.637 54.8318 171.987 54.5179 172.288L53.5397 172.901C52.8962 173.207 52.2527 173.415 51.6929 173.728C51.0771 174.087 50.4957 174.497 49.9554 174.953C49.2284 175.664 48.6071 176.466 48.1085 177.337C47.6999 178.144 47.4804 179.027 47.465 179.923L45.0712 180.027L40.6182 180.131C40.6502 178.687 40.9082 177.256 41.3839 175.885C42.465 172.888 44.9683 169.059 50.94 166.693C51.3538 166.522 51.7996 166.433 52.2508 166.43C52.7019 166.426 53.149 166.51 53.5654 166.675C53.9818 166.841 54.3589 167.084 54.674 167.392C54.9892 167.699 55.2359 168.064 55.3995 168.464C55.6913 169.38 55.6481 170.363 55.2772 171.252Z"
            fill="#ED7E97" />
        <path
            d="M59.6274 175.205C59.6018 175.689 59.461 176.161 59.2158 176.585C58.9705 177.01 58.6272 177.376 58.2116 177.656C57.9839 177.833 57.7274 177.973 57.4523 178.072C57.1241 178.176 56.8088 178.385 56.4742 178.483C55.7609 178.821 55.071 179.201 54.4085 179.623C52.7604 180.653 51.474 182.13 50.7148 183.863L46.4805 182.637L44.0867 181.908C44.3258 181.274 44.6185 180.659 44.9619 180.07C45.5045 179.111 46.1516 178.21 46.8924 177.38C47.1112 177.067 47.4393 176.859 47.6581 176.553C48.9846 175.268 50.4816 174.153 52.1112 173.238C52.7547 172.931 53.5205 172.515 54.2798 172.208C54.4986 172.104 54.608 172.104 54.8268 172C55.6746 171.699 56.612 171.722 57.4422 172.065C58.2724 172.408 58.931 173.043 59.2799 173.838C59.4904 174.267 59.6086 174.732 59.6274 175.205Z"
            fill="#ED7E97" />
        <path
            d="M60.9272 183.25C60.7084 183.459 60.4961 183.563 60.2837 183.765C59.7928 184.06 59.2344 184.239 58.6556 184.286C53.3274 184.592 49.6465 188.838 49.5307 188.943C48.9684 189.615 48.1484 190.048 47.2511 190.145C46.3538 190.242 45.4528 189.996 44.7462 189.46C44.0397 188.925 43.5854 188.144 43.4835 187.29C43.3815 186.435 43.6401 185.577 44.2025 184.905C44.3119 184.8 45.0776 183.973 46.3775 182.84C47.6938 181.706 49.1529 180.732 50.7212 179.941C53.0228 178.718 55.5865 178.01 58.218 177.87H58.3274C58.7593 177.855 59.1915 177.89 59.6144 177.974C60.2657 178.183 60.8386 178.569 61.2628 179.084C61.6869 179.599 61.9438 180.221 62.0019 180.873C61.969 181.765 61.5855 182.614 60.9272 183.25Z"
            fill="#ED7E97" />
        <path
            d="M294.893 86.9068C292.287 99.8359 280.337 105.528 269.365 108.218C266.321 109.15 263.934 113.801 262.409 117.839C261.774 119.547 260.469 120.954 258.767 121.764C257.065 122.574 255.1 122.725 253.284 122.183L253.072 122.079C251.541 121.649 250.197 120.761 249.238 119.547C248.278 118.333 247.754 116.858 247.743 115.339C247.726 114.854 247.762 114.369 247.853 113.892C248.012 112.884 248.227 111.884 248.496 110.896C250.556 102.826 259.14 96.3065 274.134 91.5515C275.444 91.0825 276.604 90.297 277.499 89.2721C280.105 86.484 280.105 81.6187 277.609 78.7204C276.685 77.6545 275.43 76.8951 274.024 76.5513C270.221 75.6199 263.484 78.3099 257.834 80.9999C256.902 81.4596 255.879 81.7278 254.831 81.7872C253.783 81.8466 252.734 81.6958 251.751 81.3446C250.768 80.9934 249.874 80.4497 249.126 79.7485C248.378 79.0474 247.793 78.2044 247.409 77.2743C247.071 76.4853 246.885 75.6445 246.862 74.7927V73.9777C246.96 72.9369 247.304 71.9308 247.869 71.035C248.434 70.1393 249.205 69.3772 250.124 68.8061C265.221 58.8733 285.215 60.0131 292.383 72.9422C294.586 77.2785 295.456 82.1197 294.893 86.9068Z"
            fill="#EA2A21" />
        <path
            d="M257.306 136.558C256.887 138.3 255.759 139.812 254.17 140.763C252.581 141.713 250.66 142.023 248.831 141.626C247.264 141.272 245.868 140.427 244.866 139.227C243.863 138.027 243.313 136.541 243.303 135.008C243.322 134.486 243.395 133.966 243.522 133.458C243.729 132.595 244.112 131.779 244.649 131.057C245.187 130.335 245.869 129.721 246.656 129.25C247.443 128.778 248.32 128.46 249.236 128.311C250.153 128.163 251.091 128.187 251.997 128.384C253.431 128.675 254.728 129.402 255.691 130.455C256.449 131.278 256.991 132.26 257.272 133.321C257.553 134.382 257.564 135.492 257.306 136.558Z"
            fill="#EA2A21" />
        <path
            d="M241.65 43.9589C244.5 52.6049 239.172 59.8231 233.471 64.8906C231.971 66.3918 232.119 69.9642 232.57 72.8932C232.761 74.1306 232.449 75.3909 231.696 76.4161C230.944 77.4414 229.808 78.1539 228.522 78.4079H228.368C227.288 78.6191 226.166 78.4949 225.167 78.0537C224.167 77.6125 223.342 76.8776 222.814 75.9569C222.648 75.6633 222.522 75.3502 222.441 75.0255C222.145 74.1677 221.92 73.5243 221.765 73.0279C220.268 67.4519 223.271 60.8791 230.774 53.3095C231.426 52.6169 231.87 51.7705 232.061 50.8585C232.29 49.558 232.066 48.222 231.424 47.0539C230.781 45.8857 229.756 44.9495 228.503 44.3878C227.574 44.0293 226.55 43.9543 225.575 44.1734C222.949 44.8167 219.719 48.5301 217.248 51.8879C216.836 52.4594 216.304 52.9426 215.684 53.3067C215.065 53.6708 214.373 53.9078 213.652 54.0024C212.931 54.097 212.198 54.0472 211.498 53.8561C210.799 53.6651 210.149 53.337 209.59 52.8929C209.095 52.5249 208.687 52.0613 208.393 51.5325C208.277 51.3504 208.176 51.1599 208.091 50.9627C207.801 50.3026 207.664 49.5905 207.691 48.8754C207.717 48.1604 207.907 47.4593 208.245 46.8205C214.037 36.1034 226.624 30.5273 235.401 36.1708C238.16 38.2051 240.314 40.8895 241.65 43.9589Z"
            fill="#EA2A21" />
        <path
            d="M235.793 85.8959C235.963 86.4869 236.008 87.104 235.926 87.7117C235.844 88.3194 235.637 88.9057 235.317 89.4369C234.996 89.9682 234.568 90.4339 234.058 90.8073C233.548 91.1807 232.966 91.4545 232.344 91.6129C231.273 91.8859 230.137 91.8091 229.118 91.3947C228.098 90.9804 227.254 90.2524 226.72 89.3273C226.548 89.0114 226.421 88.6757 226.34 88.3285C226.173 87.737 226.129 87.12 226.212 86.5125C226.295 85.9051 226.503 85.3192 226.824 84.7883C227.145 84.2574 227.573 83.7919 228.083 83.4184C228.593 83.0449 229.175 82.7707 229.796 82.6115C230.757 82.3344 231.79 82.3842 232.717 82.7524C233.452 83.011 234.114 83.43 234.648 83.976C235.182 84.5219 235.574 85.1794 235.793 85.8959Z"
            fill="#EA2A21" />
        <path
            d="M293.748 157.361C292.139 166.295 283.941 170.395 276.437 172.435C274.378 173.115 272.802 176.357 271.798 179.175C271.38 180.361 270.498 181.348 269.335 181.931C268.173 182.514 266.819 182.649 265.556 182.306L265.427 182.245C264.366 181.967 263.427 181.372 262.747 180.548C262.068 179.725 261.683 178.715 261.65 177.668C261.637 177.336 261.673 177.004 261.759 176.681C261.901 175.787 262.01 175.113 262.119 174.604C263.449 168.999 269.269 164.455 279.578 160.97C280.48 160.641 281.274 160.086 281.875 159.365C282.717 158.314 283.174 157.029 283.174 155.707C283.174 154.385 282.717 153.1 281.875 152.049C281.221 151.325 280.346 150.813 279.372 150.584C276.727 150.02 272.081 151.92 268.265 153.832C267.624 154.161 266.919 154.359 266.193 154.413C265.468 154.467 264.738 154.375 264.052 154.144C263.366 153.913 262.738 153.548 262.209 153.072C261.68 152.596 261.261 152.02 260.98 151.381C260.711 150.84 260.569 150.251 260.562 149.653C260.545 149.449 260.545 149.244 260.562 149.04C260.62 148.327 260.839 147.634 261.204 147.009C261.57 146.383 262.073 145.841 262.679 145.419C272.975 138.397 286.843 138.917 291.946 147.753C293.413 150.753 294.034 154.064 293.748 157.361Z"
            fill="#EA2A21" />
        <path
            d="M268.438 192.135C268.305 192.733 268.05 193.299 267.687 193.803C267.324 194.306 266.86 194.737 266.322 195.07C265.785 195.402 265.183 195.631 264.553 195.743C263.922 195.854 263.274 195.846 262.647 195.72C261.563 195.497 260.588 194.935 259.879 194.123C259.17 193.311 258.767 192.296 258.734 191.24C258.738 190.885 258.788 190.531 258.882 190.186C259.015 189.589 259.271 189.022 259.634 188.519C259.997 188.015 260.461 187.585 260.998 187.252C261.536 186.919 262.138 186.69 262.768 186.579C263.399 186.467 264.047 186.475 264.674 186.602C265.664 186.772 266.561 187.266 267.209 187.999C267.739 188.549 268.126 189.21 268.339 189.928C268.552 190.646 268.586 191.402 268.438 192.135Z"
            fill="#EA2A21" />
        <path
            d="M255.53 123.427C254.676 123.427 253.828 123.303 253.014 123.059L252.872 123.004L252.724 122.931C251.016 122.435 249.519 121.432 248.453 120.068C247.386 118.704 246.806 117.051 246.797 115.351C246.779 114.807 246.822 114.262 246.926 113.727C247.086 112.696 247.301 111.674 247.57 110.663C249.738 102.287 258.561 95.5467 273.838 90.6875C274.994 90.2798 276.014 89.5835 276.791 88.6716C279.05 86.2573 279.089 81.8823 276.875 79.321C276.078 78.3966 274.991 77.7395 273.773 77.4459C271.032 76.778 265.807 78.2486 258.284 81.8332C257.244 82.3514 256.1 82.6552 254.928 82.7249C253.756 82.7945 252.582 82.6286 251.482 82.2377C250.362 81.8425 249.341 81.2275 248.486 80.4327C247.632 79.6378 246.962 78.6808 246.521 77.6236C246.142 76.7265 245.937 75.7716 245.916 74.805V73.8858C246.03 72.7102 246.42 71.5742 247.059 70.5621C247.697 69.5501 248.567 68.6881 249.603 68.0401C258.561 62.1455 269.423 59.9089 278.644 62.0597C285.266 63.6038 290.311 67.219 293.246 72.5132C295.538 77.0068 296.442 82.0285 295.852 86.9926C295.855 87.0211 295.855 87.0499 295.852 87.0784C293.658 97.967 284.835 105.375 269.616 109.138C267.538 109.75 265.292 112.992 263.335 118.176C262.763 119.711 261.705 121.04 260.308 121.98C258.91 122.921 257.241 123.426 255.53 123.427ZM253.67 121.325C255.24 121.78 256.933 121.639 258.396 120.932C259.859 120.225 260.979 119.007 261.521 117.532C263.747 111.625 266.296 108.194 269.088 107.342C283.548 103.794 291.894 96.8825 293.953 86.7782C294.494 82.1772 293.662 77.5242 291.553 73.3527C288.889 68.5549 284.275 65.2644 278.207 63.8489C269.507 61.8207 259.23 63.9531 250.703 69.5598C249.91 70.0549 249.243 70.7132 248.752 71.4863C248.261 72.2594 247.958 73.1275 247.866 74.0268V74.805C247.905 76.0561 248.335 77.2676 249.102 78.284C249.869 79.3005 250.938 80.0755 252.171 80.5097C253.02 80.8128 253.926 80.9416 254.831 80.8878C255.736 80.8339 256.619 80.5986 257.422 80.1972C265.614 76.2939 270.974 74.8601 274.294 75.6751C275.903 76.0689 277.339 76.9402 278.394 78.1628C281.206 81.4227 281.148 86.7966 278.252 89.8971C277.246 91.0443 275.941 91.9192 274.468 92.4339C259.861 97.0724 251.45 103.359 249.461 111.123C249.262 111.803 249.056 112.753 248.818 114.058C248.742 114.485 248.712 114.918 248.728 115.351C248.74 116.671 249.198 117.952 250.033 119.006C250.869 120.06 252.038 120.83 253.368 121.203C253.419 121.215 253.469 121.233 253.516 121.258L253.67 121.325Z"
            fill="#B7130B" />
        <path
            d="M250.382 142.729C249.78 142.729 249.18 142.665 248.593 142.539C246.814 142.134 245.228 141.174 244.089 139.811C242.95 138.448 242.322 136.762 242.306 135.02C242.322 134.436 242.4 133.855 242.538 133.286C242.772 132.302 243.207 131.372 243.819 130.549C244.431 129.725 245.207 129.025 246.104 128.488C247.001 127.95 248 127.587 249.044 127.418C250.088 127.248 251.157 127.277 252.19 127.502C253.822 127.831 255.297 128.657 256.392 129.855C257.257 130.786 257.875 131.9 258.196 133.104C258.518 134.308 258.532 135.568 258.239 136.779C257.831 138.471 256.831 139.982 255.404 141.063C253.976 142.144 252.206 142.731 250.382 142.729ZM250.382 129.15C248.999 129.154 247.659 129.603 246.578 130.424C245.498 131.245 244.74 132.389 244.429 133.672C244.323 134.115 244.259 134.566 244.236 135.02C244.251 136.347 244.731 137.63 245.6 138.667C246.468 139.704 247.676 140.435 249.031 140.743C250.61 141.086 252.268 140.818 253.64 139.997C255.011 139.177 255.985 137.872 256.347 136.368C256.57 135.444 256.557 134.483 256.311 133.564C256.065 132.645 255.592 131.796 254.931 131.086C254.105 130.181 252.991 129.557 251.759 129.309C251.308 129.204 250.846 129.146 250.382 129.138V129.15Z"
            fill="#B7130B" />
        <path
            d="M227.306 79.4189C226.212 79.4243 225.138 79.1466 224.197 78.6156C223.256 78.0847 222.485 77.3203 221.965 76.4042C221.761 76.0489 221.608 75.6699 221.508 75.2767C221.205 74.4189 220.993 73.8 220.864 73.2914C219.275 67.3967 222.383 60.4726 230.092 52.6906C230.615 52.125 230.972 51.4381 231.128 50.6992C231.324 49.6057 231.14 48.4814 230.607 47.4956C230.073 46.5098 229.217 45.7158 228.168 45.2334C227.422 44.9487 226.6 44.893 225.819 45.0741C224.783 45.3315 222.351 46.6305 218.097 52.4272C217.624 53.0898 217.01 53.6505 216.295 54.0727C215.58 54.4949 214.78 54.7694 213.946 54.8782C213.081 54.9971 212.198 54.9436 211.355 54.7211C210.512 54.4985 209.727 54.1118 209.049 53.5853C208.456 53.1531 207.969 52.6032 207.621 51.9737L207.531 51.8205C207.424 51.6486 207.334 51.4682 207.26 51.2813C206.915 50.5007 206.753 49.6579 206.784 48.8114C206.815 47.9649 207.039 47.135 207.441 46.3793C210.935 39.9086 216.868 35.1046 223.335 33.5115C227.968 32.3779 232.344 33.0212 236.006 35.3497C238.904 37.4874 241.168 40.3066 242.576 43.53L242.615 43.628C245.047 50.9811 242.203 58.3341 234.172 65.5033C233.245 66.4347 233.014 69.0695 233.573 72.7032C233.799 74.1731 233.424 75.6693 232.526 76.8842C231.628 78.0991 230.276 78.9404 228.747 79.2351C228.687 79.2412 228.627 79.2412 228.567 79.2351H228.503C228.111 79.3321 227.71 79.3937 227.306 79.4189ZM226.752 43.1378C227.486 43.1352 228.212 43.2727 228.889 43.5422C230.356 44.1902 231.557 45.2833 232.302 46.6505C233.047 48.0177 233.295 49.5817 233.007 51.0975C232.777 52.15 232.26 53.1264 231.508 53.9284C224.249 61.2324 221.295 67.5867 222.711 72.8074C222.846 73.2608 223.058 73.8797 223.354 74.7314C223.357 74.7722 223.357 74.8131 223.354 74.8539C223.418 75.0979 223.516 75.3328 223.644 75.5525C224.084 76.2875 224.756 76.8712 225.565 77.2201C226.374 77.569 227.279 77.6652 228.149 77.4949C228.211 77.4889 228.273 77.4889 228.335 77.4949H228.387C229.415 77.2766 230.318 76.6959 230.915 75.8695C231.512 75.0432 231.758 74.0324 231.604 73.0402C230.929 68.6713 231.321 65.6871 232.763 64.2778C240.221 57.6355 242.891 50.9259 240.729 44.302C239.459 41.4086 237.426 38.8761 234.828 36.949C231.72 34.884 227.859 34.3387 223.766 35.3374C217.833 36.7835 212.357 41.2383 209.12 47.2371C208.849 47.7549 208.698 48.3218 208.676 48.8998C208.653 49.4778 208.761 50.0537 208.991 50.5889C209.008 50.6158 209.021 50.6446 209.03 50.6747C209.07 50.7661 209.117 50.8542 209.172 50.9382C209.21 51.0056 209.249 51.0668 209.275 51.122C209.496 51.5197 209.803 51.8685 210.176 52.1453C210.65 52.5196 211.201 52.7962 211.794 52.9575C212.386 53.1189 213.008 53.1615 213.618 53.0828C214.192 53.0045 214.742 52.8117 215.232 52.5171C215.722 52.2225 216.141 51.8327 216.463 51.3732C220.053 46.5141 222.956 43.8731 225.356 43.2849C225.814 43.1886 226.283 43.1392 226.752 43.1378Z"
            fill="#B7130B" />
        <path
            d="M231.077 92.6912C230.012 92.6927 228.966 92.4216 228.049 91.9063C227.132 91.3911 226.378 90.6505 225.864 89.7623C225.652 89.3745 225.492 88.9627 225.388 88.5368C225.001 87.1118 225.222 85.599 226.002 84.3283C226.782 83.0577 228.058 82.1321 229.552 81.7536C230.716 81.4223 231.965 81.4873 233.084 81.9374C233.954 82.2478 234.736 82.7474 235.367 83.3964C235.998 84.0453 236.462 84.8256 236.72 85.6752C237.113 87.1073 236.903 88.6287 236.135 89.9154C235.757 90.5546 235.247 91.1139 234.635 91.5595C234.023 92.0051 233.323 92.3276 232.576 92.5074C232.087 92.6308 231.583 92.6926 231.077 92.6912ZM231.025 83.359C230.703 83.3579 230.382 83.4012 230.073 83.4877C229.571 83.6143 229.1 83.8341 228.687 84.1344C228.274 84.4348 227.928 84.8098 227.668 85.2379C227.408 85.6661 227.239 86.1389 227.171 86.6293C227.104 87.1197 227.138 87.618 227.274 88.0956C227.335 88.3811 227.436 88.6574 227.576 88.9167C228.006 89.6558 228.682 90.2377 229.498 90.5705C230.313 90.9033 231.222 90.9682 232.081 90.7549C232.578 90.6345 233.045 90.4193 233.454 90.1223C233.862 89.8254 234.202 89.4527 234.455 89.0269C234.747 88.5542 234.925 88.0258 234.976 87.4797C235.028 86.9335 234.951 86.3834 234.752 85.8688C234.554 85.3542 234.237 84.888 233.827 84.5038C233.416 84.1196 232.92 83.827 232.377 83.647C231.952 83.4699 231.495 83.3721 231.032 83.359H231.025Z"
            fill="#B7130B" />
        <path
            d="M266.952 183.403C266.39 183.404 265.831 183.327 265.292 183.177C265.232 183.163 265.173 183.142 265.118 183.115H265.067C263.824 182.763 262.73 182.045 261.941 181.064C261.153 180.083 260.711 178.89 260.678 177.656C260.663 177.244 260.706 176.831 260.807 176.43C260.955 175.517 261.057 174.886 261.16 174.371C262.576 168.434 268.657 163.624 279.249 160.051C279.986 159.777 280.633 159.32 281.122 158.728C281.819 157.844 282.195 156.769 282.195 155.664C282.195 154.559 281.819 153.484 281.122 152.6C280.596 152.023 279.894 151.616 279.114 151.436C278.065 151.209 275.253 151.313 268.702 154.61C267.963 154.998 267.146 155.235 266.305 155.305C265.464 155.374 264.617 155.275 263.818 155.014C262.99 154.743 262.231 154.311 261.587 153.745C260.944 153.18 260.43 152.494 260.079 151.73C259.764 151.085 259.595 150.383 259.584 149.671C259.584 149.585 259.584 149.549 259.584 149.5C259.568 149.296 259.568 149.091 259.584 148.887C259.65 148.041 259.909 147.22 260.343 146.479C260.776 145.739 261.374 145.096 262.094 144.598C268.303 140.357 275.884 138.666 282.396 140.069C287.062 141.074 290.659 143.55 292.782 147.226C294.34 150.387 295.005 153.881 294.713 157.361C294.716 157.394 294.716 157.427 294.713 157.459C293.342 165.076 287.287 170.395 276.695 173.262C275.408 173.685 273.947 175.928 272.705 179.39C272.306 180.547 271.537 181.556 270.505 182.276C269.473 182.996 268.231 183.39 266.952 183.403ZM265.91 181.436C266.928 181.682 268.007 181.553 268.93 181.075C269.853 180.597 270.553 179.805 270.89 178.857C272.383 174.678 274.146 172.221 276.116 171.565C285.942 168.899 291.56 164.089 292.782 157.257C293.047 154.124 292.457 150.979 291.071 148.127C289.237 144.965 286.083 142.802 281.965 141.914C275.993 140.627 268.985 142.208 263.233 146.142C262.741 146.482 262.333 146.919 262.037 147.424C261.74 147.928 261.562 148.488 261.514 149.065C261.514 149.065 261.514 149.126 261.514 149.157C261.505 149.254 261.505 149.353 261.514 149.451C261.514 149.53 261.514 149.604 261.514 149.665C261.518 150.114 261.623 150.557 261.823 150.964C262.064 151.505 262.422 151.992 262.873 152.393C263.324 152.794 263.859 153.101 264.442 153.293C264.989 153.472 265.57 153.54 266.146 153.493C266.723 153.445 267.282 153.283 267.789 153.017C273.303 150.247 277.158 149.157 279.571 149.677C280.748 149.95 281.806 150.567 282.596 151.442C283.583 152.66 284.118 154.156 284.118 155.695C284.118 157.233 283.583 158.729 282.596 159.947C281.884 160.774 280.956 161.408 279.906 161.785C269.957 165.143 264.288 169.512 263.039 174.764C262.943 175.223 262.84 175.854 262.698 176.73C262.701 176.783 262.701 176.837 262.698 176.89C262.629 177.14 262.599 177.398 262.608 177.656C262.646 178.499 262.963 179.309 263.515 179.97C264.066 180.63 264.824 181.107 265.678 181.332C265.738 181.35 265.796 181.372 265.852 181.4L265.91 181.436Z"
            fill="#B7130B" />
        <path
            d="M263.67 196.749C263.248 196.75 262.827 196.704 262.415 196.614C261.124 196.342 259.964 195.667 259.119 194.697C258.275 193.728 257.793 192.518 257.75 191.259C257.752 190.812 257.813 190.368 257.93 189.935C258.267 188.498 259.188 187.246 260.491 186.452C261.795 185.659 263.375 185.389 264.886 185.701C266.082 185.914 267.162 186.516 267.943 187.405C268.569 188.058 269.025 188.841 269.276 189.692C269.526 190.544 269.563 191.439 269.385 192.307C269.104 193.555 268.385 194.675 267.346 195.483C266.308 196.29 265.011 196.737 263.67 196.749ZM263.67 187.411C262.767 187.415 261.892 187.712 261.19 188.254C260.488 188.795 260.001 189.548 259.809 190.389C259.733 190.669 259.692 190.957 259.687 191.247C259.723 192.091 260.052 192.899 260.622 193.546C261.193 194.193 261.973 194.64 262.84 194.819C263.859 195.024 264.922 194.836 265.795 194.296C266.669 193.756 267.281 192.909 267.499 191.939C267.618 191.35 267.589 190.742 267.416 190.165C267.243 189.588 266.93 189.058 266.502 188.618C265.991 188.039 265.286 187.646 264.507 187.503C264.224 187.441 263.935 187.41 263.645 187.411H263.67Z"
            fill="#B7130B" />
        <path
            d="M112.311 147.049C109.705 150.358 109.486 154.494 111.983 156.24C114.48 157.986 118.611 156.853 121.217 153.55C123.823 150.247 124.042 146.105 121.545 144.359C119.158 142.6 115.027 143.838 112.311 147.049Z"
            fill="#22213F" />
        <path
            d="M114.699 158.011C113.518 158.048 112.362 157.681 111.442 156.975C110.723 156.393 110.153 155.662 109.776 154.838C109.399 154.014 109.225 153.118 109.267 152.22C109.407 150.147 110.204 148.162 111.552 146.528C114.486 142.802 119.274 141.564 122.086 143.629C122.807 144.212 123.378 144.944 123.755 145.769C124.132 146.595 124.305 147.491 124.261 148.391C124.124 150.462 123.329 152.445 121.983 154.077C120.661 155.752 118.844 157.013 116.764 157.698C116.099 157.912 115.401 158.018 114.699 158.011ZM118.83 144.463C116.983 144.463 114.699 145.596 113.038 147.667C111.898 148.982 111.249 150.62 111.192 152.324C111.192 153.77 111.629 154.91 112.607 155.633C113.14 155.986 113.756 156.208 114.4 156.28C115.044 156.351 115.697 156.27 116.301 156.044C117.992 155.518 119.47 154.508 120.535 153.152C121.676 151.837 122.325 150.199 122.382 148.495C122.382 147.049 121.951 145.909 120.973 145.186C120.683 144.937 120.345 144.744 119.977 144.62C119.61 144.496 119.22 144.443 118.83 144.463Z"
            fill="#BF4B6F" />
        <path
            d="M231.373 191.008C215.285 214.078 171.951 188.213 151.308 179.733C144.795 176.835 139.467 174.77 142.183 168.042C146.642 161.013 153.264 166.387 159.557 169.077C177.576 175.817 207.466 194.813 219.745 184.181C222.241 180.352 221.263 171.663 213.657 160.805C213.15 160.092 212.795 159.29 212.614 158.446C212.432 157.602 212.427 156.733 212.598 155.887C212.769 155.041 213.113 154.236 213.611 153.517C214.11 152.798 214.751 152.179 215.501 151.696C216.25 151.214 217.091 150.876 217.978 150.703C218.864 150.53 219.777 150.525 220.665 150.688C221.554 150.851 222.399 151.179 223.155 151.653C223.91 152.127 224.559 152.738 225.066 153.452C235.066 167.735 237.454 181.7 231.373 191.008Z"
            fill="#ED7E97" />
        <path
            d="M151.417 170.217C150.559 170.579 149.639 170.787 148.701 170.83C148.201 170.92 147.691 170.955 147.183 170.934C144.987 170.892 142.813 170.507 140.748 169.794C138.104 168.884 135.586 167.669 133.251 166.179C132.514 165.678 132.004 164.93 131.822 164.085C131.641 163.241 131.802 162.362 132.273 161.626C132.665 161.037 133.25 160.587 133.936 160.343C134.623 160.1 135.374 160.077 136.076 160.278C136.42 160.373 136.75 160.513 137.054 160.695C142.485 164.108 145.96 164.42 147.594 164.316C147.92 164.3 148.245 164.265 148.566 164.212H148.463L151.417 170.217Z"
            fill="#ED7E97" />
        <path
            d="M153.811 169.181C153.582 169.837 153.146 170.408 152.561 170.816C151.977 171.225 151.273 171.45 150.548 171.461C150.179 171.442 149.815 171.371 149.467 171.252C149.157 171.157 148.864 171.017 148.598 170.836C147.967 170.451 147.495 169.872 147.26 169.194C147.026 168.516 147.044 167.783 147.311 167.116C147.576 166.243 147.687 165.334 147.64 164.426C147.545 163.803 147.399 163.189 147.202 162.588C146.852 161.659 146.421 160.759 145.915 159.898C145.654 159.545 145.468 159.146 145.37 158.724C145.271 158.303 145.261 157.867 145.34 157.441C145.42 157.016 145.587 156.61 145.832 156.247C146.077 155.883 146.395 155.569 146.768 155.323C147.141 155.077 147.561 154.904 148.004 154.814C148.448 154.723 148.906 154.717 149.352 154.796C149.798 154.875 150.223 155.038 150.603 155.274C150.983 155.51 151.31 155.815 151.565 156.172C151.745 156.565 156.089 162.668 153.811 169.181Z"
            fill="#ED7E97" />
        <path
            d="M147.183 177.87C144.248 177.87 142.08 177.147 140.555 175.701C139.931 175.089 139.453 174.356 139.153 173.553C138.853 172.749 138.738 171.894 138.817 171.044C138.937 170.196 139.404 169.426 140.116 168.903C140.828 168.38 141.728 168.145 142.62 168.25C143.384 168.339 144.093 168.675 144.628 169.203C145.162 169.731 145.489 170.418 145.555 171.148C146.484 171.328 147.438 171.363 148.38 171.252C149.272 171.183 150.158 171.448 150.848 171.991C151.539 172.533 151.981 173.311 152.079 174.158C152.178 175.006 151.926 175.856 151.377 176.53C150.828 177.203 150.025 177.647 149.139 177.766C148.49 177.847 147.837 177.882 147.183 177.87Z"
            fill="#ED7E97" />
        <path
            d="M147.582 178.716C144.165 178.716 141.533 177.974 139.795 176.32C139.081 175.611 138.539 174.762 138.205 173.833C137.872 172.904 137.756 171.916 137.865 170.94C137.993 170.2 138.29 169.495 138.733 168.875C138.896 168.712 139.118 168.615 139.353 168.603C139.589 168.59 139.82 168.664 140.001 168.808C140.181 168.953 140.297 169.157 140.325 169.38C140.352 169.603 140.29 169.828 140.149 170.009C139.859 170.333 139.67 170.727 139.602 171.148C139.525 171.847 139.612 172.552 139.857 173.215C140.102 173.877 140.499 174.479 141.018 174.978C142.305 176.203 144.725 176.816 147.453 176.816C147.741 177.099 147.926 177.462 147.981 177.852C148.161 178.391 148.129 178.716 147.582 178.716Z"
            fill="#BF4B6F" />
        <path
            d="M139.795 102.048H139.467C139.234 101.964 139.04 101.802 138.922 101.593C138.803 101.383 138.769 101.14 138.824 100.908C144.802 83.7512 130.349 77.0109 129.699 76.7045C129.533 76.6061 129.396 76.4689 129.301 76.3058C129.206 76.1428 129.157 75.9594 129.158 75.7731C129.699 69.2595 128.611 64.3943 125.683 61.5021C124.076 59.8734 121.9 58.8583 119.564 58.6467C119.331 58.625 119.114 58.5247 118.952 58.364C118.791 58.2033 118.695 57.9927 118.682 57.7704C118.672 57.6371 118.693 57.5033 118.742 57.3784C118.792 57.2534 118.87 57.1403 118.971 57.047C119.071 56.9537 119.192 56.8823 119.324 56.8379C119.457 56.7935 119.598 56.7772 119.737 56.79C122.512 57.0006 125.1 58.2023 126.983 60.154C130.136 63.3648 131.436 68.4323 131.005 75.1542C133.933 76.7045 146.32 84.5661 140.561 101.221C140.555 101.84 140.233 102.048 139.795 102.048Z"
            fill="#ED7E97" />
        <path
            d="M112.672 252.142C110.168 261.762 82.253 258.453 83.2312 252.755C83.199 252.865 98.952 257.626 112.672 252.142Z"
            fill="#E26988" />
        <path
            d="M176.295 253.901C174.017 259.072 147.833 261.346 146.854 251.315H147.073C147.073 251.315 158.045 258.141 176.295 253.901Z"
            fill="#E26988" />
        <path
            d="M161.308 259.152C156.745 259.152 152.183 258.325 149.248 256.358C146.533 254.52 145.445 251.909 146.205 248.809C146.295 248.601 146.459 248.43 146.669 248.326C146.879 248.222 147.12 248.192 147.351 248.241C147.582 248.29 147.787 248.415 147.931 248.594C148.074 248.773 148.146 248.994 148.135 249.219C147.833 250.275 147.891 251.396 148.301 252.419C148.71 253.442 149.45 254.315 150.413 254.912C156.063 258.735 169.641 257.602 174.223 254.703C174.866 254.293 175.748 253.668 175.639 252.945C174.77 248.496 162.601 246.946 158.039 246.817C157.912 246.817 157.787 246.793 157.672 246.745C157.556 246.697 157.451 246.627 157.365 246.54C157.278 246.452 157.211 246.349 157.168 246.236C157.125 246.123 157.107 246.003 157.114 245.883C157.121 245.763 157.155 245.645 157.211 245.538C157.268 245.431 157.347 245.335 157.444 245.258C157.541 245.181 157.654 245.124 157.775 245.089C157.896 245.055 158.023 245.044 158.148 245.059C159.995 245.163 176.289 245.99 177.595 252.712C177.814 253.643 177.485 254.991 175.31 256.333C172.382 258.037 166.842 259.152 161.308 259.152Z"
            fill="#BF4B6F" />
        <path
            d="M98.4049 259.152C92.8643 259.152 87.3237 258.012 84.4987 256.254C82.3301 254.912 82.1113 253.564 82.2207 252.632C83.4176 245.892 99.8206 245.083 101.667 244.979C101.904 244.979 102.131 245.065 102.303 245.219C102.475 245.373 102.579 245.584 102.593 245.809C102.607 246.034 102.53 246.255 102.378 246.428C102.227 246.6 102.012 246.711 101.777 246.737C97.105 246.946 85.0457 248.392 84.177 252.865C84.0676 253.588 84.8205 254.213 85.5862 254.624C90.2581 257.418 103.727 258.558 109.396 254.832C111.462 253.386 112.221 251.627 111.68 249.139C111.669 248.915 111.742 248.693 111.885 248.514C112.028 248.335 112.234 248.21 112.464 248.161C112.695 248.112 112.937 248.142 113.146 248.246C113.356 248.35 113.521 248.521 113.611 248.729C114.023 250.132 113.949 251.623 113.401 252.983C112.853 254.343 111.859 255.498 110.567 256.278C107.523 258.349 102.967 259.152 98.4049 259.152Z"
            fill="#BF4B6F" />
        <path
            d="M39.9552 192.558C38.3272 192.974 36.5897 193.287 34.6334 193.593C24.9808 195.248 17.2588 194.525 12.0399 191.626C9.96538 190.49 8.18528 188.924 6.83096 187.045C5.47664 185.165 4.58267 183.021 4.21491 180.768C2.80563 172.907 5.73358 162.459 13.224 149.739C16.5253 144.153 20.1786 138.764 24.1636 133.599C24.7047 132.917 25.3821 132.345 26.1567 131.914C26.9313 131.484 27.7878 131.203 28.6768 131.089C29.5658 130.975 30.4696 131.03 31.3362 131.251C32.2029 131.471 33.0151 131.852 33.7261 132.373C34.2491 132.769 34.722 133.221 35.1354 133.721C35.1354 133.721 29.923 131.65 23.9512 141.074C18.0825 150.486 4.50446 173.348 9.93565 184.518C15.3025 195.56 39.4211 192.558 39.9552 192.558Z"
            fill="#F490AA" />
        <path
            d="M220.401 188.63C207.582 197.423 159.564 168.973 159.564 168.973C174.017 175.713 197.479 185.836 207.254 187.08C210.838 187.595 217.357 187.803 219.751 183.973C222.248 180.15 221.27 171.461 213.663 160.597C212.66 159.15 212.291 157.387 212.637 155.685C212.982 153.983 214.013 152.478 215.51 151.491C215.51 151.699 233.219 179.941 220.401 188.63Z"
            fill="#F490AA" />
        <path
            d="M231.373 191.008C228.876 194.733 223.226 200.524 211.057 200.524C209.165 200.528 207.276 200.39 205.407 200.113C192.157 198.489 164.152 185.732 151.282 179.733C152.569 180.254 197.672 198.042 215.163 196.387C232.975 194.629 235.909 171.663 224.937 153.562C235.066 167.735 237.454 181.7 231.373 191.008Z"
            fill="#E26988" />
        <path
            d="M211.057 201.351C209.129 201.363 207.203 201.226 205.298 200.94C190.42 198.973 156.958 183.354 147.073 178.593C146.851 178.479 146.683 178.287 146.607 178.058C146.531 177.828 146.551 177.58 146.664 177.364C146.777 177.149 146.974 176.984 147.212 176.905C147.451 176.825 147.713 176.838 147.942 176.939C157.717 181.7 190.96 197.215 205.626 199.102C207.464 199.334 209.313 199.471 211.167 199.513C223.007 199.513 228.438 193.826 230.723 190.413C236.585 181.516 234.198 167.864 224.288 153.899C223.416 152.673 222.073 151.823 220.549 151.532C219.025 151.24 217.441 151.532 216.141 152.343C215.49 152.756 214.933 153.289 214.503 153.911C214.073 154.533 213.778 155.232 213.638 155.964C213.481 156.691 213.477 157.439 213.626 158.167C213.775 158.895 214.074 159.588 214.506 160.205C222.981 172.208 223.091 180.793 220.697 184.512C217.981 188.759 211.044 188.55 207.228 188.03C194.088 186.375 158.129 169.31 154.107 167.343C153.884 167.229 153.717 167.037 153.64 166.808C153.564 166.578 153.585 166.33 153.698 166.114C153.811 165.899 154.007 165.734 154.246 165.655C154.485 165.575 154.746 165.587 154.976 165.689C158.997 167.656 194.738 184.512 207.556 186.173C210.922 186.584 217.01 186.896 219.178 183.483C221.463 180.07 220.465 171.583 213.097 161.136C212.506 160.333 212.095 159.424 211.889 158.463C211.683 157.503 211.687 156.513 211.9 155.554C212.175 154.093 212.905 152.745 213.996 151.685C215.087 150.626 216.488 149.904 218.016 149.613C219.544 149.323 221.128 149.478 222.563 150.058C223.997 150.637 225.215 151.615 226.057 152.864C236.353 167.343 238.766 181.829 232.492 191.345C229.745 195.144 223.876 201.351 211.057 201.351Z"
            fill="#BF4B6F" />
        <path
            d="M38.5524 179.42C12.4775 189.562 11.6409 181.804 16.6088 166.626C21.5766 151.448 36.1585 136.319 36.1585 136.319L36.2679 138.078C36.1751 139.326 35.6833 140.517 34.8586 141.491C34.8586 141.491 33.5716 143.145 31.5961 145.835C29.7492 148.525 27.2524 152.147 24.865 156.179C19.3244 165.799 16.6088 173.949 17.4775 178.526C17.5321 178.905 17.6763 179.267 17.8992 179.586C18.1222 179.904 18.418 180.17 18.7645 180.364C22.5805 182.423 31.7055 181.179 38.5524 179.42Z"
            fill="#E26988" />
        <path
            d="M25.0774 195.352C19.6462 195.426 15.0837 194.316 11.4994 192.356C9.29921 191.151 7.40747 189.496 5.96077 187.51C4.51407 185.524 3.54852 183.257 3.1338 180.873C1.61513 172.803 4.65891 162.147 12.2587 149.218C15.5416 143.591 19.1955 138.167 23.1983 132.98C24.451 131.402 26.3107 130.362 28.3683 130.09C30.4259 129.818 32.5129 130.335 34.1701 131.528C35.8273 132.72 36.919 134.491 37.205 136.451C37.491 138.41 36.9479 140.397 35.6952 141.975C32.0972 146.647 28.7945 151.519 25.8045 156.565C20.3733 165.977 17.6577 173.942 18.5265 178.287C18.5288 178.537 18.6009 178.783 18.7354 178.998C18.8699 179.213 19.0621 179.391 19.2922 179.512C22.8766 181.479 32.7608 180.242 40.1483 177.962C40.3858 177.915 40.6333 177.955 40.8413 178.074C41.0494 178.193 41.2027 178.382 41.2709 178.604C41.3391 178.826 41.317 179.064 41.2091 179.271C41.1012 179.478 40.9155 179.638 40.6888 179.721C35.0388 181.375 23.1983 183.857 18.2047 181.167C17.7244 180.927 17.3141 180.578 17.0108 180.15C16.7075 179.722 16.5207 179.229 16.4672 178.716C15.5985 173.961 18.3141 165.578 23.9577 155.756C26.9751 150.638 30.3145 145.698 33.9577 140.964C34.4289 140.38 34.7745 139.713 34.975 139.002C35.1755 138.29 35.2269 137.548 35.1262 136.818C35.0255 136.088 34.7747 135.383 34.3882 134.745C34.0017 134.107 33.4869 133.548 32.8734 133.099C32.2599 132.651 31.5596 132.322 30.8125 132.131C30.0654 131.94 29.2861 131.891 28.5192 131.987C27.7522 132.083 27.0126 132.321 26.3425 132.689C25.6725 133.057 25.0851 133.548 24.614 134.132C20.6561 139.263 17.0287 144.618 13.7517 150.168C6.3642 162.784 3.45553 173.029 4.83907 180.579C5.19909 182.69 6.05577 184.697 7.34507 186.449C8.63437 188.201 10.3229 189.652 12.2844 190.695C17.3939 193.489 24.7813 194.114 34.228 192.533C38.292 191.902 42.2905 190.934 46.1779 189.641C47.2813 189.202 48.3162 188.62 49.2539 187.913C49.6915 188.226 50.7404 189.329 50.4186 189.641C47.7674 192.245 35.1997 195.217 25.0774 195.352Z"
            fill="#BF4B6F" />
        <path
            d="M55.2772 168.562C52.5027 168.667 49.7921 169.387 47.3604 170.663C44.9286 171.939 42.8427 173.738 41.2681 175.915C42.3492 172.919 44.8524 169.089 50.8242 166.724C51.672 166.423 52.6093 166.446 53.4395 166.789C54.2698 167.132 54.9284 167.767 55.2772 168.562Z"
            fill="#F490AA" />
        <path
            d="M59.6273 175.205C59.4085 175.205 56.3647 173.366 47.9992 177.38C47.568 177.588 47.1304 177.38 46.9116 177.38C46.5899 177.276 46.8087 176.963 47.6774 176.553C47.7868 176.449 48.5461 175.94 49.7366 175.002C50.2836 174.586 50.8242 174.175 51.4741 173.777C51.6929 173.673 51.9117 173.464 52.1176 173.36C52.9863 172.747 54.0481 172.018 55.052 171.399C54.8594 171.783 54.6005 172.133 54.2862 172.435C54.505 172.331 54.6144 172.331 54.8332 172.227C55.6809 171.924 56.6189 171.947 57.4496 172.289C58.2802 172.632 58.9387 173.269 59.2862 174.065C59.5148 174.405 59.6334 174.801 59.6273 175.205Z"
            fill="#F490AA" />
        <path
            d="M60.9271 183.25C61.0365 180.56 57.3427 179.837 54.2989 179.733C53.1031 179.679 51.9047 179.714 50.7146 179.837L56.3646 178.612L59.5178 177.889C60.1691 178.098 60.742 178.483 61.1661 178.998C61.5903 179.513 61.8471 180.135 61.9052 180.787C61.9402 181.24 61.8709 181.696 61.7019 182.121C61.533 182.547 61.2686 182.932 60.9271 183.25Z"
            fill="#F490AA" />
        <path
            d="M40.5021 179.733H40.3992C40.1465 179.69 39.9187 179.562 39.7578 179.371C39.5969 179.181 39.5138 178.942 39.524 178.697C39.8522 176.007 41.5897 169.285 50.3928 165.872C51.4725 165.458 52.6787 165.458 53.7584 165.872C54.2972 166.078 54.7867 166.385 55.1971 166.776C55.6075 167.167 55.9302 167.633 56.1458 168.146C56.469 168.937 56.5383 169.802 56.3447 170.631C56.1511 171.46 55.7033 172.216 55.0582 172.803C54.8714 172.953 54.6294 173.026 54.3857 173.007C54.1419 172.987 53.9163 172.876 53.7584 172.698C53.6005 172.521 53.5233 172.29 53.5439 172.058C53.5644 171.826 53.6809 171.611 53.8678 171.461C54.2248 171.134 54.4754 170.717 54.5895 170.258C54.7036 169.799 54.6765 169.319 54.5113 168.875C54.401 168.595 54.229 168.341 54.007 168.13C53.7851 167.918 53.5182 167.754 53.2243 167.649C52.6281 167.441 51.9735 167.441 51.3774 167.649C43.4494 170.652 41.9307 176.651 41.6025 179.028C41.5274 179.245 41.3784 179.432 41.1791 179.56C40.9799 179.688 40.7417 179.748 40.5021 179.733Z"
            fill="#BF4B6F" />
        <path
            d="M45.7468 178.881C45.6455 178.816 45.5591 178.733 45.4928 178.635C45.4266 178.537 45.3818 178.428 45.3614 178.313C45.3409 178.199 45.3451 178.081 45.3738 177.968C45.4024 177.855 45.4549 177.749 45.528 177.656C47.8772 174.722 51.0363 172.466 54.6529 171.142C55.1874 170.941 55.7586 170.843 56.3332 170.854C56.9079 170.865 57.4745 170.984 58.0002 171.205C58.5259 171.427 59.0002 171.745 59.3955 172.142C59.7908 172.54 60.0992 173.008 60.3029 173.52C60.6296 174.37 60.6687 175.296 60.4148 176.169C60.161 177.041 59.6268 177.816 58.8872 178.385C58.6845 178.501 58.4435 178.539 58.2122 178.493C57.9809 178.448 57.7762 178.32 57.639 178.137C57.5018 177.954 57.4422 177.728 57.4719 177.505C57.5017 177.282 57.6187 177.077 57.7996 176.933C58.2245 176.63 58.5308 176.201 58.6696 175.713C58.8084 175.226 58.7717 174.708 58.5654 174.243C58.3227 173.675 57.8593 173.219 57.2718 172.969C56.6843 172.719 56.0182 172.694 55.4123 172.901C52.0849 174.003 49.1997 176.063 47.1561 178.795C46.9684 178.964 46.725 179.064 46.4677 179.08C46.2104 179.096 45.9554 179.025 45.7468 178.881Z"
            fill="#BF4B6F" />
        <path
            d="M49.6078 189.77C49.3798 189.746 49.16 189.675 48.9643 189.561C48.8711 189.489 48.7943 189.399 48.7382 189.298C48.6821 189.196 48.648 189.085 48.6378 188.971C48.6276 188.856 48.6415 188.741 48.6788 188.632C48.7161 188.523 48.776 188.423 48.8549 188.336C48.8549 188.336 52.8768 183.679 58.6362 183.373C59.0223 183.381 59.4012 183.272 59.7173 183.06C60.0991 182.83 60.4107 182.509 60.6208 182.128C60.8309 181.748 60.9321 181.321 60.9142 180.891C60.8568 180.279 60.5541 179.711 60.0687 179.306C59.5834 178.901 58.9528 178.69 58.308 178.716C55.4109 178.929 52.6133 179.817 50.1612 181.302C50.0542 181.374 49.9327 181.424 49.8043 181.45C49.6759 181.475 49.5434 181.475 49.415 181.449C49.2866 181.424 49.1652 181.373 49.0583 181.301C48.9514 181.229 48.8614 181.136 48.7939 181.029C48.7263 180.922 48.6828 180.803 48.6658 180.679C48.6489 180.555 48.659 180.429 48.6956 180.309C48.7321 180.189 48.7943 180.078 48.8782 179.982C48.9621 179.886 49.0659 179.807 49.1831 179.751C51.9163 178.164 55.0014 177.207 58.1922 176.957C59.3534 176.912 60.488 177.297 61.3586 178.03C62.2293 178.763 62.7686 179.788 62.864 180.891C62.9245 181.648 62.7636 182.406 62.3989 183.081C62.0343 183.756 61.4802 184.321 60.7984 184.715C60.1527 185.027 59.4566 185.234 58.7391 185.327C53.9579 185.634 50.3735 189.568 50.3735 189.672C50.1741 189.561 49.9553 189.77 49.6078 189.77Z"
            fill="#BF4B6F" />
        <path
            d="M140.883 169.8H140.664C138.02 168.889 135.503 167.675 133.167 166.185C132.431 165.684 131.92 164.936 131.739 164.091C131.557 163.247 131.718 162.368 132.189 161.632C132.582 161.043 133.166 160.593 133.853 160.349C134.539 160.106 135.291 160.083 135.992 160.284C135.67 160.701 131.333 164.218 140.883 169.8Z"
            fill="#F490AA" />
        <path
            d="M151.526 156.252C150.767 156.148 147.401 156.148 147.183 162.563C146.829 161.636 146.399 160.736 145.896 159.873C145.387 159.157 145.193 158.279 145.355 157.428C145.518 156.578 146.023 155.821 146.764 155.321C147.536 154.878 148.454 154.728 149.337 154.9C150.219 155.073 151.001 155.555 151.526 156.252Z"
            fill="#F490AA" />
        <path
            d="M141.539 170.094C141.494 170.22 141.422 170.335 141.33 170.434C141.237 170.533 141.124 170.614 140.998 170.671C140.873 170.728 140.736 170.76 140.597 170.767C140.458 170.773 140.319 170.753 140.188 170.707C137.523 169.771 134.985 168.537 132.626 167.031C131.661 166.413 130.993 165.456 130.77 164.369C130.546 163.283 130.784 162.156 131.433 161.237C132.081 160.318 133.087 159.682 134.228 159.469C135.369 159.256 136.552 159.483 137.517 160.1C142.62 163.409 145.986 163.716 147.511 163.618C147.747 163.617 147.975 163.703 148.147 163.858C148.319 164.012 148.422 164.223 148.436 164.448C148.45 164.672 148.373 164.894 148.222 165.066C148.07 165.239 147.855 165.35 147.62 165.376C145.883 165.474 142.08 165.168 136.43 161.546C136.167 161.376 135.871 161.256 135.559 161.195C135.247 161.133 134.926 161.131 134.613 161.188C134.301 161.245 134.003 161.36 133.737 161.526C133.471 161.693 133.243 161.908 133.064 162.159C132.877 162.412 132.751 162.7 132.695 163.004C132.638 163.308 132.652 163.62 132.736 163.918C132.796 164.22 132.925 164.507 133.113 164.757C133.3 165.008 133.543 165.217 133.823 165.37C136.047 166.771 138.42 167.946 140.902 168.875C141.149 168.966 141.35 169.144 141.462 169.372C141.575 169.601 141.591 169.861 141.507 170.1L141.539 170.094Z"
            fill="#BF4B6F" />
        <path
            d="M154.345 166.246L154.467 167.472C154.467 167.472 153.302 167.227 153.373 166.479C153.62 163.042 152.658 159.625 150.638 156.767C150.251 156.262 149.675 155.917 149.029 155.803C148.383 155.689 147.715 155.815 147.163 156.154C146.635 156.5 146.272 157.031 146.151 157.631C146.031 158.231 146.163 158.851 146.52 159.359C147.544 160.896 148.203 162.627 148.45 164.432C148.45 164.947 148.013 165.26 147.472 165.358C147.343 165.374 147.212 165.365 147.087 165.332C146.962 165.299 146.845 165.242 146.744 165.165C146.642 165.087 146.558 164.991 146.496 164.882C146.435 164.773 146.397 164.654 146.385 164.53C146.191 163.098 145.673 161.722 144.866 160.499C144.203 159.58 143.951 158.447 144.164 157.351C144.378 156.255 145.04 155.284 146.005 154.653C146.97 154.022 148.159 153.781 149.311 153.984C150.462 154.188 151.481 154.818 152.144 155.737C152.254 155.946 155.838 160.915 155.182 166.706C155.33 167.116 154.886 166.246 154.345 166.246Z"
            fill="#BF4B6F" />
        <path
            d="M90.5864 144.769C88.3872 144.757 86.2079 144.371 84.1513 143.629C73.8552 139.702 69.3507 126.981 74.2671 115.185C76.4801 109.708 80.6406 105.144 86.024 102.287C91.2364 99.597 96.8863 99.1803 101.989 101.062C112.285 104.995 116.79 117.716 111.88 129.512C109.674 134.995 105.522 139.57 100.142 142.441C97.217 143.978 93.9279 144.78 90.5864 144.769ZM95.58 101.742C92.5762 101.777 89.6287 102.523 87.0021 103.911C82.0172 106.575 78.1729 110.821 76.1397 115.909C71.5772 126.668 75.5927 138.354 84.9364 141.975C89.3895 143.734 94.4989 143.323 99.2737 140.841C104.257 138.172 108.1 133.925 110.136 128.838C114.699 118.084 110.683 106.392 101.339 102.771C99.5062 102.081 97.5512 101.732 95.58 101.742Z"
            fill="#BF4B6F" />
        <path
            d="M174.667 143.427C166.192 143.427 157.504 137.735 153.483 128.635C148.27 117.048 152.395 104.223 162.607 99.983C167.608 97.9119 173.251 98.2244 178.579 100.81C184.004 103.568 188.261 108.024 190.632 113.427C195.851 125.014 191.72 137.839 181.507 142.079C179.355 142.991 177.022 143.45 174.667 143.427ZM169.454 100.498C167.368 100.513 165.304 100.899 163.367 101.637C154.133 105.357 150.439 117.152 155.22 127.808C160.001 138.464 171.404 144.15 180.748 140.321C189.982 136.601 193.676 124.806 188.895 114.15C186.729 109.096 182.772 104.924 177.711 102.36C175.122 101.206 172.312 100.572 169.454 100.498Z"
            fill="#BF4B6F" />
    </g>
    <defs>
        <clipPath id="clip0_46_2061">
            <rect width="296" height="263" fill="white" />
        </clipPath>
    </defs>
</svg>
    