<svg width="257" height="264" viewBox="0 0 257 264" fill="none" xmlns="http://www.w3.org/2000/svg">
    <g clip-path="url(#clip0_28_112)">
        <path
            d="M122.066 228.276C184.91 228.276 235.855 177.174 235.855 114.138C235.855 51.1013 184.91 0 122.066 0C59.2218 0 8.27661 51.1013 8.27661 114.138C8.27661 177.174 59.2218 228.276 122.066 228.276Z"
            fill="#E6ECFF" />
        <path
            d="M122.066 264C159.986 264 190.726 261.498 190.726 258.411C190.726 255.324 159.986 252.822 122.066 252.822C84.146 252.822 53.4059 255.324 53.4059 258.411C53.4059 261.498 84.146 264 122.066 264Z"
            fill="#C7D1EA" />
        <path
            d="M157.294 194.826C155.172 204.375 152.031 215.048 149.6 224.692C147.069 234.134 144.437 243.683 141.699 253.131C140.383 258.186 132.386 256.687 132.89 251.508C135.321 232.612 137.549 211.992 139.47 192.995C140.484 181.413 158.717 183.244 157.294 194.826Z"
            fill="#ED7E97" />
        <path
            d="M101.089 251.912C101.19 256.894 93.5961 258.007 92.2801 253.131C89.5474 243.683 86.9099 234.241 84.3787 224.692C81.9484 215.548 79.2157 205.285 76.8861 196.146C73.9518 183.856 93.0921 180.419 94.5089 192.995C96.5304 212.295 98.7592 232.814 101.089 251.912Z"
            fill="#ED7E97" />
        <path
            d="M96.0264 207.622L96.9392 216.047C86.4058 219.603 82.0492 215.643 82.0492 215.643L80.6324 210.464C79.4172 205.69 78.1012 201.016 76.8861 196.242C76.292 193.925 76.64 191.466 77.8535 189.406C79.0669 187.346 81.0465 185.854 83.3567 185.258C85.6669 184.662 88.1185 185.011 90.1721 186.228C92.2257 187.445 93.7132 189.431 94.3072 191.748C94.4311 192.178 94.4988 192.621 94.5088 193.068V193.169L96.0264 207.622Z"
            fill="#E26988" />
        <path
            d="M157.294 194.826C157.276 195.273 157.209 195.715 157.093 196.146C155.878 200.921 154.663 205.695 153.347 210.369C153.347 210.369 146.66 217.48 137.04 214.632L138.053 207.521L139.593 192.995C139.699 191.817 140.037 190.671 140.588 189.625C141.139 188.579 141.891 187.653 142.802 186.901C143.712 186.148 144.762 185.585 145.891 185.243C147.021 184.901 148.206 184.787 149.38 184.909C150.553 185.03 151.69 185.384 152.726 185.949C153.762 186.515 154.676 187.281 155.414 188.204C156.153 189.126 156.701 190.187 157.028 191.324C157.354 192.461 157.453 193.651 157.317 194.826H157.294Z"
            fill="#E26988" />
        <path
            d="M160.313 254.962C158.185 260.018 133.781 262.264 132.874 252.524V251.508C132.874 251.204 132.974 250.901 132.974 250.592C132.968 250.537 132.973 250.482 132.99 250.429C133.008 250.377 133.037 250.329 133.075 250.289L138.238 248.767L143.205 247.239H143.306C144.924 247.34 159.406 248.255 160.419 254.047C160.477 254.197 160.497 254.358 160.478 254.518C160.46 254.677 160.403 254.83 160.313 254.962Z"
            fill="#ED7E97" />
        <path
            d="M160.313 254.962C160.313 254.962 154.035 250.895 142.589 249.677C142.287 249.677 141.984 249.575 141.676 249.575C141.255 249.531 140.85 249.389 140.493 249.161C140.136 248.932 139.837 248.623 139.619 248.259C139.402 247.894 139.272 247.483 139.241 247.06C139.209 246.636 139.276 246.211 139.437 245.818L150.479 221.137L149.567 224.692C147.54 232.208 145.512 239.723 143.407 247.239C145.025 247.346 159.506 248.255 160.52 254.047C160.549 254.366 160.476 254.687 160.313 254.962Z"
            fill="#F490AA" />
        <path
            d="M101.089 251.912C101.071 252.427 101.004 252.939 100.887 253.44C98.5576 262.888 72.5294 259.619 73.4478 254.047C74.4614 248.357 88.9426 247.346 90.561 247.239H90.6674L94.3129 248.362L100.792 250.294C100.787 250.436 100.822 250.576 100.893 250.699C100.97 250.963 101.004 251.238 100.994 251.513V251.614C101.094 251.716 101.094 251.716 101.094 251.918L101.089 251.912Z"
            fill="#ED7E97" />
        <path
            d="M94.5088 248.34C94.6047 248.568 94.6413 248.817 94.6153 249.063C94.5892 249.31 94.5013 249.545 94.3598 249.749C94.2183 249.952 94.0279 250.115 93.8062 250.225C93.5845 250.334 93.3388 250.385 93.0921 250.373H91.5689C80.2348 250.587 73.543 253.957 73.543 253.957C74.5565 248.267 89.0378 247.25 90.6561 247.149C88.5338 239.633 86.5066 232.118 84.4963 224.602L83.5947 221.035L94.5088 248.34Z"
            fill="#F490AA" />
        <path
            d="M100.988 253.339C98.6584 262.781 72.6358 259.518 73.5486 253.946C73.543 254.047 88.2314 258.72 100.988 253.339Z"
            fill="#E26988" />
        <path
            d="M160.313 255.08C158.185 260.135 133.781 262.382 132.874 252.541H133.075C133.075 252.541 143.323 259.226 160.313 255.08Z"
            fill="#E26988" />
        <path
            d="M161.433 253.957C160.358 248.121 148.368 246.806 144.409 246.514C146.649 238.65 148.738 230.938 150.295 225.007L154.041 210.784C155.357 206.01 156.572 201.235 157.787 196.461C157.983 196.013 158.086 195.529 158.09 195.04C158.225 193.756 158.107 192.459 157.741 191.221C157.376 189.984 156.772 188.83 155.962 187.828C154.276 185.822 151.882 184.548 149.281 184.272C148.002 184.136 146.708 184.255 145.474 184.621C144.24 184.987 143.091 185.594 142.091 186.406C140.092 188.098 138.822 190.499 138.546 193.108L137.023 207.633L135.405 222.159C134.492 230.798 133.277 240.953 131.961 251.216C131.714 253.766 132.767 255.912 134.985 257.512C137.717 259.445 141.973 260.253 146.224 260.253C151.387 260.253 156.555 259.13 159.288 257.512C161.349 256.204 161.651 254.861 161.433 253.957ZM158.291 255.889C154.041 258.731 141.38 259.849 136.116 256.091C135.214 255.508 134.522 254.652 134.139 253.646C133.756 252.641 133.703 251.54 133.988 250.502C135.405 240.139 136.317 230.899 137.129 222.468L138.748 207.863L140.265 193.231C140.341 192.161 140.643 191.119 141.15 190.174C141.656 189.229 142.357 188.403 143.205 187.749C144.867 186.406 146.99 185.774 149.113 185.991C150.18 186.068 151.218 186.371 152.16 186.879C153.102 187.387 153.926 188.09 154.579 188.94C155.899 190.602 156.518 192.717 156.303 194.832C156.286 195.245 156.216 195.655 156.096 196.051C154.881 200.825 153.565 205.499 152.35 210.273L148.603 224.495C146.985 230.674 144.756 238.813 142.444 247.042C142.421 247.182 142.421 247.324 142.444 247.463C142.455 247.572 142.487 247.677 142.539 247.772C142.592 247.872 142.667 247.959 142.759 248.026C142.85 248.093 142.954 248.139 143.065 248.16C143.208 248.188 143.354 248.188 143.496 248.16C147.909 248.306 158.874 249.845 159.669 254.142C159.753 254.861 158.918 255.468 158.308 255.878L158.291 255.889Z"
            fill="#BF4B6F" />
        <path
            d="M102.074 251.204C100.758 240.942 99.5431 230.787 98.6303 222.148L97.0344 207.622L95.5168 193.096V192.995C95.416 192.49 95.3096 192.08 95.2088 191.574C94.7117 189.676 93.666 187.968 92.2033 186.664C90.7405 185.361 88.9261 184.521 86.9884 184.249C85.0507 183.978 83.0762 184.288 81.3135 185.139C79.5507 185.991 78.0785 187.346 77.0821 189.035C75.7999 191.319 75.4372 194.008 76.0685 196.551C77.2837 201.426 78.5996 206.1 79.8148 210.874L83.5667 225.096C85.1515 231.163 87.453 238.375 89.7265 246.391C85.8514 246.677 73.6102 247.963 72.6134 253.844C72.5126 254.76 72.7198 256.091 74.7413 257.4C77.3733 259.124 82.5419 260.242 87.705 260.242C91.9609 260.242 96.2112 259.433 99.0503 257.4C100.079 256.751 100.906 255.828 101.44 254.733C101.975 253.639 102.194 252.417 102.074 251.204ZM97.9359 255.979C92.6665 259.636 80.1116 258.518 75.7549 255.777C75.0493 255.367 74.3381 254.76 74.4389 254.047C75.2509 249.682 86.4898 248.255 90.8465 248.053C91.034 248.037 91.2113 247.961 91.3517 247.835C91.492 247.71 91.5879 247.542 91.6249 247.357C91.6399 247.322 91.6476 247.285 91.6476 247.247C91.6476 247.21 91.6399 247.172 91.6249 247.138C91.6231 247.019 91.5902 246.903 91.5297 246.801C89.2282 238.69 86.8426 230.702 85.2467 224.591L81.5004 210.369C80.1844 205.695 78.9692 200.921 77.7541 196.146C77.2579 194.086 77.5883 191.913 78.6742 190.095C79.7601 188.276 81.5145 186.959 83.5595 186.426C85.6045 185.892 87.7766 186.186 89.6077 187.244C91.4389 188.301 92.7827 190.038 93.3497 192.08C93.4653 192.444 93.5331 192.821 93.5513 193.203L95.0688 207.835L96.6928 222.361C97.6 230.893 98.8151 241.15 100.137 251.412H100.17C100.344 253.316 99.5991 254.76 97.9527 255.979H97.9359Z"
            fill="#BF4B6F" />
        <path
            d="M235.065 170.482C215.516 191.67 194.506 188.372 176.855 178.807C176.995 178.537 183.39 168.696 183.709 168.05C219.419 187.496 236.589 150.677 241.018 120.743C242.3 112.526 255.158 114.677 253.651 122.895C251.826 132.438 247.111 156.187 235.065 170.482Z"
            fill="#ED7E97" />
        <path
            d="M203.085 173.257C211.557 173.088 219.123 169.28 225.484 162.023C233.38 153.036 238.52 133.696 240.48 123.883C240.436 124.445 239.052 142.375 233.649 154.541C228.189 166.792 215.718 177.453 203.085 173.257Z"
            fill="#F490AA" />
        <path
            d="M235.065 170.482C221.822 185.648 206.601 187.069 196.096 185.648C190.441 184.843 184.956 183.116 179.856 180.537C178.042 179.627 176.911 178.947 176.821 178.902L177.639 177.717L184.129 168.37C188.525 170.801 193.326 172.408 198.297 173.111C198.582 173.163 198.87 173.195 199.159 173.206C199.159 173.206 201.052 180.975 210.605 181.581C220.159 182.188 238.924 173.442 253.164 125.26C251.826 132.887 246.226 157.687 235.065 170.482Z"
            fill="#E26988" />
        <path
            d="M245.431 121.249C246.231 120.877 246.954 120.354 247.559 119.71C247.937 119.392 248.272 119.025 248.555 118.62C249.873 117.052 250.918 115.273 251.646 113.357C252.564 110.91 253.19 108.363 253.511 105.768C253.607 104.933 253.371 104.093 252.854 103.43C252.338 102.767 251.582 102.334 250.751 102.224C250.077 102.165 249.402 102.31 248.812 102.642C248.223 102.974 247.747 103.476 247.447 104.083C247.32 104.37 247.243 104.676 247.217 104.988C246.483 110.987 244.535 113.756 243.532 114.846C243.264 115.16 242.944 115.34 242.9 115.435L243.034 115.385L245.431 121.249Z"
            fill="#ED7E97" />
        <path
            d="M243.191 122.294C243.811 122.553 244.499 122.606 245.151 122.443C245.804 122.28 246.387 121.911 246.814 121.389C247.043 121.131 247.232 120.84 247.374 120.524C247.492 120.269 247.554 119.991 247.553 119.71C247.629 119.014 247.482 118.311 247.133 117.705C246.783 117.099 246.25 116.62 245.61 116.34C244.775 116 244.031 115.469 243.437 114.789C243.007 114.361 242.642 113.871 242.356 113.335C241.814 112.532 241.415 111.641 241.18 110.7C241.083 110.291 240.905 109.906 240.657 109.566C240.409 109.227 240.096 108.94 239.737 108.723C239.377 108.507 238.978 108.364 238.563 108.303C238.148 108.243 237.725 108.266 237.319 108.371C236.913 108.476 236.532 108.661 236.198 108.916C235.864 109.17 235.584 109.489 235.374 109.853C235.164 110.218 235.029 110.62 234.976 111.038C234.923 111.455 234.953 111.879 235.065 112.284C235.099 112.649 236.992 119.738 243.191 122.294Z"
            fill="#ED7E97" />
        <path
            d="M252.431 124.439C251.816 124.983 251.016 125.268 250.197 125.234C249.378 125.199 248.604 124.849 248.037 124.255C247.47 123.662 247.154 122.871 247.155 122.049C247.155 121.227 247.472 120.437 248.04 119.845C248.693 119.272 249.233 118.58 249.631 117.806C249.119 117.299 248.799 116.63 248.725 115.912C248.651 115.195 248.829 114.474 249.227 113.874C249.699 113.167 250.427 112.673 251.256 112.496C252.085 112.319 252.95 112.472 253.668 112.925C254.349 113.389 254.914 114.003 255.321 114.721C255.728 115.439 255.965 116.24 256.014 117.064C256.149 119.064 255.376 121.058 253.606 123.243C253.332 123.535 252.879 123.985 252.431 124.439Z"
            fill="#ED7E97" />
        <path
            d="M253.332 123.99L253.153 123.895C252.949 123.662 252.836 123.362 252.836 123.052C252.836 122.742 252.949 122.442 253.153 122.21C254.782 120.3 255.426 118.879 255.292 117.109C255.231 116.417 255.022 115.746 254.679 115.142C254.335 114.538 253.867 114.016 253.304 113.61C252.97 113.348 252.551 113.218 252.128 113.245C251.888 113.245 251.657 113.149 251.487 112.978C251.317 112.808 251.221 112.576 251.221 112.335C251.221 112.093 251.317 111.862 251.487 111.691C251.657 111.521 251.888 111.425 252.128 111.425C252.858 111.456 253.565 111.694 254.166 112.11C254.958 112.657 255.619 113.373 256.103 114.206C256.587 115.039 256.882 115.969 256.966 116.93C257.19 119.176 256.283 121.468 254.379 123.67C254.257 123.823 254.092 123.935 253.905 123.993C253.718 124.05 253.518 124.049 253.332 123.99Z"
            fill="#BF4B6F" />
        <path
            d="M251.535 113.531L251.63 113.351C252.547 110.904 253.173 108.357 253.495 105.763C253.59 104.927 253.354 104.087 252.837 103.424C252.321 102.761 251.565 102.328 250.734 102.219C250.061 102.159 249.385 102.305 248.796 102.637C248.206 102.968 247.73 103.471 247.43 104.078C247.928 103.982 253.181 103.224 251.535 113.531Z"
            fill="#F490AA" />
        <path
            d="M235.009 112.408C235.413 111.818 237.412 109.414 242.345 113.368C241.802 112.566 241.404 111.674 241.169 110.734C241.059 110.328 240.87 109.948 240.613 109.616C240.357 109.283 240.037 109.005 239.673 108.796C239.309 108.588 238.908 108.453 238.492 108.4C238.076 108.347 237.654 108.377 237.249 108.487C236.845 108.598 236.466 108.787 236.135 109.045C235.803 109.302 235.525 109.623 235.317 109.988C235.109 110.353 234.975 110.756 234.922 111.173C234.869 111.59 234.899 112.013 235.009 112.419V112.408Z"
            fill="#F490AA" />
        <path
            d="M243.157 115.727C243.656 114.7 242.838 115.525 242.748 115.48C242.659 115.402 242.586 115.305 242.535 115.197C242.484 115.089 242.456 114.972 242.451 114.853C242.447 114.733 242.467 114.614 242.511 114.503C242.554 114.391 242.62 114.29 242.704 114.205C243.656 113.205 245.504 110.622 246.204 104.943C246.259 104.401 246.429 103.877 246.704 103.407C246.978 102.937 247.35 102.532 247.794 102.219C248.663 101.562 249.746 101.256 250.829 101.359C251.369 101.416 251.891 101.587 252.359 101.862C252.827 102.137 253.232 102.51 253.545 102.954C254.199 103.827 254.505 104.912 254.402 105.999C254.088 108.981 253.329 111.899 252.151 114.655C252.106 114.759 252.041 114.853 251.96 114.933C251.878 115.012 251.782 115.074 251.677 115.116C251.572 115.158 251.459 115.179 251.346 115.177C251.233 115.176 251.121 115.152 251.017 115.107C250.913 115.062 250.818 114.997 250.739 114.915C250.66 114.834 250.598 114.737 250.556 114.632C250.514 114.526 250.494 114.413 250.495 114.3C250.497 114.186 250.521 114.074 250.566 113.969C251.67 111.379 252.391 108.641 252.705 105.842C252.748 105.535 252.727 105.224 252.642 104.927C252.557 104.629 252.411 104.354 252.212 104.117C252.04 103.873 251.817 103.669 251.559 103.52C251.301 103.371 251.014 103.279 250.717 103.252C250.412 103.212 250.102 103.235 249.806 103.32C249.51 103.405 249.235 103.55 248.998 103.746C248.755 103.919 248.551 104.142 248.403 104.401C248.254 104.66 248.163 104.948 248.135 105.246C247.357 111.56 245.336 114.385 244.182 115.52C243.98 115.615 243.521 115.907 243.157 115.727Z"
            fill="#BF4B6F" />
        <path
            d="M240.475 121.833L240.385 121.788C235.676 118.514 234.192 112.88 234.102 112.604C233.962 112.082 233.928 111.537 234.001 111.001C234.074 110.465 234.254 109.949 234.529 109.484C234.804 109.019 235.169 108.613 235.602 108.292C236.036 107.97 236.529 107.738 237.053 107.611C237.574 107.471 238.117 107.437 238.651 107.511C239.185 107.585 239.699 107.765 240.163 108.041C240.627 108.317 241.031 108.682 241.352 109.117C241.673 109.551 241.904 110.046 242.032 110.571C242.369 111.957 243.042 113.238 243.991 114.301C244.355 114.711 244.467 115.205 244.109 115.48C243.926 115.656 243.682 115.754 243.429 115.754C243.175 115.754 242.932 115.656 242.748 115.48C241.617 114.186 240.797 112.649 240.352 110.987C240.183 110.406 239.798 109.913 239.277 109.609C238.756 109.305 238.138 109.213 237.552 109.352C236.95 109.519 236.433 109.906 236.101 110.436C235.818 110.967 235.751 111.587 235.917 112.166C236.906 115.345 238.884 118.122 241.561 120.092C241.744 120.288 241.861 120.537 241.894 120.803C241.927 121.07 241.875 121.34 241.746 121.575C241.591 121.751 241.383 121.871 241.154 121.918C240.924 121.965 240.686 121.935 240.475 121.833Z"
            fill="#BF4B6F" />
        <path
            d="M179.481 181.267C177.577 180.312 176.446 179.627 176.356 179.582C176.151 179.456 176.004 179.254 175.948 179.02C175.929 178.804 175.961 178.586 176.043 178.385L182.847 167.713C182.875 167.65 182.907 167.588 182.942 167.528C183.084 167.336 183.291 167.203 183.524 167.154C183.757 167.104 184 167.141 184.207 167.258C188.6 169.76 193.42 171.415 198.42 172.139C208.656 173.426 217.493 169.803 224.84 161.467C233.548 151.53 238.879 128.641 240.251 120.693C240.293 120.458 240.427 120.25 240.622 120.114C240.817 119.978 241.058 119.926 241.292 119.968C241.526 120.011 241.734 120.145 241.869 120.341C242.005 120.537 242.057 120.778 242.015 121.013C240.643 129.191 235.133 152.44 226.15 162.697C218.439 171.544 209.06 175.347 198.196 173.97C193.252 173.287 188.468 171.727 184.067 169.364L178.171 178.689C178.731 178.958 179.392 179.413 180.299 179.868C185.32 182.386 190.716 184.067 196.275 184.845C206.467 186.221 221.413 184.879 234.433 169.949C247.312 155.294 252.61 124.091 252.795 122.816C252.815 122.7 252.859 122.589 252.923 122.49C252.986 122.391 253.069 122.305 253.166 122.237C253.262 122.17 253.371 122.123 253.486 122.098C253.601 122.073 253.72 122.071 253.836 122.092C253.952 122.113 254.062 122.156 254.161 122.22C254.26 122.284 254.346 122.367 254.413 122.464C254.48 122.561 254.527 122.67 254.552 122.786C254.577 122.901 254.579 123.02 254.558 123.136C254.329 124.501 248.959 156.114 235.743 171.179C222.225 186.648 206.624 188.131 196.051 186.659C190.281 185.741 184.69 183.921 179.481 181.267Z"
            fill="#BF4B6F" />
        <path
            d="M223.434 157.647C223.427 164.973 220.523 171.997 215.358 177.177C210.194 182.357 203.192 185.27 195.889 185.277H194.881C193.245 191.072 189.768 196.172 184.978 199.803C180.188 203.433 174.347 205.396 168.343 205.392C163.464 205.425 158.669 204.124 154.472 201.629C151.913 205.15 148.561 208.016 144.689 209.993C140.817 211.971 136.535 213.004 132.19 213.009C125.231 213.023 118.528 210.371 113.453 205.594C110.697 208.171 107.442 210.153 103.891 211.417C100.339 212.681 96.5672 213.2 92.8077 212.942C89.0483 212.684 85.3817 211.655 82.0352 209.917C78.6886 208.18 75.7334 205.772 73.3526 202.842C66.801 205.873 59.3264 206.21 52.5301 203.78C45.7339 201.351 40.1564 196.348 36.9927 189.844C36.6309 189.12 36.3257 188.369 36.0799 187.597C35.3743 187.698 34.5624 187.901 33.84 188.002C32.8264 188.103 31.712 188.204 30.5977 188.204C25.4134 188.202 20.3348 186.733 15.9455 183.966C11.5562 181.199 8.03436 177.246 5.78468 172.561C3.85695 168.525 2.92445 164.085 3.06576 159.612C3.20707 155.14 4.41805 150.767 6.59665 146.863C2.82975 142.016 0.796387 136.039 0.823199 129.894C0.839561 123.836 2.82651 117.949 6.48222 113.128C10.1379 108.306 15.2626 104.813 21.0779 103.179C20.3844 100.699 20.0487 98.1322 20.0811 95.5568C20.0885 88.2311 22.993 81.2076 28.1573 76.0275C33.3215 70.8475 40.3235 67.9341 47.6268 67.9266C51.3854 67.9354 55.104 68.6994 58.5634 70.1734C59.4092 64.8014 61.8142 59.7983 65.4781 55.7893C69.1421 51.7803 73.9024 48.943 79.1645 47.6318C84.4266 46.3206 89.9572 46.5937 95.0655 48.417C100.174 50.2402 104.633 53.5328 107.887 57.8834C112.647 49.6545 122.167 44.1723 132.291 44.1723C139.176 44.1733 145.811 46.7598 150.889 51.4224C155.968 56.085 159.122 62.4859 159.73 69.3646C163.87 67.9738 168.28 67.5907 172.596 68.247C176.913 68.9032 181.012 70.58 184.554 73.1388C188.097 75.6976 190.982 79.065 192.972 82.963C194.961 86.861 195.997 91.1777 195.995 95.5568V96.2645C198.061 96.7472 200.065 97.4632 201.97 98.399C206.628 100.662 210.553 104.199 213.295 108.603C216.036 113.006 217.482 118.097 217.465 123.288C217.492 127.981 216.305 132.6 214.021 136.696C216.98 139.32 219.349 142.545 220.972 146.157C222.595 149.769 223.434 153.686 223.434 157.647Z"
            fill="#FC9DB8" />
        <path
            d="M210.678 144.846C210.671 152.172 207.766 159.195 202.602 164.375C197.438 169.555 190.436 172.469 183.132 172.476H182.119C180.485 178.271 177.009 183.371 172.22 187.002C167.43 190.633 161.59 192.595 155.587 192.591C150.707 192.627 145.909 191.327 141.71 188.833C139.151 192.353 135.8 195.218 131.929 197.194C128.058 199.17 123.777 200.203 119.434 200.207C112.476 200.222 105.775 197.57 100.702 192.793C97.9457 195.37 94.691 197.353 91.1398 198.617C87.5886 199.882 83.8164 200.401 80.0567 200.144C76.2971 199.887 72.63 198.859 69.2826 197.123C65.9352 195.387 62.9787 192.98 60.5961 190.052C56.9758 191.727 53.036 192.593 49.0492 192.591C44.8792 192.585 40.7628 191.649 36.9983 189.85C35.8847 189.3 34.8022 188.688 33.756 188.019C28.9878 184.865 25.3377 180.277 23.329 174.914C21.333 175.339 19.2918 175.51 17.2532 175.425C13.2901 175.309 9.39358 174.374 5.80706 172.678C3.87933 168.643 2.94683 164.202 3.08815 159.73C3.22946 155.258 4.44044 150.885 6.61904 146.981C2.85293 142.135 0.819593 136.161 0.845583 130.017C0.860727 123.959 2.84711 118.071 6.50292 113.248C10.1587 108.425 15.2841 104.931 21.1003 103.297C20.4016 100.82 20.0603 98.2548 20.0867 95.6803C20.0897 88.3527 22.9914 81.3257 28.1549 76.1422C33.3184 70.9587 40.3216 68.0423 47.6268 68.0334C51.3856 68.0396 55.1048 68.8036 58.5633 70.2802C59.4059 64.9061 61.8091 59.9004 65.4725 55.8889C69.1358 51.8774 73.8968 49.0381 79.1602 47.726C84.4236 46.414 89.9558 46.6873 95.0652 48.5119C100.175 50.3365 104.634 53.6313 107.887 57.9845H108.492C111.434 52.9111 115.91 48.9091 121.272 46.5584C126.634 44.2077 132.603 43.6303 138.313 44.91C144.024 46.1897 149.18 49.26 153.035 53.6759C156.89 58.0919 159.243 63.6242 159.753 69.4713C163.893 68.0851 168.303 67.706 172.619 68.3653C176.934 69.0246 181.031 70.7034 184.573 73.2632C188.114 75.823 190.998 79.1906 192.987 83.0882C194.976 86.9858 196.013 91.3018 196.012 95.6803V96.3881C198.078 96.8707 200.082 97.5868 201.987 98.5225C203.781 102.299 204.714 106.428 204.72 110.61C204.746 115.305 203.56 119.926 201.276 124.024C204.245 126.611 206.622 129.811 208.244 133.405C209.867 136.998 210.697 140.901 210.678 144.846Z"
            fill="#FFA6BD" />
        <path
            d="M195.889 95.6804C186.677 65.8147 157.608 74.1447 157.608 74.1447C156.332 69.1784 153.751 64.6462 150.136 61.0197C146.521 57.3932 142.002 54.805 137.051 53.5246C119.736 48.8512 108.794 63.9835 108.794 63.9835C105.589 60.9132 101.752 58.5855 97.5528 57.1647C93.3536 55.7438 88.8948 55.2644 84.4907 55.7602C69.2983 57.3835 63.2113 77.1049 63.2113 77.1049C63.2113 77.1049 50.3316 72.6112 35.7719 80.256C21.2907 87.8727 24.7346 108.6 24.7346 108.6C-4.32306 123.816 6.20468 146.571 6.31668 146.88C2.54744 142.034 0.513797 136.057 0.543223 129.91C0.559585 123.853 2.54653 117.966 6.20225 113.145C9.85796 108.323 14.9827 104.83 20.7979 103.196C20.0877 100.713 19.7369 98.1401 19.7563 95.5568C19.7638 88.2311 22.6683 81.2076 27.8325 76.0275C32.9967 70.8475 39.9988 67.9341 47.3021 67.9266C51.0608 67.9333 54.7799 68.6974 58.2386 70.1735C59.0811 64.7994 61.4843 59.7937 65.1477 55.7822C68.8111 51.7707 73.5721 48.9314 78.8355 47.6193C84.0989 46.3072 89.6311 46.5806 94.7404 48.4052C99.8498 50.2297 104.31 53.5246 107.562 57.8778H108.167C111.112 52.8117 115.587 48.8167 120.946 46.4706C126.304 44.1246 132.268 43.5491 137.973 44.8275C143.679 46.1059 148.832 49.1719 152.686 53.5819C156.54 57.992 158.895 63.5174 159.411 69.359C162.23 68.4185 165.182 67.9423 168.153 67.9491C183.535 68.0334 195.889 80.4414 195.889 95.6804Z"
            fill="#FFB8CC" />
        <path
            d="M120.442 199.191C120.352 199.12 120.278 199.031 120.224 198.93C120.17 198.829 120.137 198.718 120.128 198.603C120.118 198.489 120.132 198.374 120.169 198.265C120.206 198.157 120.264 198.057 120.341 197.972C125.202 191.979 120.341 182.531 120.24 182.43C120.14 182.248 120.105 182.037 120.142 181.832C120.179 181.627 120.285 181.442 120.442 181.306C128.142 175.42 132.392 168.915 133.322 162.006C134.335 153.474 129.474 147.278 129.474 147.177C129.398 147.092 129.34 146.992 129.304 146.883C129.268 146.775 129.254 146.66 129.264 146.546C129.273 146.432 129.305 146.321 129.359 146.22C129.413 146.119 129.486 146.03 129.575 145.958C140.008 135.089 129.978 122.086 129.474 121.479C129.341 121.299 129.277 121.075 129.296 120.851C129.314 120.627 129.414 120.417 129.575 120.26C129.755 120.124 129.978 120.059 130.202 120.078C130.426 120.096 130.636 120.197 130.79 120.362C130.891 120.463 141.828 134.685 131.194 146.571C134.237 151.103 135.565 156.577 134.94 162.006C134.033 169.218 129.777 175.925 121.976 182.02C123.096 184.457 126.456 192.889 121.573 198.871C121.465 199.063 121.285 199.204 121.073 199.264C120.861 199.324 120.634 199.298 120.442 199.191Z"
            fill="#ED7E97" />
        <path
            d="M132.19 213.851C125.283 213.866 118.611 211.331 113.448 206.729C110.627 209.225 107.339 211.133 103.775 212.342C100.212 213.551 96.4447 214.037 92.6923 213.772C88.94 213.506 85.2778 212.494 81.9191 210.795C78.5604 209.096 75.5722 206.744 73.1286 203.875C69.5618 205.434 65.7128 206.237 61.8225 206.235C56.4973 206.212 51.2839 204.701 46.7674 201.871C42.2509 199.041 38.61 195.005 36.2535 190.215C36.1527 189.984 36.0631 189.788 35.9679 189.586C35.8223 189.271 35.6599 188.934 35.5255 188.569L35.1559 188.642C34.7583 188.721 34.3608 188.799 33.9912 188.85C32.8755 188.978 31.7541 189.049 30.6312 189.063C25.2841 189.084 20.0412 187.58 15.5141 184.725C10.9869 181.871 7.36209 177.785 5.06228 172.942C3.11417 168.872 2.14967 164.398 2.24696 159.883C2.34425 155.369 3.5006 150.941 5.62227 146.958C1.94685 142.043 -0.0202707 136.054 0.0224086 129.91C0.035716 123.812 1.98883 117.877 5.59754 112.969C9.20624 108.062 14.2822 104.437 20.0867 102.623C19.0575 98.4171 18.9913 94.0321 19.8929 89.797C20.7945 85.5618 22.6406 81.5864 25.2926 78.169C27.9447 74.7517 31.3338 71.9811 35.2057 70.0652C39.0777 68.1493 43.3319 67.1378 47.6492 67.1066C51.1664 67.114 54.6533 67.7591 57.9418 69.0107C58.9765 63.7009 61.4964 58.796 65.2069 54.8693C68.9175 50.9425 73.6654 48.156 78.8961 46.8354C84.1268 45.5147 89.6241 45.7144 94.7458 47.4112C99.8675 49.1079 104.402 52.2317 107.82 56.4174C112.938 48.43 122.419 43.3185 132.314 43.3185C139.22 43.3534 145.88 45.8976 151.06 50.48C156.24 55.0623 159.589 61.3722 160.486 68.2412C164.716 66.996 169.177 66.7572 173.515 67.5436C177.853 68.33 181.949 70.12 185.476 72.7715C189.004 75.4229 191.867 78.8629 193.838 82.8181C195.809 86.7734 196.833 91.135 196.829 95.5568V95.6129C202.963 97.1833 208.402 100.755 212.29 105.766C216.178 110.778 218.294 116.944 218.305 123.294C218.324 127.914 217.215 132.47 215.074 136.561C219.287 140.448 222.235 145.519 223.532 151.112C224.828 156.705 224.414 162.561 222.342 167.914C220.27 173.267 216.638 177.869 211.919 181.12C207.2 184.371 201.613 186.119 195.889 186.137H195.508C193.704 191.95 190.096 197.034 185.209 200.645C180.322 204.256 174.413 206.207 168.343 206.212C163.578 206.241 158.885 205.044 154.713 202.735C152.048 206.183 148.634 208.976 144.732 210.903C140.829 212.829 136.54 213.837 132.19 213.851ZM113.453 204.752C113.661 204.754 113.861 204.834 114.013 204.976C118.932 209.607 125.428 212.179 132.174 212.166C136.384 212.153 140.534 211.151 144.288 209.239C148.043 207.327 151.299 204.559 153.795 201.157C153.918 200.984 154.102 200.864 154.31 200.822C154.518 200.78 154.734 200.82 154.915 200.932C158.983 203.345 163.628 204.603 168.354 204.572C174.172 204.564 179.829 202.657 184.47 199.138C189.111 195.62 192.484 190.681 194.08 185.07C194.13 184.893 194.237 184.737 194.383 184.626C194.53 184.516 194.709 184.456 194.892 184.457H195.9C201.341 184.439 206.648 182.759 211.115 179.641C215.581 176.523 218.995 172.114 220.903 167.003C222.81 161.891 223.121 156.317 221.794 151.024C220.467 145.731 217.564 140.968 213.472 137.37C213.329 137.242 213.233 137.068 213.201 136.878C213.17 136.688 213.204 136.493 213.299 136.325C215.054 133.138 216.145 129.626 216.505 126.003C216.865 122.38 216.487 118.721 215.394 115.249C214.301 111.777 212.516 108.564 210.146 105.805C207.777 103.047 204.873 100.8 201.612 99.2022C199.763 98.291 197.817 97.5956 195.81 97.1295C195.626 97.0863 195.462 96.9815 195.345 96.8325C195.228 96.6835 195.165 96.4991 195.166 96.3094V95.5568C195.167 91.312 194.162 87.1278 192.234 83.3491C190.306 79.5704 187.511 76.3056 184.078 73.8237C180.645 71.3418 176.672 69.714 172.489 69.0744C168.305 68.4349 164.03 68.8019 160.016 70.1454C159.895 70.1889 159.765 70.2038 159.637 70.189C159.509 70.1742 159.386 70.1301 159.278 70.06C159.17 69.99 159.079 69.8959 159.013 69.7851C158.946 69.6742 158.907 69.5496 158.896 69.4208C158.268 62.7709 155.201 56.5917 150.29 52.0806C145.378 47.5694 138.973 45.0475 132.314 45.0036C122.603 45.0036 113.308 50.2218 108.637 58.2991C108.567 58.4187 108.468 58.5192 108.35 58.5917C108.232 58.6642 108.098 58.7064 107.96 58.7147C107.821 58.7231 107.683 58.6972 107.557 58.6394C107.431 58.5816 107.321 58.4937 107.237 58.3833C104.085 54.1618 99.7623 50.9661 94.8091 49.196C89.8559 47.426 84.4923 47.16 79.3892 48.4314C74.2861 49.7029 69.67 52.4553 66.1182 56.3444C62.5664 60.2335 60.2366 65.0867 59.4201 70.297C59.3989 70.4236 59.3496 70.5438 59.2759 70.6488C59.2023 70.7537 59.1061 70.8408 58.9945 70.9037C58.8831 70.9651 58.7592 71.0006 58.6322 71.0074C58.5052 71.0142 58.3783 70.9922 58.261 70.943C54.9032 69.5178 51.2952 68.7807 47.6492 68.7748C40.5662 68.7778 33.7738 71.5995 28.7627 76.6206C23.7517 81.6418 20.9315 88.4521 20.9211 95.5568C20.8924 98.0515 21.2225 100.537 21.9011 102.938C21.9641 103.151 21.9406 103.381 21.8358 103.578C21.731 103.774 21.5533 103.922 21.3411 103.988C15.7019 105.57 10.732 108.956 7.18722 113.631C3.64238 118.306 1.71649 124.014 1.70237 129.888C1.66494 135.847 3.63856 141.644 7.30223 146.335C7.40367 146.465 7.46465 146.622 7.4776 146.787C7.49054 146.952 7.45487 147.117 7.37502 147.261C5.26123 151.05 4.08659 155.293 3.95015 159.632C3.81371 163.972 4.71946 168.281 6.59104 172.195C8.75714 176.754 12.1713 180.601 16.435 183.286C20.6987 185.971 25.636 187.385 30.6704 187.361C31.7568 187.361 32.8712 187.26 33.8288 187.165C34.1312 187.12 34.5007 187.047 34.8647 186.974C35.2287 186.901 35.6543 186.817 36.0183 186.76C36.2238 186.733 36.4322 186.782 36.6044 186.898C36.7766 187.013 36.9007 187.188 36.9535 187.389C37.0905 187.896 37.2781 188.387 37.5135 188.855C37.6143 189.069 37.7151 189.282 37.8047 189.501C40.8797 195.795 46.287 200.633 52.8709 202.981C59.4548 205.329 66.6931 205.001 73.039 202.067C73.2082 201.99 73.3978 201.971 73.5788 202.013C73.7597 202.054 73.9222 202.154 74.0414 202.297C76.3504 205.138 79.2165 207.473 82.4621 209.157C85.7077 210.841 89.2636 211.839 92.9094 212.088C96.5552 212.337 100.213 211.832 103.656 210.605C107.1 209.378 110.255 207.455 112.927 204.954C113.074 204.828 113.26 204.757 113.453 204.752Z"
            fill="#BF4B6F" />
        <path
            d="M70.0095 119.249C65.5296 130.321 69.5055 142.307 78.7173 145.964C87.929 149.621 98.972 143.627 103.357 132.556C107.837 121.479 103.861 109.493 94.6489 105.836C85.4371 102.179 74.467 108.173 70.0095 119.249Z"
            fill="white" />
        <path
            d="M84.3899 147.891C82.348 147.87 80.3255 147.49 78.4149 146.767C68.7943 142.903 64.6448 130.41 69.1975 118.828C71.251 113.442 75.1233 108.95 80.1396 106.134C85.0003 103.488 90.2642 103.084 95.0241 104.915C104.645 108.774 108.8 121.266 104.241 132.848C102.188 138.234 98.3186 142.728 93.3049 145.548C90.5619 147.031 87.5052 147.834 84.3899 147.891ZM88.9482 105.634C86.1458 105.67 83.3961 106.403 80.946 107.768C76.298 110.389 72.7148 114.564 70.8215 119.564C66.5656 130.13 70.3119 141.605 79.0253 145.161C83.1748 146.891 87.9346 146.481 92.3921 144.037C97.0395 141.415 100.622 137.241 102.517 132.242C106.773 121.676 103.026 110.195 94.3129 106.639C92.6077 105.954 90.7849 105.613 88.9482 105.634Z"
            fill="#BF4B6F" />
        <path
            d="M97.3167 130.435C98.342 123.042 94.008 116.328 87.6365 115.439C81.265 114.55 75.2688 119.822 74.2434 127.215C73.2181 134.608 77.5521 141.321 83.9236 142.21C90.2951 143.1 96.2914 137.827 97.3167 130.435Z"
            fill="#22213F" />
        <path
            d="M86.0083 123.715C85.3027 125.445 83.1748 126.254 81.1476 125.445C79.1205 124.636 78.1125 122.597 78.8181 120.873C79.5236 119.148 81.6572 118.334 83.6787 119.148C85.6051 119.957 86.6187 121.99 86.0083 123.715Z"
            fill="white" />
        <path
            d="M176.849 117.62C181.508 128.59 177.863 140.684 168.752 144.543C159.641 148.402 148.497 142.74 143.838 131.742C139.179 120.743 142.824 108.684 151.941 104.825C160.951 100.859 172.196 106.65 176.849 117.62Z"
            fill="white" />
        <path
            d="M162.777 146.571C154.875 146.571 146.772 140.987 143.026 132.045C138.165 120.67 142.012 108.071 151.532 103.909C161.052 99.8426 172.812 105.735 177.661 117.216C182.522 128.59 178.675 141.189 169.155 145.352C167.122 146.147 164.959 146.56 162.777 146.571ZM157.916 104.443C155.972 104.463 154.049 104.844 152.243 105.566C143.636 109.223 140.193 120.805 144.644 131.27C149.096 141.734 159.764 147.318 168.444 143.56C177.051 139.903 180.495 128.321 176.043 117.856C172.498 109.599 165.106 104.415 157.916 104.415V104.443Z"
            fill="#BF4B6F" />
        <path
            d="M159.916 140.217C166.265 139.182 170.445 132.371 169.252 125.004C168.058 117.636 161.943 112.503 155.594 113.538C149.244 114.573 145.064 121.384 146.258 128.752C147.451 136.119 153.566 141.252 159.916 140.217Z"
            fill="#22213F" />
        <path
            d="M149.511 119.957C148.8 121.687 149.914 123.715 151.835 124.529C153.862 125.344 155.99 124.529 156.701 122.805C157.412 121.081 156.292 119.042 154.371 118.233C152.344 117.418 150.233 118.233 149.511 119.957Z"
            fill="white" />
        <path
            d="M145.053 83.6936C150.927 85.727 156.494 85.2158 157.406 82.5702C158.319 79.8291 154.371 75.9646 148.497 73.9368C142.623 71.9091 137.051 72.409 136.138 75.0603C135.225 77.7115 139.179 81.5592 145.053 83.6936Z"
            fill="#ED7E97" />
        <path
            d="M151.941 85.8281C149.523 85.7641 147.131 85.3186 144.852 84.5081C142.12 83.609 139.602 82.1559 137.454 80.2391C135.533 78.3069 134.721 76.3803 135.332 74.7513C135.942 73.1224 137.762 72.0102 140.372 71.808C143.225 71.6482 146.081 72.0627 148.772 73.0269C151.501 73.9239 154.017 75.3752 156.163 77.2902C158.09 79.2225 158.896 81.1547 158.291 82.778C157.687 84.4014 155.861 85.5191 153.251 85.727C152.82 85.8102 152.38 85.8441 151.941 85.8281ZM141.71 73.4313C141.334 73.4094 140.956 73.4435 140.59 73.5324C138.669 73.7403 137.348 74.3469 137.045 75.2625C136.743 76.178 137.348 77.5093 138.77 78.9192C140.702 80.6622 142.978 81.9771 145.451 82.778C148.184 83.6936 150.922 84.1991 153.151 83.9969C155.071 83.7947 156.387 83.1825 156.695 82.2725C157.003 81.3626 156.387 80.0257 154.971 78.6158C151.234 75.476 146.573 73.6545 141.704 73.4313H141.71Z"
            fill="#BF4B6F" />
        <path
            d="M101.71 88.5692C107.478 86.1314 111.23 81.9636 110.11 79.3236C108.99 76.6836 103.424 76.4814 97.6504 78.9191C91.8769 81.3569 88.1306 85.5191 89.2506 88.1648C90.3706 90.8104 95.9144 91.007 101.71 88.5692Z"
            fill="#ED7E97" />
        <path
            d="M94.1112 91.2092H93.7081C90.9753 91.1081 89.1498 90.1925 88.4386 88.5692C87.7274 86.9459 88.4386 84.9125 90.2641 82.8791C92.2712 80.8112 94.6856 79.1851 97.3536 78.1047C103.631 75.4647 109.606 75.768 110.922 79.0202C112.238 82.1714 108.391 86.738 102.013 89.3837C99.529 90.5219 96.841 91.1429 94.1112 91.2092ZM105.149 78.1047C100.032 78.3485 95.1768 80.4415 91.4793 83.9969C90.1633 85.418 89.6594 86.8448 90.0625 87.7547C90.4657 88.6647 91.7817 89.2825 93.7081 89.2825C96.3261 89.2893 98.9152 88.7339 101.301 87.6536C106.974 85.2158 110.015 81.4749 109.203 79.6325C108.794 78.7057 107.377 78.1047 105.149 78.1047Z"
            fill="#BF4B6F" />
        <path
            d="M75.6821 71.5047C75.587 71.5176 75.4902 71.5058 75.401 71.4704C75.3117 71.435 75.2331 71.3772 75.1725 71.3025C75.0767 71.238 74.995 71.1546 74.9325 71.0573C74.87 70.96 74.828 70.8509 74.8091 70.7367C74.7902 70.6225 74.7949 70.5057 74.8227 70.3934C74.8505 70.281 74.901 70.1756 74.9709 70.0836C75.0717 69.9768 82.0604 59.9224 93.7081 64.8991C93.9198 65.0049 94.0837 65.1872 94.1667 65.4093C94.2497 65.6315 94.2458 65.8769 94.1556 66.0963C94.0655 66.3156 93.8958 66.4925 93.6808 66.5914C93.4658 66.6903 93.2214 66.7037 92.9969 66.6291C82.6707 62.2591 76.6957 70.7913 76.3877 71.1957C76.1963 71.3791 75.9463 71.4886 75.6821 71.5047Z"
            fill="#ED7E97" />
        <path
            d="M84.5915 186.395C82.5643 186.395 76.4885 185.783 74.2598 178.874C74.2267 178.76 74.2162 178.641 74.229 178.524C74.2417 178.406 74.2775 178.292 74.3342 178.188C74.3908 178.085 74.4673 177.993 74.5593 177.919C74.6513 177.845 74.7569 177.789 74.8701 177.756C74.9834 177.723 75.102 177.713 75.2193 177.725C75.3366 177.738 75.4503 177.774 75.5537 177.831C75.6572 177.888 75.7485 177.964 75.8224 178.057C75.8963 178.149 75.9514 178.255 75.9845 178.368C76.5235 180.296 77.7219 181.972 79.3695 183.101C81.017 184.231 83.0085 184.743 84.9947 184.547C85.1152 184.533 85.2375 184.542 85.3543 184.575C85.4712 184.608 85.5804 184.664 85.6755 184.74C85.7707 184.815 85.8499 184.909 85.9087 185.016C85.9675 185.122 86.0046 185.24 86.0179 185.361C86.0313 185.482 86.0205 185.604 85.9864 185.721C85.9522 185.838 85.8952 185.947 85.8188 186.041C85.7424 186.136 85.648 186.215 85.5412 186.272C85.4343 186.33 85.3171 186.366 85.1963 186.378C85.2019 186.294 85.0003 186.395 84.5915 186.395Z"
            fill="#ED7E97" />
        <path
            d="M147.584 195.433C146.195 195.431 144.819 195.154 143.536 194.619C143.429 194.579 143.332 194.518 143.249 194.441C143.166 194.363 143.099 194.27 143.052 194.166C143.005 194.063 142.979 193.951 142.975 193.837C142.971 193.724 142.989 193.61 143.029 193.504C143.069 193.397 143.129 193.299 143.206 193.216C143.284 193.133 143.376 193.066 143.48 193.018C143.583 192.971 143.694 192.945 143.808 192.941C143.921 192.937 144.034 192.955 144.14 192.995C150.827 195.534 154.472 189.951 154.573 189.743C154.633 189.643 154.712 189.556 154.805 189.487C154.899 189.417 155.005 189.367 155.118 189.339C155.231 189.311 155.348 189.305 155.463 189.322C155.578 189.34 155.688 189.38 155.788 189.44C155.888 189.5 155.975 189.579 156.044 189.673C156.113 189.767 156.163 189.873 156.191 189.986C156.219 190.099 156.225 190.217 156.207 190.332C156.19 190.448 156.15 190.559 156.091 190.659C156.191 190.659 153.156 195.433 147.584 195.433Z"
            fill="#ED7E97" />
        <path
            d="M53.6019 156.631C53.5472 156.637 53.4916 156.632 53.4393 156.614C53.387 156.597 53.3392 156.568 53.2995 156.53C53.1987 156.53 45.4989 153.479 46.8205 144.947C46.8359 144.83 46.8748 144.717 46.9349 144.615C46.9949 144.514 47.0749 144.425 47.1699 144.355C47.265 144.285 47.3732 144.235 47.488 144.209C47.6028 144.182 47.7218 144.178 47.8379 144.199C47.954 144.219 48.0647 144.263 48.1635 144.328C48.2622 144.392 48.3469 144.476 48.4125 144.574C48.4781 144.673 48.5231 144.783 48.545 144.899C48.5668 145.016 48.565 145.135 48.5396 145.251C47.4196 152.362 53.5795 154.799 53.8035 154.901C53.9151 154.934 54.0182 154.991 54.106 155.068C54.1937 155.145 54.2641 155.24 54.3123 155.346C54.3606 155.453 54.3856 155.568 54.3858 155.685C54.3859 155.802 54.3611 155.918 54.3131 156.024C54.296 156.198 54.2123 156.358 54.0797 156.471C53.947 156.585 53.7757 156.642 53.6019 156.631Z"
            fill="#ED7E97" />
        <path
            d="M175.029 163.028C174.803 163.034 174.582 162.953 174.413 162.801C174.244 162.65 174.138 162.44 174.116 162.214C174.105 162.1 174.117 161.984 174.152 161.875C174.188 161.765 174.246 161.665 174.322 161.579C174.398 161.493 174.492 161.425 174.596 161.377C174.701 161.33 174.814 161.305 174.928 161.304C182.119 160.894 183.031 154.294 183.132 154.002C183.159 153.76 183.281 153.538 183.47 153.386C183.66 153.234 183.902 153.163 184.143 153.19C184.384 153.217 184.605 153.339 184.757 153.529C184.909 153.719 184.979 153.962 184.952 154.204C184.851 154.305 183.636 162.534 175.029 163.04V163.028Z"
            fill="#ED7E97" />
        <path
            d="M37.4015 113.66C37.2814 113.661 37.1624 113.638 37.0513 113.592C36.9402 113.547 36.8393 113.479 36.7544 113.394C36.6695 113.309 36.6023 113.208 36.5567 113.096C36.5111 112.985 36.488 112.865 36.4887 112.745C36.1863 100.949 45.1965 98.1406 47.7276 97.5059C48.6404 93.2426 50.5667 89.9903 53.4003 88.0637C57.9586 85.0136 63.1216 86.1314 63.424 86.1314C63.5409 86.1469 63.6534 86.1859 63.7548 86.2462C63.8563 86.3064 63.9445 86.3866 64.0142 86.482C64.0839 86.5773 64.1336 86.6858 64.1604 86.8009C64.1872 86.9161 64.1905 87.0355 64.1701 87.1519C64.1497 87.2684 64.106 87.3795 64.0416 87.4785C63.9773 87.5776 63.8936 87.6626 63.7956 87.7283C63.6977 87.7941 63.5875 87.8393 63.4716 87.8612C63.3558 87.8831 63.2367 87.8813 63.1216 87.8558C63.0208 87.8558 58.3618 86.9459 54.5146 89.4848C51.8827 91.2092 50.2588 94.2592 49.4748 98.3203C49.4405 98.5142 49.3414 98.6905 49.1938 98.8202C49.0462 98.9499 48.8589 99.0252 48.6628 99.0337C48.2596 99.1348 38.0231 100.556 38.331 112.543C38.331 113.256 37.9279 113.666 37.4239 113.666L37.4015 113.66Z"
            fill="#ED7E97" />
        <path
            d="M200.145 118.536H199.842C199.726 118.506 199.618 118.452 199.524 118.379C199.43 118.305 199.351 118.212 199.294 118.107C199.237 118.002 199.202 117.886 199.191 117.766C199.18 117.647 199.194 117.526 199.232 117.413C199.232 117.413 200.649 112.739 198.319 108.678C196.802 105.931 193.968 104.005 190.015 102.887C189.83 102.836 189.665 102.731 189.54 102.586C189.414 102.441 189.334 102.263 189.309 102.073C189.309 101.668 188.699 91.3047 176.849 90.5969C176.736 90.5903 176.625 90.5613 176.523 90.5117C176.421 90.4621 176.33 90.3929 176.254 90.3078C176.179 90.2228 176.121 90.1237 176.084 90.0162C176.046 89.9088 176.031 89.795 176.037 89.6814C176.044 89.5678 176.073 89.4566 176.122 89.3542C176.172 89.2518 176.241 89.1601 176.325 89.0845C176.41 89.0089 176.509 88.9507 176.616 88.9134C176.723 88.8761 176.837 88.8603 176.95 88.8669C188.71 89.5803 190.726 98.8203 191.028 101.466C195.183 102.685 198.218 104.92 199.943 107.965C202.575 112.739 201.063 117.918 200.957 118.126C200.863 118.254 200.741 118.357 200.6 118.429C200.459 118.5 200.303 118.537 200.145 118.536Z"
            fill="#ED7E97" />
        <path
            d="M87.9346 198.382C87.46 198.402 86.9847 198.368 86.5178 198.281C82.8723 197.669 80.442 195.029 79.5292 193.911C67.7695 196.551 63.6312 184.969 63.6312 184.867C63.5915 184.761 63.5731 184.647 63.5771 184.534C63.581 184.42 63.6073 184.308 63.6544 184.205C63.7014 184.101 63.7684 184.008 63.8513 183.93C63.9343 183.853 64.0317 183.792 64.138 183.752C64.2442 183.713 64.3573 183.694 64.4707 183.698C64.584 183.702 64.6955 183.728 64.7987 183.776C64.902 183.823 64.9949 183.89 65.0722 183.973C65.1496 184.056 65.2098 184.154 65.2496 184.261C65.3504 184.665 69.0967 194.826 79.63 191.979C79.8205 191.936 80.0194 191.952 80.2004 192.025C80.3814 192.099 80.5359 192.225 80.6436 192.389C80.6436 192.389 82.8835 195.843 86.8034 196.45C89.4354 196.854 92.4033 195.843 95.3096 193.299C95.4849 193.15 95.7119 193.077 95.9409 193.096C96.1698 193.114 96.3819 193.224 96.5304 193.4C96.6789 193.575 96.7517 193.803 96.7328 194.033C96.7139 194.263 96.6048 194.475 96.4296 194.624C93.6073 197.163 90.7681 198.382 87.9346 198.382Z"
            fill="#ED7E97" />
        <path
            d="M169.357 195.332C167.133 195.315 164.921 195.007 162.777 194.416C162.662 194.385 162.554 194.331 162.459 194.258C162.365 194.184 162.287 194.093 162.228 193.988C162.17 193.884 162.133 193.769 162.119 193.65C162.106 193.531 162.116 193.411 162.15 193.296C162.183 193.181 162.239 193.074 162.315 192.981C162.39 192.888 162.483 192.811 162.589 192.755C162.694 192.699 162.809 192.664 162.928 192.653C163.047 192.643 163.167 192.656 163.281 192.692C163.891 192.894 177.359 197.062 181.508 185.39C181.598 185.187 181.761 185.026 181.965 184.939C182.169 184.853 182.398 184.848 182.605 184.925C182.813 185.003 182.983 185.157 183.081 185.356C183.179 185.555 183.197 185.784 183.132 185.996C180.5 193.709 174.217 195.332 169.357 195.332Z"
            fill="#ED7E97" />
        <path
            d="M197.21 135.095H197.003C196.888 135.064 196.78 135.01 196.686 134.936C196.593 134.862 196.515 134.77 196.459 134.664C196.402 134.559 196.367 134.443 196.357 134.324C196.347 134.205 196.361 134.085 196.398 133.972C196.6 133.359 200.346 119.648 188.598 115.89C188.384 115.81 188.209 115.652 188.108 115.447C188.006 115.242 187.986 115.007 188.05 114.788C188.115 114.568 188.26 114.382 188.456 114.265C188.652 114.149 188.885 114.112 189.107 114.16C202.474 118.53 198.118 134.275 198.118 134.477C198.047 134.66 197.922 134.818 197.76 134.928C197.598 135.039 197.406 135.097 197.21 135.095Z"
            fill="#ED7E97" />
        <path
            d="M44.6925 192.389C10.3598 205.493 -8.67977 188.524 12.2133 152.772C20.3107 140.274 23.553 129.001 32.6696 137.044C35.5031 142.229 33.1736 143.549 29.6289 148.93C24.1634 156.232 14.5429 175.139 16.4636 181.031C19.4035 186.923 32.468 182.761 39.3502 180.829C46.2101 178.166 51.0707 188.732 44.6925 192.389Z"
            fill="#ED7E97" />
        <path
            d="M51.3732 173.796C51.1972 174.173 50.9586 174.517 50.6676 174.813L49.7548 175.42C49.1444 175.729 48.5396 175.931 48.0356 176.234C47.4591 176.591 46.9156 176.999 46.4117 177.453C45.7337 178.148 45.1551 178.935 44.6925 179.79C44.3074 180.581 44.0991 181.448 44.0821 182.329L41.8422 182.43L37.6927 182.531C37.7223 181.116 37.96 179.713 38.3983 178.369C39.4118 175.42 41.7582 171.662 47.3133 169.325C47.9241 169.077 48.5962 169.023 49.2385 169.171C49.8807 169.319 50.4622 169.661 50.904 170.152C51.3459 170.642 51.6268 171.257 51.7087 171.913C51.7906 172.569 51.6696 173.234 51.3619 173.819L51.3732 173.796Z"
            fill="#ED7E97" />
        <path
            d="M55.5282 177.756C55.5091 178.236 55.3805 178.706 55.1524 179.128C54.9243 179.551 54.6027 179.916 54.2122 180.194C53.9999 180.37 53.7595 180.509 53.5011 180.604C53.1987 180.705 52.8963 180.907 52.5883 181.009C51.9232 181.339 51.2814 181.714 50.6675 182.132C48.2372 183.856 47.3076 185.89 47.2236 186.294L43.2757 185.07L41.0358 184.362C41.2544 183.73 41.5241 183.118 41.8421 182.531C42.3608 181.591 42.9724 180.707 43.6677 179.891C43.8693 179.587 44.1717 179.385 44.3733 179.076C45.6138 177.82 47.0103 176.729 48.5284 175.83C49.1332 175.521 49.8443 175.116 50.5555 174.813C50.7571 174.712 50.8579 174.712 51.0595 174.611C51.8529 174.315 52.7296 174.341 53.5048 174.681C54.2799 175.022 54.893 175.651 55.2146 176.436C55.4133 176.848 55.5203 177.299 55.5282 177.756Z"
            fill="#ED7E97" />
        <path
            d="M56.7434 185.682C56.5418 185.884 56.3402 185.985 56.133 186.187C55.6768 186.48 55.1555 186.656 54.6155 186.699C49.654 187.002 46.2157 191.192 46.1093 191.271C45.8497 191.598 45.5285 191.87 45.164 192.072C44.7995 192.274 44.3988 192.403 43.9849 192.45C43.571 192.497 43.1519 192.461 42.7516 192.346C42.3513 192.23 41.9776 192.037 41.6518 191.776C41.326 191.516 41.0546 191.194 40.8529 190.828C40.6513 190.463 40.5234 190.061 40.4766 189.645C40.4298 189.23 40.465 188.81 40.5802 188.408C40.6953 188.007 40.8882 187.632 41.1478 187.305C41.2486 187.204 41.9598 186.395 43.175 185.277C44.4011 184.163 45.7612 183.206 47.2237 182.43C49.3697 181.231 51.7595 180.537 54.2123 180.402H54.3131C54.7207 180.385 55.1289 180.419 55.5282 180.503C56.1382 180.704 56.6758 181.081 57.074 181.586C57.4723 182.092 57.7137 182.703 57.7682 183.345C57.6859 184.214 57.3265 185.034 56.7434 185.682Z"
            fill="#ED7E97" />
        <path
            d="M129.861 105.937C129.64 105.857 129.457 105.698 129.345 105.491C129.234 105.284 129.202 105.043 129.256 104.814C134.822 87.9626 121.355 81.3457 120.744 81.0424C120.589 80.9456 120.462 80.8106 120.373 80.6504C120.285 80.4901 120.239 80.3099 120.24 80.1268C120.744 73.729 119.736 68.9546 116.998 66.0843C115.5 64.4863 113.474 63.4884 111.297 63.2757C111.08 63.2558 110.877 63.1579 110.726 63C110.575 62.8422 110.485 62.635 110.474 62.4163C110.465 62.2853 110.485 62.1539 110.532 62.0313C110.579 61.9086 110.652 61.7976 110.745 61.7058C110.839 61.614 110.951 61.5436 111.075 61.4995C111.198 61.4554 111.329 61.4386 111.46 61.4502C114.046 61.6602 116.458 62.8418 118.213 64.7586C121.153 67.9098 122.368 72.8865 121.959 79.4865C124.698 81.0143 136.239 88.7321 130.874 105.089C130.844 105.333 130.722 105.556 130.534 105.713C130.346 105.87 130.105 105.95 129.861 105.937Z"
            fill="#ED7E97" />
        <path
            d="M37.1159 194.826C35.5983 195.231 33.9799 195.534 32.1544 195.843C23.1442 197.466 15.954 196.753 11.0933 193.911C9.16044 192.792 7.50276 191.253 6.24273 189.406C4.9827 187.558 4.15251 185.451 3.81349 183.238C2.49192 175.521 5.23026 165.264 12.2133 152.766C15.2968 147.278 18.7116 141.985 22.4386 136.915C22.9423 136.245 23.5731 135.682 24.2947 135.258C25.0163 134.834 25.8145 134.557 26.6431 134.444C27.4718 134.331 28.3147 134.383 29.1231 134.598C29.9316 134.813 30.6896 135.186 31.3536 135.696C31.84 136.087 32.2813 136.532 32.6696 137.022C32.6696 137.022 27.8089 134.988 22.237 144.234C16.766 153.474 4.11028 175.925 9.17256 186.895C14.2068 197.787 36.5895 194.826 37.1159 194.826Z"
            fill="#F490AA" />
        <path
            d="M35.8783 181.924C11.5749 191.877 10.7629 184.261 15.422 169.325C20.0811 154.389 33.6552 139.555 33.6552 139.555L33.756 141.279C33.6708 142.511 33.2116 143.687 32.44 144.65C32.44 144.65 31.2248 146.273 29.3993 148.913C27.6801 151.558 25.3506 155.092 23.1218 159.074C17.9532 168.522 15.422 176.549 16.234 181.014C16.2831 181.392 16.4182 181.754 16.6289 182.072C16.8396 182.389 17.1203 182.654 17.4492 182.845C20.9939 184.867 29.5001 183.649 35.8783 181.924Z"
            fill="#E26988" />
        <path
            d="M10.6621 194.619C8.61088 193.437 6.84731 191.812 5.49914 189.862C4.15097 187.912 3.25193 185.686 2.86712 183.345C1.45036 175.42 4.28389 164.961 11.3565 152.289C14.4248 146.761 17.8401 141.435 21.5819 136.342C22.7499 134.793 24.4838 133.772 26.4019 133.505C28.3201 133.238 30.2654 133.746 31.81 134.918C33.3546 136.09 34.3719 137.829 34.6381 139.753C34.9043 141.677 34.3977 143.628 33.2296 145.178C29.8773 149.764 26.8012 154.547 24.0178 159.501C18.9779 168.747 16.4188 176.565 17.2308 180.846C17.2308 181.093 17.2961 181.336 17.4201 181.55C17.544 181.764 17.7221 181.942 17.9363 182.065C21.2963 183.997 30.4968 182.778 37.3847 180.542C37.4984 180.506 37.6182 180.493 37.7371 180.504C37.8559 180.515 37.9714 180.549 38.0768 180.606C38.1821 180.662 38.2752 180.739 38.3506 180.831C38.426 180.924 38.4821 181.031 38.5156 181.146C38.5492 181.261 38.5596 181.381 38.5461 181.5C38.5326 181.619 38.4956 181.734 38.4372 181.839C38.3788 181.943 38.3002 182.035 38.206 182.108C38.1118 182.182 38.0039 182.236 37.8887 182.267C32.6248 183.89 21.5819 186.328 16.9284 183.688C16.4766 183.449 16.0914 183.102 15.8078 182.676C15.5242 182.25 15.3512 181.76 15.3044 181.25C14.4924 176.577 17.0292 168.331 22.293 158.698C25.1073 153.674 28.2189 148.823 31.6112 144.172C32.0578 143.599 32.3867 142.943 32.5791 142.242C32.7715 141.541 32.8236 140.809 32.7322 140.088C32.6408 139.366 32.4079 138.67 32.0468 138.04C31.6857 137.409 31.2037 136.856 30.6285 136.414C30.0534 135.971 29.3965 135.647 28.6958 135.461C27.9951 135.274 27.2646 135.229 26.5463 135.327C25.828 135.425 25.1363 135.665 24.511 136.033C23.8858 136.401 23.3394 136.89 22.9034 137.471C19.2109 142.502 15.8279 147.754 12.7733 153.199C5.88545 165.59 3.15271 175.667 4.46868 183.064C4.80014 185.132 5.59139 187.098 6.78376 188.818C7.97612 190.537 9.539 191.965 11.3565 192.995C16.1164 195.736 24.5162 196.118 31.8128 194.826C35.6007 194.202 39.3274 193.249 42.9509 191.979C43.8449 191.631 44.6434 191.074 45.2805 190.355C45.3514 190.265 45.4399 190.191 45.5407 190.137C45.6414 190.082 45.7522 190.05 45.8662 190.04C45.9801 190.031 46.0948 190.045 46.2031 190.081C46.3114 190.118 46.4109 190.177 46.4956 190.254C46.5861 190.325 46.6609 190.413 46.7154 190.514C46.77 190.616 46.803 190.727 46.8125 190.841C46.822 190.956 46.8077 191.071 46.7705 191.18C46.7333 191.289 46.674 191.388 46.5964 191.473C46.1201 192.053 45.5363 192.536 44.8773 192.894C44.4909 193.197 24.1466 201.786 10.6621 194.619Z"
            fill="#BF4B6F" />
        <path
            d="M51.4739 171.257C48.8883 171.36 46.3621 172.065 44.0954 173.317C41.8286 174.568 39.8838 176.333 38.415 178.47C39.423 175.526 41.7749 171.763 47.3244 169.432C48.1169 169.135 48.9934 169.16 49.7681 169.501C50.5427 169.842 51.1545 170.472 51.4739 171.257Z"
            fill="#F490AA" />
        <path
            d="M55.5282 177.756C55.3266 177.756 52.4875 175.931 44.6925 179.891C44.2837 180.093 43.8805 179.891 43.6789 179.891C43.3765 179.79 43.5781 179.486 44.3901 179.082C44.4909 178.975 45.1965 178.47 46.3109 177.554C46.8204 177.15 47.3244 176.745 47.9348 176.335C48.1364 176.234 48.338 176.032 48.5396 175.931C49.3516 175.318 50.3652 174.611 51.2723 173.998C51.0979 174.376 50.8591 174.72 50.5668 175.015C50.7684 174.914 50.8691 174.914 51.0707 174.813C51.8641 174.516 52.7413 174.541 53.5169 174.882C54.2924 175.222 54.9053 175.852 55.2258 176.638C55.4434 176.969 55.5494 177.361 55.5282 177.756Z"
            fill="#F490AA" />
        <path
            d="M56.7434 185.682C56.8442 183.042 53.3835 182.312 50.5835 182.227C49.4627 182.174 48.3393 182.208 47.2236 182.329L52.4875 181.11L55.4274 180.402C56.0374 180.603 56.575 180.98 56.9732 181.485C57.3714 181.991 57.6128 182.602 57.6674 183.244C57.6876 184.146 57.3561 185.021 56.7434 185.682Z"
            fill="#F490AA" />
        <path
            d="M37.7039 182.227H37.6031C37.3679 182.185 37.1559 182.059 37.0065 181.872C36.8572 181.685 36.7806 181.45 36.7911 181.211C37.0935 178.571 38.7175 171.971 46.9213 168.617C47.9266 168.207 49.0519 168.207 50.0572 168.617C50.5634 168.819 51.0233 169.122 51.4085 169.509C51.7936 169.895 52.096 170.356 52.2971 170.864C52.5993 171.64 52.6643 172.489 52.4838 173.302C52.3032 174.116 51.8854 174.857 51.2836 175.431C51.1996 175.509 51.1002 175.57 50.9917 175.607C50.8832 175.645 50.7681 175.66 50.6536 175.65C50.5392 175.641 50.428 175.607 50.3272 175.552C50.2264 175.497 50.1383 175.421 50.0684 175.33C49.9908 175.245 49.9315 175.145 49.8943 175.037C49.8572 174.928 49.8428 174.813 49.8523 174.698C49.8618 174.584 49.8948 174.472 49.9494 174.371C50.0039 174.27 50.0788 174.181 50.1692 174.111C50.5058 173.793 50.7428 173.383 50.8512 172.933C50.9596 172.482 50.9347 172.009 50.7796 171.572C50.6761 171.293 50.514 171.04 50.3043 170.83C50.0946 170.619 49.8423 170.457 49.5644 170.353C49.0091 170.15 48.4005 170.15 47.8452 170.353C40.4478 173.302 39.0311 179.194 38.7287 181.531C38.6752 181.754 38.5404 181.949 38.3508 182.078C38.1613 182.207 37.9305 182.26 37.7039 182.227Z"
            fill="#BF4B6F" />
        <path
            d="M42.9677 181.621C42.7796 181.618 42.5995 181.544 42.4637 181.413C42.3672 181.349 42.2849 181.266 42.2219 181.169C42.1589 181.071 42.1167 180.962 42.0978 180.848C42.0788 180.733 42.0837 180.616 42.1119 180.504C42.1402 180.391 42.1914 180.286 42.2621 180.194C44.4524 177.313 47.3971 175.098 50.7683 173.796C51.2679 173.587 51.8063 173.488 52.3472 173.506C52.8882 173.523 53.4191 173.657 53.9042 173.897C54.3945 174.104 54.8367 174.41 55.203 174.797C55.5692 175.184 55.8516 175.642 56.0322 176.144C56.6426 177.874 56.329 179.408 54.9122 180.525C54.5034 180.829 53.7922 181.121 53.5011 180.716C53.4311 180.624 53.3806 180.519 53.3528 180.407C53.325 180.294 53.3204 180.177 53.3392 180.063C53.3581 179.949 53.4001 179.84 53.4626 179.743C53.5251 179.645 53.6068 179.562 53.7026 179.498C54.0943 179.197 54.3762 178.776 54.5048 178.299C54.6333 177.821 54.6014 177.315 54.4138 176.858C54.1899 176.298 53.7582 175.848 53.2097 175.602C52.6613 175.356 52.0389 175.333 51.4739 175.538C48.3733 176.62 45.6846 178.641 43.7797 181.323C43.6708 181.424 43.5429 181.503 43.4035 181.554C43.2641 181.605 43.116 181.628 42.9677 181.621Z"
            fill="#BF4B6F" />
        <path
            d="M42.5422 192.872C42.3406 192.872 45.8069 191.877 45.6053 191.776C45.1965 191.473 44.6925 191.001 45.0005 190.698C45.0005 190.698 49.2508 185.985 54.6155 185.682C54.9767 185.69 55.3313 185.584 55.629 185.379C55.9866 185.153 56.2785 184.837 56.4752 184.462C56.6719 184.088 56.7663 183.667 56.749 183.244C56.7422 182.93 56.6658 182.621 56.5253 182.341C56.3849 182.06 56.1839 181.814 55.937 181.621C55.4891 181.227 54.9142 181.01 54.3187 181.009C51.6163 181.216 49.0066 182.088 46.7197 183.547C46.6199 183.613 46.508 183.658 46.3905 183.679C46.2731 183.7 46.1527 183.697 46.0365 183.67C45.9202 183.643 45.8106 183.593 45.7141 183.523C45.6177 183.452 45.5364 183.363 45.4752 183.261C45.414 183.158 45.3741 183.044 45.358 182.925C45.3419 182.807 45.3498 182.686 45.3813 182.571C45.4128 182.455 45.4672 182.348 45.5413 182.254C45.6154 182.16 45.7077 182.082 45.8125 182.025C48.3595 180.464 51.2368 179.525 54.2123 179.284C54.7444 179.241 55.2798 179.308 55.7847 179.482C56.2897 179.656 56.7533 179.933 57.1466 180.295C57.9667 181.026 58.4742 182.046 58.5634 183.143C58.6194 183.886 58.4697 184.63 58.1308 185.293C57.7918 185.956 57.2768 186.513 56.6426 186.901C56.0381 187.208 55.3873 187.413 54.7163 187.507C50.158 187.816 46.1261 191.894 46.1261 192.001C45.9245 192.097 42.7438 192.872 42.5422 192.872Z"
            fill="#BF4B6F" />
        <path
            d="M117.81 164.146C104.93 160.776 102.13 149.109 103.933 143.324C104.225 142.151 104.95 141.133 105.961 140.476C111 137.432 113.66 143.846 122.469 146.166C131.378 148.413 136.648 144.133 139.683 149.216C140.193 150.025 140.293 151.244 139.991 152.665C138.776 158.467 130.975 167.5 117.81 164.146Z"
            fill="#22213F" />
        <path
            d="M140.293 151.553C135.937 153.581 128.646 154.193 120.951 152.159C113.252 150.227 107.176 146.166 104.241 142.307C104.645 140.987 105.048 140.886 105.961 140.375C111 137.331 113.655 143.745 122.469 146.065C131.378 148.312 136.648 144.032 139.683 149.115C140.193 149.924 140.495 150.227 140.293 151.553Z"
            fill="white" />
        <path
            d="M123.382 165.77C121.469 165.765 119.564 165.528 117.709 165.062C110.429 163.231 106.773 158.883 104.947 155.614C102.707 151.654 102.013 146.672 103.228 143.122C103.559 141.747 104.39 140.545 105.557 139.751C108.917 137.718 111.432 139.443 114.467 141.274C116.707 142.695 119.126 144.324 122.771 145.234C126.417 146.144 129.357 145.947 131.989 145.745C135.533 145.543 138.569 145.234 140.495 148.688C141.105 149.705 141.206 151.126 140.898 152.755C140.293 155.597 137.964 160.057 133.204 163.012C130.263 164.861 126.852 165.818 123.382 165.77ZM108.592 140.577C107.826 140.582 107.08 140.832 106.465 141.291C105.7 141.885 105.135 142.701 104.846 143.627C104.034 146.065 104.034 150.328 106.465 154.698C108.088 157.647 111.432 161.607 118.112 163.332C124.698 165.062 129.458 163.332 132.291 161.506C136.547 158.866 138.669 154.901 139.179 152.362C139.381 151.143 139.381 150.115 138.977 149.519C137.561 147.183 135.735 147.183 132.09 147.486C128.805 147.856 125.482 147.65 122.267 146.879C119.06 146.016 116.038 144.569 113.352 142.611C111.331 141.392 109.914 140.577 108.592 140.577Z"
            fill="#BF4B6F" />
        <path
            d="M242.989 67.3256C242.996 71.525 241.38 75.5637 238.481 78.5934C235.908 81.3084 234.061 84.6317 233.111 88.2546L232.669 89.9397H221.043L220.601 88.3782C220.103 86.5837 219.416 84.8475 218.551 83.1993C217.614 81.538 216.486 79.9922 215.191 78.5934C214.851 78.2374 214.532 77.8623 214.234 77.47C212.372 75.1288 211.194 72.3158 210.83 69.3435C210.466 66.3711 210.931 63.3558 212.173 60.6324C213.414 57.909 215.384 55.584 217.863 53.9158C220.343 52.2476 223.234 51.3014 226.218 51.1823C229.286 51.069 232.323 51.8305 234.978 53.3784C237.632 54.9264 239.794 57.1973 241.214 59.928C242.37 62.2224 242.978 64.755 242.989 67.3256Z"
            fill="#FFD56C" />
        <path
            d="M242.989 67.3256C242.996 71.525 241.38 75.5637 238.481 78.5934C235.908 81.3084 234.061 84.6317 233.111 88.2546L232.814 89.4398L232.669 89.9622H222.029C221.261 87.5263 220.085 85.2394 218.551 83.1993C218.479 83.1263 218.406 82.9746 218.333 82.9016C217.891 82.3849 217.443 81.7782 216.927 81.2727C215.831 80.1583 214.91 78.8837 214.195 77.4924C212.982 75.1817 212.363 72.6047 212.392 69.9937C212.4 66.7022 213.407 63.4912 215.279 60.7875C217.15 58.0838 219.798 56.0154 222.869 54.8571C225.941 53.6988 229.291 53.5056 232.475 54.303C235.659 55.1004 238.525 56.8507 240.693 59.3214C240.839 59.5404 241.063 59.6921 241.208 59.8831C242.373 62.1905 242.983 64.7394 242.989 67.3256Z"
            fill="#FFCA3B" />
        <path
            d="M242.989 67.3256C242.996 71.525 241.38 75.5637 238.481 78.5934C235.908 81.3084 234.061 84.6317 233.111 88.2546L232.814 89.4398C232.075 89.5915 231.336 89.7375 230.574 89.9622H222.006C221.245 87.5278 220.077 85.241 218.551 83.1993C218.479 83.1263 218.406 82.9746 218.333 82.9016V82.8286C218.333 82.8286 227.494 85.272 234.365 78.2339C240.576 71.8586 240.794 61.3323 240.721 59.3326C240.867 59.5517 241.091 59.7033 241.236 59.8943C242.389 62.2007 242.99 64.7454 242.989 67.3256Z"
            fill="#EAB021" />
        <path
            d="M232.646 90.5969H221.043C220.895 90.5827 220.754 90.5266 220.636 90.4351C220.518 90.3437 220.428 90.2206 220.377 90.0802L219.935 88.5243C218.998 84.974 217.195 81.7135 214.687 79.0371C212.386 76.6444 210.837 73.6253 210.235 70.356C209.632 67.0868 210.001 63.7118 211.297 60.6516C212.593 57.5915 214.758 54.9814 217.522 53.1467C220.286 51.312 223.527 50.3337 226.842 50.3337C230.157 50.3337 233.398 51.312 236.162 53.1467C238.926 54.9814 241.091 57.5915 242.387 60.6516C243.683 63.7118 244.052 67.0868 243.449 70.356C242.846 73.6253 241.298 76.6444 238.996 79.0371C236.493 81.6867 234.691 84.9233 233.755 88.4512L233.307 90.1363C233.244 90.2625 233.151 90.3707 233.035 90.4512C232.92 90.5316 232.786 90.5818 232.646 90.5969ZM221.486 89.2657H232.125L232.422 88.0805C233.431 84.3645 235.335 80.9541 237.966 78.1496C240.124 75.9148 241.565 73.083 242.103 70.0193C242.642 66.9555 242.254 63.8001 240.989 60.9597C239.723 58.1193 237.639 55.724 235.005 54.0825C232.37 52.441 229.306 51.6285 226.206 51.7496C223.214 51.874 220.32 52.8607 217.872 54.5916C215.424 56.3225 213.526 58.7243 212.403 61.5096C211.28 64.2949 210.982 67.3456 211.543 70.2967C212.104 73.2478 213.501 75.9742 215.567 78.1496C218.232 80.995 220.155 84.4564 221.166 88.2266L221.486 89.2657Z"
            fill="#E29700" />
        <path
            d="M224.588 89.4117C224.501 89.4118 224.414 89.3944 224.334 89.3608C224.253 89.3271 224.18 89.2778 224.119 89.2156C224.057 89.1535 224.009 89.0798 223.976 88.9987C223.943 88.9176 223.927 88.8308 223.927 88.7433V76.7397H223.63C220.747 76.7397 219.711 75.4029 219.268 74.6615C219.023 74.1412 218.922 73.5648 218.974 72.992C219.026 72.4191 219.23 71.8707 219.565 71.4036C219.85 70.9939 220.243 70.6719 220.7 70.4735C221.156 70.2751 221.659 70.2081 222.152 70.2802C224.885 70.7239 225.254 74.0604 225.254 75.4647H227.102C227.279 75.4647 227.449 75.5351 227.574 75.6605C227.699 75.7858 227.769 75.9558 227.769 76.1331C227.769 76.3104 227.699 76.4804 227.574 76.6058C227.449 76.7311 227.279 76.8015 227.102 76.8015H225.271V88.8163C225.233 88.9743 225.146 89.1163 225.024 89.2229C224.902 89.3295 224.749 89.3955 224.588 89.4117ZM221.71 71.5496C221.488 71.5478 221.27 71.6013 221.075 71.7052C220.879 71.8092 220.712 71.9603 220.59 72.145C220.405 72.4274 220.294 72.752 220.267 73.0889C220.241 73.4257 220.3 73.7638 220.439 74.0717C220.887 74.9592 221.995 75.4029 223.619 75.4759H223.916C223.916 74.2907 223.619 71.8473 221.917 71.6226C221.889 71.5965 221.857 71.5765 221.821 71.5639C221.785 71.5514 221.747 71.5465 221.71 71.5496Z"
            fill="#E29700" />
        <path
            d="M229.617 89.4117C229.44 89.4117 229.27 89.3413 229.145 89.216C229.02 89.0906 228.95 88.9206 228.95 88.7433V76.8128H227.03C226.853 76.8128 226.683 76.7424 226.558 76.617C226.433 76.4916 226.363 76.3216 226.363 76.1443C226.363 75.9671 226.433 75.7971 226.558 75.6717C226.683 75.5463 226.853 75.4759 227.03 75.4759H228.877C228.877 74.1447 229.247 70.6621 231.98 70.2914C232.473 70.2033 232.982 70.2628 233.442 70.4625C233.902 70.6623 234.293 70.9935 234.567 71.4148C234.902 71.8691 235.106 72.4067 235.157 72.9692C235.208 73.5317 235.105 74.0976 234.858 74.6053C234.489 75.4197 233.458 76.678 230.501 76.8521H230.132V88.8163C230.277 89.114 229.986 89.4117 229.617 89.4117ZM232.417 71.5496H232.198C230.518 71.8473 230.199 74.2907 230.199 75.4815H230.496C232.12 75.4085 233.296 74.8918 233.671 74.0043C233.813 73.7102 233.875 73.3835 233.849 73.0576C233.824 72.7318 233.712 72.4187 233.525 72.1506C233.416 71.9566 233.255 71.7973 233.06 71.691C232.865 71.5847 232.644 71.5357 232.422 71.5496H232.417Z"
            fill="#E29700" />
        <path
            d="M228.211 103.718H225.327C224.192 103.717 223.103 103.264 222.3 102.458C221.497 101.653 221.045 100.56 221.043 99.4213V93.0459C221.045 91.9068 221.497 90.8147 222.3 90.0091C223.103 89.2036 224.192 88.7504 225.327 88.7489H228.211C229.347 88.7504 230.436 89.2036 231.239 90.0091C232.042 90.8147 232.494 91.9068 232.495 93.0459V99.4213C232.507 99.9889 232.405 100.553 232.194 101.08C231.983 101.607 231.668 102.086 231.268 102.487C230.867 102.889 230.39 103.205 229.865 103.416C229.34 103.628 228.777 103.731 228.211 103.718Z"
            fill="#4150D8" />
        <path
            d="M228.211 104.387H225.327C224.014 104.387 222.755 103.864 221.827 102.932C220.898 102.001 220.377 100.738 220.377 99.4213V93.0459C220.377 91.729 220.898 90.4661 221.827 89.5348C222.755 88.6036 224.014 88.0805 225.327 88.0805H228.211C229.524 88.0805 230.783 88.6036 231.712 89.5348C232.64 90.4661 233.161 91.729 233.161 93.0459V99.4213C233.161 100.738 232.64 102.001 231.712 102.932C230.783 103.864 229.524 104.387 228.211 104.387ZM225.327 89.4117C224.348 89.4147 223.411 89.8064 222.719 90.5012C222.027 91.1959 221.638 92.1372 221.637 93.119V99.4887C221.64 100.47 222.029 101.41 222.721 102.105C223.412 102.799 224.349 103.191 225.327 103.196H228.211C229.19 103.191 230.128 102.799 230.82 102.105C231.512 101.411 231.903 100.471 231.907 99.4887V93.119C231.903 92.1371 231.512 91.1967 230.82 90.5025C230.128 89.8082 229.19 89.4162 228.211 89.4117H225.327Z"
            fill="#31409B" />
        <path
            d="M232.277 97.7137H221.413C220.67 97.7137 219.958 97.4178 219.433 96.8911C218.908 96.3644 218.613 95.65 218.613 94.9052V90.3105C218.613 89.5656 218.908 88.8512 219.433 88.3245C219.958 87.7978 220.67 87.502 221.413 87.502H232.277C233.019 87.502 233.731 87.7978 234.256 88.3245C234.782 88.8512 235.077 89.5656 235.077 90.3105V94.9052C235.077 95.65 234.782 96.3644 234.256 96.8911C233.731 97.4178 233.019 97.7137 232.277 97.7137Z"
            fill="#4150D8" />
        <path
            d="M232.277 98.3653H221.413C220.957 98.366 220.505 98.2764 220.083 98.1017C219.662 97.9269 219.279 97.6704 218.956 97.3469C218.634 97.0234 218.378 96.6392 218.204 96.2163C218.03 95.7934 217.94 95.3403 217.941 94.8827V90.288C217.94 89.83 218.028 89.3762 218.202 88.9527C218.376 88.5292 218.632 88.1443 218.954 87.8202C219.277 87.496 219.66 87.239 220.082 87.0639C220.504 86.8888 220.956 86.7991 221.413 86.7998H232.277C232.733 86.7991 233.186 86.8888 233.607 87.0639C234.029 87.239 234.413 87.496 234.735 87.8202C235.058 88.1443 235.313 88.5292 235.487 88.9527C235.661 89.3762 235.75 89.83 235.749 90.288V94.8827C235.749 95.3403 235.66 95.7934 235.486 96.2163C235.312 96.6392 235.056 97.0234 234.733 97.3469C234.411 97.6704 234.028 97.9269 233.606 98.1017C233.185 98.2764 232.733 98.366 232.277 98.3653ZM221.351 88.1535C220.757 88.1535 220.187 88.3902 219.767 88.8116C219.347 89.233 219.111 89.8044 219.111 90.4003V94.9951C219.111 95.5909 219.347 96.1624 219.767 96.5838C220.187 97.0051 220.757 97.2419 221.351 97.2419H232.209C232.804 97.2419 233.373 97.0051 233.793 96.5838C234.213 96.1624 234.449 95.5909 234.449 94.9951V90.4003C234.449 89.8044 234.213 89.233 233.793 88.8116C233.373 88.3902 232.804 88.1535 232.209 88.1535H221.351Z"
            fill="#31409B" />
        <path
            d="M235.082 91.9338H218.551C218.182 91.9338 218.333 91.6361 218.333 91.2654C218.333 90.8946 218.182 90.5969 218.551 90.5969H235.105C235.474 90.5969 235.418 90.8946 235.418 91.2654C235.418 91.6361 235.452 91.9338 235.082 91.9338Z"
            fill="#31409B" />
        <path
            d="M235.082 94.6019H218.551C218.182 94.6019 218.333 94.3042 218.333 93.9334C218.333 93.5627 218.182 93.265 218.551 93.265H235.105C235.474 93.265 235.413 93.5627 235.413 93.9334C235.413 94.3042 235.452 94.6019 235.082 94.6019Z"
            fill="#31409B" />
        <path
            d="M227.03 46.054C226.689 46.0562 226.352 45.9906 226.037 45.861C225.722 45.7314 225.436 45.5403 225.195 45.2989C224.955 45.0575 224.764 44.7705 224.635 44.4546C224.506 44.1388 224.44 43.8003 224.442 43.4589V33.91C224.442 33.2217 224.715 32.5616 225.2 32.075C225.685 31.5883 226.343 31.3149 227.03 31.3149C227.716 31.3149 228.374 31.5883 228.859 32.075C229.344 32.5616 229.617 33.2217 229.617 33.91V43.4589C229.625 43.802 229.564 44.1432 229.437 44.4619C229.31 44.7806 229.12 45.0701 228.878 45.3127C228.636 45.5554 228.347 45.7463 228.03 45.8737C227.712 46.0011 227.372 46.0624 227.03 46.054Z"
            fill="#FFCA3B" />
        <path
            d="M211.361 51.8339C211.02 51.8388 210.68 51.7758 210.363 51.6485C210.046 51.5213 209.757 51.3323 209.513 51.0924L202.793 44.352C202.303 43.8611 202.028 43.1951 202.027 42.5004C202.027 41.8057 202.301 41.1392 202.791 40.6476C203.28 40.156 203.944 39.8795 204.637 39.879C205.329 39.8784 205.994 40.1539 206.484 40.6448L213.204 47.3852C213.449 47.6268 213.645 47.9152 213.778 48.2335C213.911 48.5518 213.98 48.8936 213.98 49.2388C213.98 49.5841 213.911 49.9258 213.778 50.2441C213.645 50.5624 213.449 50.8508 213.204 51.0924C212.695 51.548 212.043 51.8103 211.361 51.8339Z"
            fill="#FFCA3B" />
        <path
            d="M242.765 51.8339C242.248 51.8403 241.742 51.6913 241.31 51.4063C240.879 51.1213 240.542 50.7131 240.344 50.2345C240.146 49.7559 240.095 49.2287 240.198 48.7209C240.301 48.2131 240.554 47.7479 240.923 47.3852L247.643 40.6448C248.139 40.1823 248.794 39.9308 249.471 39.9432C250.148 39.9555 250.794 40.2308 251.272 40.7111C251.751 41.1913 252.026 41.8391 252.038 42.5181C252.05 43.1972 251.8 43.8546 251.339 44.352L244.619 51.0924C244.107 51.5504 243.451 51.8129 242.765 51.8339Z"
            fill="#FFCA3B" />
        <path
            d="M227.03 46.7224C226.169 46.715 225.346 46.3689 224.737 45.7584C224.128 45.148 223.783 44.3222 223.776 43.4589V33.91C223.758 33.4704 223.828 33.0316 223.984 32.6201C224.139 32.2086 224.375 31.8328 224.679 31.5153C224.983 31.1978 225.347 30.9452 225.751 30.7726C226.154 30.6001 226.588 30.5111 227.027 30.5111C227.465 30.5111 227.899 30.6001 228.303 30.7726C228.706 30.9452 229.071 31.1978 229.375 31.5153C229.678 31.8328 229.915 32.2086 230.07 32.6201C230.225 33.0316 230.296 33.4704 230.277 33.91V43.4589C230.287 43.8897 230.21 44.3181 230.051 44.7182C229.891 45.1182 229.652 45.4817 229.349 45.7867C229.045 46.0917 228.683 46.3318 228.285 46.4926C227.886 46.6534 227.459 46.7316 227.03 46.7224ZM227.03 31.8935C226.767 31.8927 226.507 31.9441 226.264 32.0447C226.022 32.1453 225.802 32.293 225.616 32.4795C225.431 32.6659 225.284 32.8873 225.185 33.1309C225.085 33.3745 225.034 33.6354 225.036 33.8987V43.4477C225.036 43.978 225.246 44.4866 225.62 44.8616C225.994 45.2366 226.501 45.4473 227.03 45.4473C227.558 45.4473 228.065 45.2366 228.439 44.8616C228.813 44.4866 229.023 43.978 229.023 43.4477V33.8987C229.025 33.6354 228.974 33.3745 228.874 33.1309C228.775 32.8873 228.628 32.6659 228.443 32.4795C228.257 32.293 228.037 32.1453 227.795 32.0447C227.552 31.9441 227.292 31.8927 227.03 31.8935Z"
            fill="#E29700" />
        <path
            d="M211.361 52.5023C210.935 52.5002 210.513 52.4138 210.12 52.248C209.727 52.0822 209.371 51.8403 209.071 51.5362L202.351 44.7957C201.749 44.1815 201.404 43.3595 201.388 42.4984C201.39 42.0707 201.476 41.6477 201.641 41.2535C201.807 40.8593 202.048 40.5016 202.351 40.201C202.977 39.5986 203.81 39.2621 204.678 39.2621C205.545 39.2621 206.379 39.5986 207.004 40.201L213.724 46.9414C214.027 47.2418 214.268 47.5996 214.432 47.9939C214.596 48.3883 214.681 48.8114 214.681 49.2388C214.681 49.6662 214.596 50.0893 214.432 50.4837C214.268 50.878 214.027 51.2358 213.724 51.5362C213.083 52.1404 212.241 52.4846 211.361 52.5023ZM204.641 40.4201C204.246 40.4163 203.858 40.5312 203.528 40.7501C203.198 40.969 202.941 41.2819 202.79 41.6486C202.639 42.0152 202.601 42.4188 202.68 42.8075C202.76 43.1962 202.953 43.5521 203.236 43.8296L209.956 50.57C210.335 50.9262 210.836 51.1244 211.356 51.1244C211.875 51.1244 212.376 50.9262 212.756 50.57C212.942 50.387 213.09 50.1685 213.191 49.9274C213.292 49.6863 213.344 49.4273 213.344 49.1658C213.344 48.9042 213.292 48.6453 213.191 48.4042C213.09 48.1631 212.942 47.9446 212.756 47.7615L206.036 41.0211C205.65 40.671 205.16 40.4595 204.641 40.4201Z"
            fill="#E29700" />
        <path
            d="M242.765 52.5023C242.339 52.5002 241.917 52.4138 241.524 52.248C241.131 52.0822 240.774 51.8403 240.475 51.5362C240.172 51.2358 239.931 50.878 239.767 50.4837C239.603 50.0893 239.518 49.6662 239.518 49.2388C239.518 48.8114 239.603 48.3883 239.767 47.9939C239.931 47.5996 240.172 47.2418 240.475 46.9414L247.195 40.201C247.82 39.5986 248.654 39.2621 249.521 39.2621C250.389 39.2621 251.222 39.5986 251.848 40.201C252.153 40.5007 252.396 40.8586 252.562 41.2536C252.727 41.6485 252.812 42.0727 252.812 42.5012C252.812 42.9297 252.727 43.3538 252.562 43.7488C252.396 44.1438 252.153 44.5016 251.848 44.8014L245.128 51.5418C244.486 52.144 243.644 52.4862 242.765 52.5023ZM249.485 40.4201C248.959 40.4276 248.456 40.6413 248.085 41.0155L241.365 47.7559C241.179 47.939 241.031 48.1574 240.93 48.3986C240.829 48.6397 240.777 48.8986 240.777 49.1602C240.777 49.4217 240.829 49.6806 240.93 49.9218C241.031 50.1629 241.179 50.3814 241.365 50.5644C241.745 50.9206 242.245 51.1188 242.765 51.1188C243.285 51.1188 243.785 50.9206 244.165 50.5644L250.885 43.824C251.159 43.5434 251.346 43.188 251.42 42.8021C251.495 42.4161 251.455 42.0167 251.305 41.6534C251.156 41.29 250.903 40.9789 250.578 40.7586C250.253 40.5384 249.871 40.4187 249.479 40.4145L249.485 40.4201Z"
            fill="#E29700" />
        <path
            d="M214.015 195.669H213.971C213.86 195.667 213.752 195.643 213.65 195.598C213.549 195.554 213.458 195.49 213.382 195.41C213.305 195.33 213.245 195.236 213.205 195.133C213.165 195.03 213.145 194.92 213.148 194.81C213.155 194.588 213.248 194.378 213.407 194.224C213.565 194.07 213.778 193.984 213.999 193.984C214.189 193.984 234.718 194.107 242.95 174.088C242.992 173.986 243.054 173.893 243.131 173.814C243.209 173.735 243.302 173.673 243.404 173.63C243.506 173.587 243.615 173.565 243.725 173.565C243.836 173.564 243.945 173.586 244.048 173.628C244.15 173.67 244.243 173.732 244.321 173.81C244.4 173.888 244.462 173.981 244.504 174.083C244.547 174.185 244.569 174.295 244.57 174.406C244.57 174.516 244.549 174.626 244.507 174.729C236.045 195.349 215.152 195.669 214.015 195.669Z"
            fill="#ACBFE5" />
        <path
            d="M233.957 198.421C233.759 198.421 233.568 198.351 233.417 198.224C233.266 198.096 233.164 197.919 233.13 197.724C233.096 197.529 233.132 197.328 233.23 197.157C233.329 196.985 233.485 196.854 233.671 196.787C233.755 196.759 241.6 193.855 245.403 185.721C245.444 185.613 245.507 185.515 245.588 185.433C245.669 185.351 245.766 185.286 245.873 185.243C245.98 185.2 246.095 185.18 246.21 185.183C246.325 185.186 246.438 185.213 246.543 185.262C246.647 185.311 246.74 185.381 246.816 185.468C246.892 185.555 246.95 185.656 246.985 185.766C247.021 185.876 247.033 185.992 247.022 186.107C247.011 186.222 246.976 186.334 246.92 186.435C244.309 191.846 239.787 196.092 234.231 198.348C234.145 198.389 234.052 198.414 233.957 198.421Z"
            fill="#ACBFE5" />
    </g>
    <defs>
        <clipPath id="clip0_28_112">
            <rect width="257" height="264" fill="white" />
        </clipPath>
    </defs>
</svg>
    