<svg width="93" height="93" viewBox="0 0 93 93" fill="none" xmlns="http://www.w3.org/2000/svg">
    <path
        d="M73.656 11.5488H19.9893C15.7551 11.5488 12.3226 14.9813 12.3226 19.2155V72.8822C12.3226 77.1163 15.7551 80.5488 19.9893 80.5488H73.656C77.8901 80.5488 81.3226 77.1163 81.3226 72.8822V19.2155C81.3226 14.9813 77.8901 11.5488 73.656 11.5488Z"
        stroke="#212121" stroke-width="3" stroke-linecap="round" stroke-linejoin="round" />
    <path
        d="M33.4059 38.3822C36.5816 38.3822 39.1559 35.8078 39.1559 32.6322C39.1559 29.4566 36.5816 26.8822 33.4059 26.8822C30.2303 26.8822 27.6559 29.4566 27.6559 32.6322C27.6559 35.8078 30.2303 38.3822 33.4059 38.3822Z"
        stroke="#212121" stroke-width="3" stroke-linecap="round" stroke-linejoin="round" />
    <path d="M81.3227 57.5489L62.156 38.3822L19.9893 80.5489" stroke="#212121" stroke-width="3"
        stroke-linecap="round" stroke-linejoin="round" />
</svg>
    